<mxfile host="app.diagrams.net" modified="2022-04-07T02:04:45.222Z" agent="5.0 (Windows NT 10.0; Win64; x64) AppleWebKit/537.36 (KHTML, like Gecko) Chrome/100.0.4896.60 Safari/537.36" etag="AaFGqZanC8eA6wP4gmiM" version="17.4.0" type="github" pages="7">
  <diagram id="0-UGGsQzGlZmccWo3gSc" name="Add">
    <mxGraphModel dx="1224" dy="647" grid="0" gridSize="10" guides="1" tooltips="1" connect="1" arrows="1" fold="1" page="1" pageScale="1" pageWidth="827" pageHeight="1169" math="0" shadow="0">
      <root>
        <mxCell id="qMKijY36MhwKj8h1XEW6-0" />
        <mxCell id="qMKijY36MhwKj8h1XEW6-1" parent="qMKijY36MhwKj8h1XEW6-0" />
        <mxCell id="2c7el1293vIFj7M8IKWv-0" value="Thêm dữ liệu máy chấm công" style="swimlane;html=1;childLayout=stackLayout;startSize=20;rounded=0;shadow=0;comic=0;labelBackgroundColor=none;strokeWidth=1;fontFamily=Verdana;fontSize=12;align=center;" parent="qMKijY36MhwKj8h1XEW6-1" vertex="1">
          <mxGeometry x="50" y="30" width="1230" height="890" as="geometry" />
        </mxCell>
        <mxCell id="2c7el1293vIFj7M8IKWv-1" value="Chuyên viên nhân sự" style="swimlane;html=1;startSize=20;" parent="2c7el1293vIFj7M8IKWv-0" vertex="1">
          <mxGeometry y="20" width="300" height="870" as="geometry" />
        </mxCell>
        <mxCell id="2c7el1293vIFj7M8IKWv-35" value="" style="ellipse;whiteSpace=wrap;html=1;rounded=0;shadow=0;comic=0;labelBackgroundColor=none;strokeWidth=1;fillColor=#000000;fontFamily=Verdana;fontSize=12;align=center;" parent="2c7el1293vIFj7M8IKWv-1" vertex="1">
          <mxGeometry x="98" y="31" width="40" height="40" as="geometry" />
        </mxCell>
        <mxCell id="2c7el1293vIFj7M8IKWv-64" style="edgeStyle=orthogonalEdgeStyle;rounded=0;orthogonalLoop=1;jettySize=auto;html=1;entryX=0.5;entryY=0;entryDx=0;entryDy=0;" parent="2c7el1293vIFj7M8IKWv-1" source="2c7el1293vIFj7M8IKWv-36" target="2c7el1293vIFj7M8IKWv-63" edge="1">
          <mxGeometry relative="1" as="geometry" />
        </mxCell>
        <mxCell id="2c7el1293vIFj7M8IKWv-36" value="Thêm mới hồ sơ nhân sự" style="rounded=1;whiteSpace=wrap;html=1;shadow=0;comic=0;labelBackgroundColor=none;strokeWidth=1;fontFamily=Verdana;fontSize=12;align=center;arcSize=50;" parent="2c7el1293vIFj7M8IKWv-1" vertex="1">
          <mxGeometry x="58" y="98" width="120" height="40" as="geometry" />
        </mxCell>
        <mxCell id="2c7el1293vIFj7M8IKWv-34" style="edgeStyle=orthogonalEdgeStyle;rounded=0;html=1;labelBackgroundColor=none;startArrow=none;startFill=0;startSize=5;endArrow=classicThin;endFill=1;endSize=5;jettySize=auto;orthogonalLoop=1;strokeWidth=1;fontFamily=Verdana;fontSize=12" parent="2c7el1293vIFj7M8IKWv-1" source="2c7el1293vIFj7M8IKWv-35" target="2c7el1293vIFj7M8IKWv-36" edge="1">
          <mxGeometry relative="1" as="geometry" />
        </mxCell>
        <mxCell id="I70B5gRinSRYeHbSVZLM-3" style="edgeStyle=orthogonalEdgeStyle;rounded=0;orthogonalLoop=1;jettySize=auto;html=1;entryX=0.49;entryY=0.714;entryDx=0;entryDy=0;entryPerimeter=0;labelBackgroundColor=none;labelBorderColor=none;" parent="2c7el1293vIFj7M8IKWv-1" source="2c7el1293vIFj7M8IKWv-63" target="HSwUV9XWWr3Dz0N6sbyV-0" edge="1">
          <mxGeometry relative="1" as="geometry" />
        </mxCell>
        <mxCell id="2c7el1293vIFj7M8IKWv-63" value="Thêm mới nhân sự chấm công" style="rounded=1;whiteSpace=wrap;html=1;shadow=0;comic=0;labelBackgroundColor=none;strokeWidth=1;fontFamily=Verdana;fontSize=12;align=center;arcSize=50;" parent="2c7el1293vIFj7M8IKWv-1" vertex="1">
          <mxGeometry x="58" y="176" width="120" height="40" as="geometry" />
        </mxCell>
        <mxCell id="2c7el1293vIFj7M8IKWv-50" value="" style="shape=mxgraph.bpmn.shape;html=1;verticalLabelPosition=bottom;labelBackgroundColor=#ffffff;verticalAlign=top;perimeter=ellipsePerimeter;outline=end;symbol=terminate;rounded=0;shadow=0;comic=0;strokeWidth=1;fontFamily=Verdana;fontSize=12;align=center;" parent="2c7el1293vIFj7M8IKWv-1" vertex="1">
          <mxGeometry x="63" y="781.5" width="40" height="40" as="geometry" />
        </mxCell>
        <mxCell id="2c7el1293vIFj7M8IKWv-175" value="Đồng bộ nhân sự người lao động lên máy&amp;nbsp;" style="rounded=1;whiteSpace=wrap;html=1;shadow=0;comic=0;labelBackgroundColor=none;strokeWidth=1;fontFamily=Verdana;fontSize=12;align=center;arcSize=50;" parent="2c7el1293vIFj7M8IKWv-1" vertex="1">
          <mxGeometry x="66" y="543" width="120" height="45" as="geometry" />
        </mxCell>
        <mxCell id="2c7el1293vIFj7M8IKWv-207" style="edgeStyle=orthogonalEdgeStyle;rounded=0;orthogonalLoop=1;jettySize=auto;html=1;" parent="2c7el1293vIFj7M8IKWv-1" source="2c7el1293vIFj7M8IKWv-192" target="2c7el1293vIFj7M8IKWv-50" edge="1">
          <mxGeometry relative="1" as="geometry" />
        </mxCell>
        <mxCell id="2c7el1293vIFj7M8IKWv-192" value="Trả về thông báo đồng bộ thành công" style="rounded=1;whiteSpace=wrap;html=1;shadow=0;comic=0;labelBackgroundColor=none;strokeWidth=1;fontFamily=Verdana;fontSize=12;align=center;arcSize=50;" parent="2c7el1293vIFj7M8IKWv-1" vertex="1">
          <mxGeometry x="24" y="633" width="118" height="57" as="geometry" />
        </mxCell>
        <mxCell id="2c7el1293vIFj7M8IKWv-196" style="edgeStyle=orthogonalEdgeStyle;rounded=0;orthogonalLoop=1;jettySize=auto;html=1;" parent="2c7el1293vIFj7M8IKWv-1" source="2c7el1293vIFj7M8IKWv-194" target="2c7el1293vIFj7M8IKWv-175" edge="1">
          <mxGeometry relative="1" as="geometry" />
        </mxCell>
        <mxCell id="2c7el1293vIFj7M8IKWv-194" value="Cập nhật vân tay cho người lao động" style="rounded=1;whiteSpace=wrap;html=1;shadow=0;comic=0;labelBackgroundColor=none;strokeWidth=1;fontFamily=Verdana;fontSize=12;align=center;arcSize=50;" parent="2c7el1293vIFj7M8IKWv-1" vertex="1">
          <mxGeometry x="66" y="421" width="120" height="53" as="geometry" />
        </mxCell>
        <mxCell id="2c7el1293vIFj7M8IKWv-206" style="edgeStyle=orthogonalEdgeStyle;rounded=0;orthogonalLoop=1;jettySize=auto;html=1;entryX=1;entryY=0.5;entryDx=0;entryDy=0;" parent="2c7el1293vIFj7M8IKWv-1" source="2c7el1293vIFj7M8IKWv-198" target="2c7el1293vIFj7M8IKWv-50" edge="1">
          <mxGeometry relative="1" as="geometry" />
        </mxCell>
        <mxCell id="2c7el1293vIFj7M8IKWv-198" value="Thông báo lỗi cho chuyên viên" style="rounded=1;whiteSpace=wrap;html=1;shadow=0;comic=0;labelBackgroundColor=none;strokeWidth=1;fontFamily=Verdana;fontSize=12;align=center;arcSize=50;" parent="2c7el1293vIFj7M8IKWv-1" vertex="1">
          <mxGeometry x="150" y="773" width="118" height="57" as="geometry" />
        </mxCell>
        <mxCell id="I70B5gRinSRYeHbSVZLM-1" style="edgeStyle=orthogonalEdgeStyle;rounded=0;orthogonalLoop=1;jettySize=auto;html=1;labelBackgroundColor=none;labelBorderColor=none;exitX=0.472;exitY=0.485;exitDx=0;exitDy=0;exitPerimeter=0;" parent="2c7el1293vIFj7M8IKWv-1" source="HSwUV9XWWr3Dz0N6sbyV-0" target="I70B5gRinSRYeHbSVZLM-0" edge="1">
          <mxGeometry relative="1" as="geometry">
            <mxPoint x="130" y="290" as="sourcePoint" />
            <Array as="points">
              <mxPoint x="117" y="280" />
              <mxPoint x="230" y="280" />
            </Array>
          </mxGeometry>
        </mxCell>
        <mxCell id="I70B5gRinSRYeHbSVZLM-2" style="edgeStyle=orthogonalEdgeStyle;rounded=0;orthogonalLoop=1;jettySize=auto;html=1;labelBackgroundColor=none;labelBorderColor=none;exitX=0.445;exitY=1;exitDx=0;exitDy=0;exitPerimeter=0;" parent="2c7el1293vIFj7M8IKWv-1" source="HSwUV9XWWr3Dz0N6sbyV-0" target="2c7el1293vIFj7M8IKWv-175" edge="1">
          <mxGeometry relative="1" as="geometry">
            <Array as="points">
              <mxPoint x="115" y="280" />
              <mxPoint x="40" y="280" />
              <mxPoint x="40" y="566" />
            </Array>
          </mxGeometry>
        </mxCell>
        <mxCell id="HSwUV9XWWr3Dz0N6sbyV-0" value="" style="line;strokeWidth=3;fillColor=none;align=left;verticalAlign=middle;spacingTop=-1;spacingLeft=3;spacingRight=3;rotatable=0;labelPosition=right;points=[];portConstraint=eastwest;" parent="2c7el1293vIFj7M8IKWv-1" vertex="1">
          <mxGeometry x="69" y="260" width="100" height="1" as="geometry" />
        </mxCell>
        <mxCell id="I70B5gRinSRYeHbSVZLM-0" value="Thêm dữ liệu vân tay" style="rounded=1;whiteSpace=wrap;html=1;shadow=0;comic=0;labelBackgroundColor=none;strokeWidth=1;fontFamily=Verdana;fontSize=12;align=center;arcSize=50;" parent="2c7el1293vIFj7M8IKWv-1" vertex="1">
          <mxGeometry x="170" y="310" width="120" height="40" as="geometry" />
        </mxCell>
        <mxCell id="2c7el1293vIFj7M8IKWv-33" value="Người lao động" style="swimlane;html=1;startSize=20;" parent="2c7el1293vIFj7M8IKWv-0" vertex="1">
          <mxGeometry x="300" y="20" width="250" height="870" as="geometry" />
        </mxCell>
        <mxCell id="2c7el1293vIFj7M8IKWv-150" value="Nhập vân tay trên máy" style="rounded=1;whiteSpace=wrap;html=1;shadow=0;comic=0;labelBackgroundColor=none;strokeWidth=1;fontFamily=Verdana;fontSize=12;align=center;arcSize=50;" parent="2c7el1293vIFj7M8IKWv-33" vertex="1">
          <mxGeometry x="60" y="318" width="120" height="40" as="geometry" />
        </mxCell>
        <mxCell id="2c7el1293vIFj7M8IKWv-186" value="Đồng bộ dữ liệu nhân sự &lt;br&gt;mới lên máy chấm công" style="shape=note;whiteSpace=wrap;html=1;rounded=0;shadow=0;comic=0;labelBackgroundColor=none;strokeWidth=1;fontFamily=Verdana;fontSize=12;align=center;size=20;" parent="2c7el1293vIFj7M8IKWv-33" vertex="1">
          <mxGeometry x="70" y="485" width="167.5" height="50" as="geometry" />
        </mxCell>
        <mxCell id="2c7el1293vIFj7M8IKWv-65" value="Hệ thống HRM" style="swimlane;html=1;startSize=20;" parent="2c7el1293vIFj7M8IKWv-0" vertex="1">
          <mxGeometry x="550" y="20" width="270" height="870" as="geometry" />
        </mxCell>
        <mxCell id="2c7el1293vIFj7M8IKWv-78" value="Gọi API lấy vân tay" style="rounded=1;whiteSpace=wrap;html=1;shadow=0;comic=0;labelBackgroundColor=none;strokeWidth=1;fontFamily=Verdana;fontSize=12;align=center;arcSize=50;" parent="2c7el1293vIFj7M8IKWv-65" vertex="1">
          <mxGeometry x="70" y="175" width="120" height="40" as="geometry" />
        </mxCell>
        <mxCell id="2c7el1293vIFj7M8IKWv-93" value="Trường hợp lấy vân tay" style="shape=note;whiteSpace=wrap;html=1;rounded=0;shadow=0;comic=0;labelBackgroundColor=none;strokeWidth=1;fontFamily=Verdana;fontSize=12;align=center;size=20;" parent="2c7el1293vIFj7M8IKWv-65" vertex="1">
          <mxGeometry x="25" y="62" width="155" height="45" as="geometry" />
        </mxCell>
        <mxCell id="2c7el1293vIFj7M8IKWv-162" value="Trên máy chấm công mở ra giao diện cho người lao động lấy vân tay" style="shape=note;whiteSpace=wrap;html=1;rounded=0;shadow=0;comic=0;labelBackgroundColor=none;strokeWidth=1;fontFamily=Verdana;fontSize=12;align=center;size=20;" parent="2c7el1293vIFj7M8IKWv-65" vertex="1">
          <mxGeometry x="17.5" y="310" width="235" height="50" as="geometry" />
        </mxCell>
        <mxCell id="2c7el1293vIFj7M8IKWv-179" value="Gọi API đồng bộ dữ liệu" style="rounded=1;whiteSpace=wrap;html=1;shadow=0;comic=0;labelBackgroundColor=none;strokeWidth=1;fontFamily=Verdana;fontSize=12;align=center;arcSize=50;" parent="2c7el1293vIFj7M8IKWv-65" vertex="1">
          <mxGeometry x="67" y="540" width="120" height="50" as="geometry" />
        </mxCell>
        <mxCell id="2c7el1293vIFj7M8IKWv-92" style="edgeStyle=orthogonalEdgeStyle;rounded=0;orthogonalLoop=1;jettySize=auto;html=1;entryX=0;entryY=0.5;entryDx=0;entryDy=0;exitX=0.5;exitY=1;exitDx=0;exitDy=0;" parent="2c7el1293vIFj7M8IKWv-0" source="I70B5gRinSRYeHbSVZLM-0" target="2c7el1293vIFj7M8IKWv-78" edge="1">
          <mxGeometry relative="1" as="geometry">
            <Array as="points">
              <mxPoint x="230" y="390" />
              <mxPoint x="340" y="390" />
              <mxPoint x="340" y="215" />
            </Array>
          </mxGeometry>
        </mxCell>
        <mxCell id="2c7el1293vIFj7M8IKWv-148" style="edgeStyle=orthogonalEdgeStyle;rounded=0;orthogonalLoop=1;jettySize=auto;html=1;entryX=0;entryY=0.5;entryDx=0;entryDy=0;" parent="2c7el1293vIFj7M8IKWv-0" source="2c7el1293vIFj7M8IKWv-78" target="2c7el1293vIFj7M8IKWv-146" edge="1">
          <mxGeometry relative="1" as="geometry" />
        </mxCell>
        <mxCell id="2c7el1293vIFj7M8IKWv-151" style="edgeStyle=orthogonalEdgeStyle;rounded=0;orthogonalLoop=1;jettySize=auto;html=1;entryX=0.5;entryY=0;entryDx=0;entryDy=0;" parent="2c7el1293vIFj7M8IKWv-0" source="2c7el1293vIFj7M8IKWv-147" target="2c7el1293vIFj7M8IKWv-150" edge="1">
          <mxGeometry relative="1" as="geometry">
            <mxPoint x="480" y="365" as="targetPoint" />
          </mxGeometry>
        </mxCell>
        <mxCell id="2c7el1293vIFj7M8IKWv-168" style="edgeStyle=orthogonalEdgeStyle;rounded=0;orthogonalLoop=1;jettySize=auto;html=1;" parent="2c7el1293vIFj7M8IKWv-0" source="2c7el1293vIFj7M8IKWv-164" target="2c7el1293vIFj7M8IKWv-194" edge="1">
          <mxGeometry relative="1" as="geometry">
            <mxPoint x="190" y="467" as="targetPoint" />
          </mxGeometry>
        </mxCell>
        <mxCell id="2c7el1293vIFj7M8IKWv-172" style="edgeStyle=orthogonalEdgeStyle;rounded=0;orthogonalLoop=1;jettySize=auto;html=1;exitX=1;exitY=0.5;exitDx=0;exitDy=0;" parent="2c7el1293vIFj7M8IKWv-0" source="2c7el1293vIFj7M8IKWv-164" edge="1">
          <mxGeometry relative="1" as="geometry">
            <mxPoint x="268" y="821" as="targetPoint" />
            <Array as="points">
              <mxPoint x="1140" y="467" />
              <mxPoint x="1140" y="821" />
              <mxPoint x="268" y="821" />
            </Array>
          </mxGeometry>
        </mxCell>
        <mxCell id="2c7el1293vIFj7M8IKWv-180" style="edgeStyle=orthogonalEdgeStyle;rounded=0;orthogonalLoop=1;jettySize=auto;html=1;entryX=0;entryY=0.5;entryDx=0;entryDy=0;" parent="2c7el1293vIFj7M8IKWv-0" source="2c7el1293vIFj7M8IKWv-175" target="2c7el1293vIFj7M8IKWv-179" edge="1">
          <mxGeometry relative="1" as="geometry" />
        </mxCell>
        <mxCell id="2c7el1293vIFj7M8IKWv-183" style="edgeStyle=orthogonalEdgeStyle;rounded=0;orthogonalLoop=1;jettySize=auto;html=1;" parent="2c7el1293vIFj7M8IKWv-0" source="2c7el1293vIFj7M8IKWv-179" target="2c7el1293vIFj7M8IKWv-181" edge="1">
          <mxGeometry relative="1" as="geometry" />
        </mxCell>
        <mxCell id="2c7el1293vIFj7M8IKWv-79" value="Máy chấm công" style="swimlane;html=1;startSize=20;" parent="2c7el1293vIFj7M8IKWv-0" vertex="1">
          <mxGeometry x="820" y="20" width="380" height="870" as="geometry" />
        </mxCell>
        <mxCell id="2c7el1293vIFj7M8IKWv-149" style="edgeStyle=orthogonalEdgeStyle;rounded=0;orthogonalLoop=1;jettySize=auto;html=1;" parent="2c7el1293vIFj7M8IKWv-79" source="2c7el1293vIFj7M8IKWv-146" target="2c7el1293vIFj7M8IKWv-147" edge="1">
          <mxGeometry relative="1" as="geometry" />
        </mxCell>
        <mxCell id="2c7el1293vIFj7M8IKWv-146" value="Check thông tin" style="rounded=1;whiteSpace=wrap;html=1;shadow=0;comic=0;labelBackgroundColor=none;strokeWidth=1;fontFamily=Verdana;fontSize=12;align=center;arcSize=50;" parent="2c7el1293vIFj7M8IKWv-79" vertex="1">
          <mxGeometry x="93" y="175" width="120" height="40" as="geometry" />
        </mxCell>
        <mxCell id="2c7el1293vIFj7M8IKWv-147" value="" style="rhombus;whiteSpace=wrap;html=1;" parent="2c7el1293vIFj7M8IKWv-79" vertex="1">
          <mxGeometry x="123" y="259" width="60" height="50" as="geometry" />
        </mxCell>
        <mxCell id="2c7el1293vIFj7M8IKWv-153" value="[Thông tin chính xác]" style="text;html=1;strokeColor=none;fillColor=none;align=center;verticalAlign=middle;whiteSpace=wrap;rounded=0;" parent="2c7el1293vIFj7M8IKWv-79" vertex="1">
          <mxGeometry x="17" y="250" width="106" height="30" as="geometry" />
        </mxCell>
        <mxCell id="2c7el1293vIFj7M8IKWv-159" value="[Thông tin không chính xác]" style="text;html=1;strokeColor=none;fillColor=none;align=center;verticalAlign=middle;whiteSpace=wrap;rounded=0;" parent="2c7el1293vIFj7M8IKWv-79" vertex="1">
          <mxGeometry x="196" y="240" width="154" height="40" as="geometry" />
        </mxCell>
        <mxCell id="2c7el1293vIFj7M8IKWv-165" style="edgeStyle=orthogonalEdgeStyle;rounded=0;orthogonalLoop=1;jettySize=auto;html=1;" parent="2c7el1293vIFj7M8IKWv-79" source="2c7el1293vIFj7M8IKWv-160" target="2c7el1293vIFj7M8IKWv-164" edge="1">
          <mxGeometry relative="1" as="geometry" />
        </mxCell>
        <mxCell id="2c7el1293vIFj7M8IKWv-160" value="Check dữ liệu vân tay" style="rounded=1;whiteSpace=wrap;html=1;shadow=0;comic=0;labelBackgroundColor=none;strokeWidth=1;fontFamily=Verdana;fontSize=12;align=center;arcSize=50;" parent="2c7el1293vIFj7M8IKWv-79" vertex="1">
          <mxGeometry x="96" y="356" width="120" height="40" as="geometry" />
        </mxCell>
        <mxCell id="2c7el1293vIFj7M8IKWv-164" value="" style="rhombus;whiteSpace=wrap;html=1;" parent="2c7el1293vIFj7M8IKWv-79" vertex="1">
          <mxGeometry x="126" y="422" width="60" height="50" as="geometry" />
        </mxCell>
        <mxCell id="2c7el1293vIFj7M8IKWv-190" style="edgeStyle=orthogonalEdgeStyle;rounded=0;orthogonalLoop=1;jettySize=auto;html=1;" parent="2c7el1293vIFj7M8IKWv-79" source="2c7el1293vIFj7M8IKWv-181" target="2c7el1293vIFj7M8IKWv-188" edge="1">
          <mxGeometry relative="1" as="geometry" />
        </mxCell>
        <mxCell id="2c7el1293vIFj7M8IKWv-181" value="Check dữ liệu đồng bộ" style="rounded=1;whiteSpace=wrap;html=1;shadow=0;comic=0;labelBackgroundColor=none;strokeWidth=1;fontFamily=Verdana;fontSize=12;align=center;arcSize=50;" parent="2c7el1293vIFj7M8IKWv-79" vertex="1">
          <mxGeometry x="101" y="545" width="120" height="40" as="geometry" />
        </mxCell>
        <mxCell id="2c7el1293vIFj7M8IKWv-169" value="[Vân tay chính xác]" style="text;html=1;strokeColor=none;fillColor=none;align=center;verticalAlign=middle;whiteSpace=wrap;rounded=0;" parent="2c7el1293vIFj7M8IKWv-79" vertex="1">
          <mxGeometry x="15" y="420" width="110" height="30" as="geometry" />
        </mxCell>
        <mxCell id="2c7el1293vIFj7M8IKWv-173" value="[Vân tay&amp;nbsp; không chính xác]" style="text;html=1;strokeColor=none;fillColor=none;align=center;verticalAlign=middle;whiteSpace=wrap;rounded=0;" parent="2c7el1293vIFj7M8IKWv-79" vertex="1">
          <mxGeometry x="186" y="420" width="147" height="30" as="geometry" />
        </mxCell>
        <mxCell id="2c7el1293vIFj7M8IKWv-188" value="" style="rhombus;whiteSpace=wrap;html=1;" parent="2c7el1293vIFj7M8IKWv-79" vertex="1">
          <mxGeometry x="131" y="636" width="60" height="50" as="geometry" />
        </mxCell>
        <mxCell id="2c7el1293vIFj7M8IKWv-197" value="[Đồng bộ thành công]" style="text;html=1;strokeColor=none;fillColor=none;align=center;verticalAlign=middle;whiteSpace=wrap;rounded=0;" parent="2c7el1293vIFj7M8IKWv-79" vertex="1">
          <mxGeometry y="630" width="125" height="30" as="geometry" />
        </mxCell>
        <mxCell id="2c7el1293vIFj7M8IKWv-200" value="[Đồng bộ không thành công]" style="text;html=1;strokeColor=none;fillColor=none;align=center;verticalAlign=middle;whiteSpace=wrap;rounded=0;" parent="2c7el1293vIFj7M8IKWv-79" vertex="1">
          <mxGeometry x="170" y="630" width="138" height="30" as="geometry" />
        </mxCell>
        <mxCell id="2c7el1293vIFj7M8IKWv-191" style="edgeStyle=orthogonalEdgeStyle;rounded=0;orthogonalLoop=1;jettySize=auto;html=1;exitX=0;exitY=0.5;exitDx=0;exitDy=0;entryX=1;entryY=0.5;entryDx=0;entryDy=0;" parent="2c7el1293vIFj7M8IKWv-0" source="2c7el1293vIFj7M8IKWv-188" target="2c7el1293vIFj7M8IKWv-192" edge="1">
          <mxGeometry relative="1" as="geometry">
            <mxPoint x="956" y="702" as="sourcePoint" />
            <mxPoint x="240" y="702" as="targetPoint" />
          </mxGeometry>
        </mxCell>
        <mxCell id="2c7el1293vIFj7M8IKWv-195" style="edgeStyle=orthogonalEdgeStyle;rounded=0;orthogonalLoop=1;jettySize=auto;html=1;entryX=0;entryY=0.5;entryDx=0;entryDy=0;" parent="2c7el1293vIFj7M8IKWv-0" source="2c7el1293vIFj7M8IKWv-150" target="2c7el1293vIFj7M8IKWv-160" edge="1">
          <mxGeometry relative="1" as="geometry">
            <Array as="points">
              <mxPoint x="420" y="396" />
            </Array>
          </mxGeometry>
        </mxCell>
        <mxCell id="2c7el1293vIFj7M8IKWv-199" style="edgeStyle=orthogonalEdgeStyle;rounded=0;orthogonalLoop=1;jettySize=auto;html=1;entryX=1;entryY=0.5;entryDx=0;entryDy=0;exitX=1;exitY=0.5;exitDx=0;exitDy=0;" parent="2c7el1293vIFj7M8IKWv-0" source="2c7el1293vIFj7M8IKWv-188" target="2c7el1293vIFj7M8IKWv-198" edge="1">
          <mxGeometry relative="1" as="geometry">
            <mxPoint x="1011" y="680" as="sourcePoint" />
            <mxPoint x="268" y="839.5000000000002" as="targetPoint" />
            <Array as="points">
              <mxPoint x="1110" y="681" />
              <mxPoint x="1110" y="821" />
            </Array>
          </mxGeometry>
        </mxCell>
        <mxCell id="2c7el1293vIFj7M8IKWv-205" style="edgeStyle=orthogonalEdgeStyle;rounded=0;orthogonalLoop=1;jettySize=auto;html=1;entryX=1;entryY=0.5;entryDx=0;entryDy=0;" parent="2c7el1293vIFj7M8IKWv-0" source="2c7el1293vIFj7M8IKWv-147" target="2c7el1293vIFj7M8IKWv-198" edge="1">
          <mxGeometry relative="1" as="geometry">
            <Array as="points">
              <mxPoint x="1180" y="304" />
              <mxPoint x="1180" y="822" />
            </Array>
          </mxGeometry>
        </mxCell>
        <mxCell id="2c7el1293vIFj7M8IKWv-94" style="edgeStyle=none;rounded=0;html=1;dashed=1;labelBackgroundColor=none;startArrow=none;startFill=0;startSize=5;endArrow=oval;endFill=0;endSize=5;jettySize=auto;orthogonalLoop=1;strokeWidth=1;fontFamily=Verdana;fontSize=12" parent="qMKijY36MhwKj8h1XEW6-1" source="2c7el1293vIFj7M8IKWv-93" edge="1">
          <mxGeometry relative="1" as="geometry">
            <mxPoint x="466.9642857142858" y="700" as="sourcePoint" />
            <mxPoint x="620" y="240" as="targetPoint" />
          </mxGeometry>
        </mxCell>
        <mxCell id="2c7el1293vIFj7M8IKWv-163" style="edgeStyle=none;rounded=0;html=1;dashed=1;labelBackgroundColor=none;startArrow=none;startFill=0;startSize=5;endArrow=oval;endFill=0;endSize=5;jettySize=auto;orthogonalLoop=1;strokeWidth=1;fontFamily=Verdana;fontSize=12;exitX=0.5;exitY=0;exitDx=0;exitDy=0;exitPerimeter=0;" parent="qMKijY36MhwKj8h1XEW6-1" source="2c7el1293vIFj7M8IKWv-162" edge="1">
          <mxGeometry relative="1" as="geometry">
            <mxPoint x="621.5116279069766" y="215" as="sourcePoint" />
            <mxPoint x="780" y="340" as="targetPoint" />
            <Array as="points">
              <mxPoint x="780" y="340" />
              <mxPoint x="780" y="330" />
            </Array>
          </mxGeometry>
        </mxCell>
        <mxCell id="2c7el1293vIFj7M8IKWv-187" style="edgeStyle=none;rounded=0;html=1;dashed=1;labelBackgroundColor=none;startArrow=none;startFill=0;startSize=5;endArrow=oval;endFill=0;endSize=5;jettySize=auto;orthogonalLoop=1;strokeWidth=1;fontFamily=Verdana;fontSize=12;exitX=0.5;exitY=1;exitDx=0;exitDy=0;exitPerimeter=0;" parent="qMKijY36MhwKj8h1XEW6-1" source="2c7el1293vIFj7M8IKWv-186" edge="1">
          <mxGeometry relative="1" as="geometry">
            <mxPoint x="694.9052132701418" y="167" as="sourcePoint" />
            <mxPoint x="480" y="610" as="targetPoint" />
          </mxGeometry>
        </mxCell>
      </root>
    </mxGraphModel>
  </diagram>
  <diagram name="Update" id="gh6A2HyeAhofqZv1ftkq">
    <mxGraphModel dx="1102" dy="525" grid="0" gridSize="10" guides="1" tooltips="1" connect="1" arrows="1" fold="1" page="1" pageScale="1" pageWidth="827" pageHeight="1169" math="0" shadow="0">
      <root>
        <mxCell id="W2hb2oKxfOkggVbydbIJ-0" />
        <mxCell id="W2hb2oKxfOkggVbydbIJ-1" parent="W2hb2oKxfOkggVbydbIJ-0" />
        <mxCell id="W2hb2oKxfOkggVbydbIJ-2" value="Cập nhật dữ liệu" style="swimlane;html=1;childLayout=stackLayout;startSize=20;rounded=0;shadow=0;comic=0;labelBackgroundColor=none;strokeWidth=1;fontFamily=Verdana;fontSize=12;align=center;" parent="W2hb2oKxfOkggVbydbIJ-1" vertex="1">
          <mxGeometry x="51" y="30" width="1230" height="890" as="geometry" />
        </mxCell>
        <mxCell id="W2hb2oKxfOkggVbydbIJ-3" value="Chuyên viên nhân sự" style="swimlane;html=1;startSize=20;" parent="W2hb2oKxfOkggVbydbIJ-2" vertex="1">
          <mxGeometry y="20" width="300" height="870" as="geometry" />
        </mxCell>
        <mxCell id="pjEj2SeWSe87UmPdetPg-3" style="edgeStyle=orthogonalEdgeStyle;rounded=0;orthogonalLoop=1;jettySize=auto;html=1;entryX=0.5;entryY=0;entryDx=0;entryDy=0;labelBackgroundColor=none;labelBorderColor=none;" parent="W2hb2oKxfOkggVbydbIJ-3" source="W2hb2oKxfOkggVbydbIJ-4" target="pjEj2SeWSe87UmPdetPg-0" edge="1">
          <mxGeometry relative="1" as="geometry" />
        </mxCell>
        <mxCell id="W2hb2oKxfOkggVbydbIJ-4" value="" style="ellipse;whiteSpace=wrap;html=1;rounded=0;shadow=0;comic=0;labelBackgroundColor=none;strokeWidth=1;fillColor=#000000;fontFamily=Verdana;fontSize=12;align=center;" parent="W2hb2oKxfOkggVbydbIJ-3" vertex="1">
          <mxGeometry x="100" y="32" width="40" height="40" as="geometry" />
        </mxCell>
        <mxCell id="W2hb2oKxfOkggVbydbIJ-5" style="edgeStyle=orthogonalEdgeStyle;rounded=0;orthogonalLoop=1;jettySize=auto;html=1;entryX=0.5;entryY=0;entryDx=0;entryDy=0;exitX=0.49;exitY=0;exitDx=0;exitDy=0;exitPerimeter=0;" parent="W2hb2oKxfOkggVbydbIJ-3" source="E4rGjSn-3y0rLHcTx1XE-1" target="W2hb2oKxfOkggVbydbIJ-8" edge="1">
          <mxGeometry relative="1" as="geometry">
            <mxPoint x="129" y="160" as="sourcePoint" />
            <Array as="points">
              <mxPoint x="119" y="180" />
              <mxPoint x="220" y="180" />
            </Array>
          </mxGeometry>
        </mxCell>
        <mxCell id="W2hb2oKxfOkggVbydbIJ-8" value="Thêm dữ liệu vân tay" style="rounded=1;whiteSpace=wrap;html=1;shadow=0;comic=0;labelBackgroundColor=none;strokeWidth=1;fontFamily=Verdana;fontSize=12;align=center;arcSize=50;" parent="W2hb2oKxfOkggVbydbIJ-3" vertex="1">
          <mxGeometry x="160" y="215" width="120" height="40" as="geometry" />
        </mxCell>
        <mxCell id="W2hb2oKxfOkggVbydbIJ-9" value="" style="shape=mxgraph.bpmn.shape;html=1;verticalLabelPosition=bottom;labelBackgroundColor=#ffffff;verticalAlign=top;perimeter=ellipsePerimeter;outline=end;symbol=terminate;rounded=0;shadow=0;comic=0;strokeWidth=1;fontFamily=Verdana;fontSize=12;align=center;" parent="W2hb2oKxfOkggVbydbIJ-3" vertex="1">
          <mxGeometry x="71" y="781.5" width="40" height="40" as="geometry" />
        </mxCell>
        <mxCell id="W2hb2oKxfOkggVbydbIJ-10" value="Đồng bộ nhân sự người lao động lên máy&amp;nbsp;" style="rounded=1;whiteSpace=wrap;html=1;shadow=0;comic=0;labelBackgroundColor=none;strokeWidth=1;fontFamily=Verdana;fontSize=12;align=center;arcSize=50;" parent="W2hb2oKxfOkggVbydbIJ-3" vertex="1">
          <mxGeometry x="52" y="544" width="148" height="66" as="geometry" />
        </mxCell>
        <mxCell id="W2hb2oKxfOkggVbydbIJ-11" style="edgeStyle=orthogonalEdgeStyle;rounded=0;orthogonalLoop=1;jettySize=auto;html=1;" parent="W2hb2oKxfOkggVbydbIJ-3" source="W2hb2oKxfOkggVbydbIJ-12" target="W2hb2oKxfOkggVbydbIJ-9" edge="1">
          <mxGeometry relative="1" as="geometry" />
        </mxCell>
        <mxCell id="W2hb2oKxfOkggVbydbIJ-12" value="Trả về thông báo đồng bộ thành công" style="rounded=1;whiteSpace=wrap;html=1;shadow=0;comic=0;labelBackgroundColor=none;strokeWidth=1;fontFamily=Verdana;fontSize=12;align=center;arcSize=50;" parent="W2hb2oKxfOkggVbydbIJ-3" vertex="1">
          <mxGeometry x="24" y="633" width="136" height="57" as="geometry" />
        </mxCell>
        <mxCell id="W2hb2oKxfOkggVbydbIJ-13" style="edgeStyle=orthogonalEdgeStyle;rounded=0;orthogonalLoop=1;jettySize=auto;html=1;" parent="W2hb2oKxfOkggVbydbIJ-3" source="W2hb2oKxfOkggVbydbIJ-14" target="W2hb2oKxfOkggVbydbIJ-10" edge="1">
          <mxGeometry relative="1" as="geometry" />
        </mxCell>
        <mxCell id="W2hb2oKxfOkggVbydbIJ-14" value="Cập nhật vân tay cho người lao động" style="rounded=1;whiteSpace=wrap;html=1;shadow=0;comic=0;labelBackgroundColor=none;strokeWidth=1;fontFamily=Verdana;fontSize=12;align=center;arcSize=50;" parent="W2hb2oKxfOkggVbydbIJ-3" vertex="1">
          <mxGeometry x="139" y="421" width="120" height="53" as="geometry" />
        </mxCell>
        <mxCell id="W2hb2oKxfOkggVbydbIJ-15" style="edgeStyle=orthogonalEdgeStyle;rounded=0;orthogonalLoop=1;jettySize=auto;html=1;entryX=1;entryY=0.5;entryDx=0;entryDy=0;" parent="W2hb2oKxfOkggVbydbIJ-3" source="W2hb2oKxfOkggVbydbIJ-16" target="W2hb2oKxfOkggVbydbIJ-9" edge="1">
          <mxGeometry relative="1" as="geometry" />
        </mxCell>
        <mxCell id="W2hb2oKxfOkggVbydbIJ-16" value="Thông báo lỗi cho chuyên viên" style="rounded=1;whiteSpace=wrap;html=1;shadow=0;comic=0;labelBackgroundColor=none;strokeWidth=1;fontFamily=Verdana;fontSize=12;align=center;arcSize=50;" parent="W2hb2oKxfOkggVbydbIJ-3" vertex="1">
          <mxGeometry x="150" y="773" width="118" height="57" as="geometry" />
        </mxCell>
        <mxCell id="E4rGjSn-3y0rLHcTx1XE-3" style="edgeStyle=orthogonalEdgeStyle;rounded=0;orthogonalLoop=1;jettySize=auto;html=1;labelBackgroundColor=none;labelBorderColor=none;exitX=0.483;exitY=0.333;exitDx=0;exitDy=0;exitPerimeter=0;" parent="W2hb2oKxfOkggVbydbIJ-3" source="E4rGjSn-3y0rLHcTx1XE-1" edge="1">
          <mxGeometry relative="1" as="geometry">
            <mxPoint x="49" y="578" as="targetPoint" />
            <Array as="points">
              <mxPoint x="118" y="180" />
              <mxPoint x="29" y="180" />
              <mxPoint x="29" y="578" />
            </Array>
          </mxGeometry>
        </mxCell>
        <mxCell id="E4rGjSn-3y0rLHcTx1XE-1" value="" style="line;strokeWidth=3;fillColor=none;align=left;verticalAlign=middle;spacingTop=-1;spacingLeft=3;spacingRight=3;rotatable=0;labelPosition=right;points=[];portConstraint=eastwest;" parent="W2hb2oKxfOkggVbydbIJ-3" vertex="1">
          <mxGeometry x="60" y="160" width="130" height="1" as="geometry" />
        </mxCell>
        <mxCell id="pjEj2SeWSe87UmPdetPg-0" value="Cập nhật thông tin người dùng" style="rounded=1;whiteSpace=wrap;html=1;shadow=0;comic=0;labelBackgroundColor=none;strokeWidth=1;fontFamily=Verdana;fontSize=12;align=center;arcSize=50;" parent="W2hb2oKxfOkggVbydbIJ-3" vertex="1">
          <mxGeometry x="56" y="100" width="129" height="40" as="geometry" />
        </mxCell>
        <mxCell id="W2hb2oKxfOkggVbydbIJ-17" value="Người lao động" style="swimlane;html=1;startSize=20;" parent="W2hb2oKxfOkggVbydbIJ-2" vertex="1">
          <mxGeometry x="300" y="20" width="250" height="870" as="geometry" />
        </mxCell>
        <mxCell id="W2hb2oKxfOkggVbydbIJ-18" value="Nhập vân tay trên máy" style="rounded=1;whiteSpace=wrap;html=1;shadow=0;comic=0;labelBackgroundColor=none;strokeWidth=1;fontFamily=Verdana;fontSize=12;align=center;arcSize=50;" parent="W2hb2oKxfOkggVbydbIJ-17" vertex="1">
          <mxGeometry x="60" y="325" width="120" height="40" as="geometry" />
        </mxCell>
        <mxCell id="W2hb2oKxfOkggVbydbIJ-19" value="Đồng bộ dữ liệu nhân sự &lt;br&gt;mới lên máy chấm công" style="shape=note;whiteSpace=wrap;html=1;rounded=0;shadow=0;comic=0;labelBackgroundColor=none;strokeWidth=1;fontFamily=Verdana;fontSize=12;align=center;size=20;" parent="W2hb2oKxfOkggVbydbIJ-17" vertex="1">
          <mxGeometry x="70" y="485" width="167.5" height="50" as="geometry" />
        </mxCell>
        <mxCell id="W2hb2oKxfOkggVbydbIJ-20" value="Hệ thống HRM" style="swimlane;html=1;startSize=20;" parent="W2hb2oKxfOkggVbydbIJ-2" vertex="1">
          <mxGeometry x="550" y="20" width="270" height="870" as="geometry" />
        </mxCell>
        <mxCell id="W2hb2oKxfOkggVbydbIJ-21" value="Gọi API lấy vân tay" style="rounded=1;whiteSpace=wrap;html=1;shadow=0;comic=0;labelBackgroundColor=none;strokeWidth=1;fontFamily=Verdana;fontSize=12;align=center;arcSize=50;" parent="W2hb2oKxfOkggVbydbIJ-20" vertex="1">
          <mxGeometry x="70" y="214" width="120" height="40" as="geometry" />
        </mxCell>
        <mxCell id="W2hb2oKxfOkggVbydbIJ-22" value="Trường hợp lấy vân tay" style="shape=note;whiteSpace=wrap;html=1;rounded=0;shadow=0;comic=0;labelBackgroundColor=none;strokeWidth=1;fontFamily=Verdana;fontSize=12;align=center;size=20;" parent="W2hb2oKxfOkggVbydbIJ-20" vertex="1">
          <mxGeometry x="25" y="62" width="155" height="45" as="geometry" />
        </mxCell>
        <mxCell id="W2hb2oKxfOkggVbydbIJ-24" value="Gọi API đồng bộ dữ liệu" style="rounded=1;whiteSpace=wrap;html=1;shadow=0;comic=0;labelBackgroundColor=none;strokeWidth=1;fontFamily=Verdana;fontSize=12;align=center;arcSize=50;" parent="W2hb2oKxfOkggVbydbIJ-20" vertex="1">
          <mxGeometry x="67" y="552" width="120" height="50" as="geometry" />
        </mxCell>
        <mxCell id="W2hb2oKxfOkggVbydbIJ-25" style="edgeStyle=orthogonalEdgeStyle;rounded=0;orthogonalLoop=1;jettySize=auto;html=1;entryX=0;entryY=0.5;entryDx=0;entryDy=0;" parent="W2hb2oKxfOkggVbydbIJ-2" source="W2hb2oKxfOkggVbydbIJ-8" target="W2hb2oKxfOkggVbydbIJ-21" edge="1">
          <mxGeometry relative="1" as="geometry" />
        </mxCell>
        <mxCell id="W2hb2oKxfOkggVbydbIJ-26" style="edgeStyle=orthogonalEdgeStyle;rounded=0;orthogonalLoop=1;jettySize=auto;html=1;entryX=0;entryY=0.5;entryDx=0;entryDy=0;" parent="W2hb2oKxfOkggVbydbIJ-2" source="W2hb2oKxfOkggVbydbIJ-21" target="W2hb2oKxfOkggVbydbIJ-34" edge="1">
          <mxGeometry relative="1" as="geometry" />
        </mxCell>
        <mxCell id="W2hb2oKxfOkggVbydbIJ-27" style="edgeStyle=orthogonalEdgeStyle;rounded=0;orthogonalLoop=1;jettySize=auto;html=1;entryX=0.5;entryY=0;entryDx=0;entryDy=0;" parent="W2hb2oKxfOkggVbydbIJ-2" source="W2hb2oKxfOkggVbydbIJ-35" target="W2hb2oKxfOkggVbydbIJ-18" edge="1">
          <mxGeometry relative="1" as="geometry">
            <mxPoint x="480" y="365" as="targetPoint" />
          </mxGeometry>
        </mxCell>
        <mxCell id="W2hb2oKxfOkggVbydbIJ-28" style="edgeStyle=orthogonalEdgeStyle;rounded=0;orthogonalLoop=1;jettySize=auto;html=1;" parent="W2hb2oKxfOkggVbydbIJ-2" source="W2hb2oKxfOkggVbydbIJ-40" target="W2hb2oKxfOkggVbydbIJ-14" edge="1">
          <mxGeometry relative="1" as="geometry">
            <mxPoint x="190" y="467" as="targetPoint" />
          </mxGeometry>
        </mxCell>
        <mxCell id="W2hb2oKxfOkggVbydbIJ-29" style="edgeStyle=orthogonalEdgeStyle;rounded=0;orthogonalLoop=1;jettySize=auto;html=1;exitX=1;exitY=0.5;exitDx=0;exitDy=0;" parent="W2hb2oKxfOkggVbydbIJ-2" source="W2hb2oKxfOkggVbydbIJ-40" edge="1">
          <mxGeometry relative="1" as="geometry">
            <mxPoint x="268" y="821" as="targetPoint" />
            <Array as="points">
              <mxPoint x="1140" y="467" />
              <mxPoint x="1140" y="821" />
              <mxPoint x="268" y="821" />
            </Array>
          </mxGeometry>
        </mxCell>
        <mxCell id="W2hb2oKxfOkggVbydbIJ-30" style="edgeStyle=orthogonalEdgeStyle;rounded=0;orthogonalLoop=1;jettySize=auto;html=1;entryX=0;entryY=0.5;entryDx=0;entryDy=0;" parent="W2hb2oKxfOkggVbydbIJ-2" source="W2hb2oKxfOkggVbydbIJ-10" target="W2hb2oKxfOkggVbydbIJ-24" edge="1">
          <mxGeometry relative="1" as="geometry" />
        </mxCell>
        <mxCell id="W2hb2oKxfOkggVbydbIJ-31" style="edgeStyle=orthogonalEdgeStyle;rounded=0;orthogonalLoop=1;jettySize=auto;html=1;" parent="W2hb2oKxfOkggVbydbIJ-2" source="W2hb2oKxfOkggVbydbIJ-24" target="W2hb2oKxfOkggVbydbIJ-42" edge="1">
          <mxGeometry relative="1" as="geometry" />
        </mxCell>
        <mxCell id="W2hb2oKxfOkggVbydbIJ-32" value="Máy chấm công" style="swimlane;html=1;startSize=20;" parent="W2hb2oKxfOkggVbydbIJ-2" vertex="1">
          <mxGeometry x="820" y="20" width="380" height="870" as="geometry" />
        </mxCell>
        <mxCell id="W2hb2oKxfOkggVbydbIJ-33" style="edgeStyle=orthogonalEdgeStyle;rounded=0;orthogonalLoop=1;jettySize=auto;html=1;" parent="W2hb2oKxfOkggVbydbIJ-32" source="W2hb2oKxfOkggVbydbIJ-34" target="W2hb2oKxfOkggVbydbIJ-35" edge="1">
          <mxGeometry relative="1" as="geometry" />
        </mxCell>
        <mxCell id="W2hb2oKxfOkggVbydbIJ-34" value="Check thông tin" style="rounded=1;whiteSpace=wrap;html=1;shadow=0;comic=0;labelBackgroundColor=none;strokeWidth=1;fontFamily=Verdana;fontSize=12;align=center;arcSize=50;" parent="W2hb2oKxfOkggVbydbIJ-32" vertex="1">
          <mxGeometry x="93" y="213" width="120" height="40" as="geometry" />
        </mxCell>
        <mxCell id="W2hb2oKxfOkggVbydbIJ-35" value="" style="rhombus;whiteSpace=wrap;html=1;" parent="W2hb2oKxfOkggVbydbIJ-32" vertex="1">
          <mxGeometry x="123" y="280" width="60" height="50" as="geometry" />
        </mxCell>
        <mxCell id="W2hb2oKxfOkggVbydbIJ-36" value="[Thông tin chính xác]" style="text;html=1;strokeColor=none;fillColor=none;align=center;verticalAlign=middle;whiteSpace=wrap;rounded=0;" parent="W2hb2oKxfOkggVbydbIJ-32" vertex="1">
          <mxGeometry x="9.5" y="270" width="106" height="30" as="geometry" />
        </mxCell>
        <mxCell id="W2hb2oKxfOkggVbydbIJ-37" value="[Thông tin không chính xác]" style="text;html=1;strokeColor=none;fillColor=none;align=center;verticalAlign=middle;whiteSpace=wrap;rounded=0;" parent="W2hb2oKxfOkggVbydbIJ-32" vertex="1">
          <mxGeometry x="209" y="270" width="154" height="40" as="geometry" />
        </mxCell>
        <mxCell id="W2hb2oKxfOkggVbydbIJ-38" style="edgeStyle=orthogonalEdgeStyle;rounded=0;orthogonalLoop=1;jettySize=auto;html=1;" parent="W2hb2oKxfOkggVbydbIJ-32" source="W2hb2oKxfOkggVbydbIJ-39" target="W2hb2oKxfOkggVbydbIJ-40" edge="1">
          <mxGeometry relative="1" as="geometry" />
        </mxCell>
        <mxCell id="W2hb2oKxfOkggVbydbIJ-39" value="Check dữ liệu vân tay" style="rounded=1;whiteSpace=wrap;html=1;shadow=0;comic=0;labelBackgroundColor=none;strokeWidth=1;fontFamily=Verdana;fontSize=12;align=center;arcSize=50;" parent="W2hb2oKxfOkggVbydbIJ-32" vertex="1">
          <mxGeometry x="96" y="356" width="120" height="40" as="geometry" />
        </mxCell>
        <mxCell id="W2hb2oKxfOkggVbydbIJ-40" value="" style="rhombus;whiteSpace=wrap;html=1;" parent="W2hb2oKxfOkggVbydbIJ-32" vertex="1">
          <mxGeometry x="126" y="422" width="60" height="50" as="geometry" />
        </mxCell>
        <mxCell id="W2hb2oKxfOkggVbydbIJ-41" style="edgeStyle=orthogonalEdgeStyle;rounded=0;orthogonalLoop=1;jettySize=auto;html=1;" parent="W2hb2oKxfOkggVbydbIJ-32" source="W2hb2oKxfOkggVbydbIJ-42" target="W2hb2oKxfOkggVbydbIJ-45" edge="1">
          <mxGeometry relative="1" as="geometry" />
        </mxCell>
        <mxCell id="W2hb2oKxfOkggVbydbIJ-42" value="Check dữ liệu đồng bộ" style="rounded=1;whiteSpace=wrap;html=1;shadow=0;comic=0;labelBackgroundColor=none;strokeWidth=1;fontFamily=Verdana;fontSize=12;align=center;arcSize=50;" parent="W2hb2oKxfOkggVbydbIJ-32" vertex="1">
          <mxGeometry x="101" y="556" width="120" height="40" as="geometry" />
        </mxCell>
        <mxCell id="W2hb2oKxfOkggVbydbIJ-43" value="[Vân tay chính xác]" style="text;html=1;strokeColor=none;fillColor=none;align=center;verticalAlign=middle;whiteSpace=wrap;rounded=0;" parent="W2hb2oKxfOkggVbydbIJ-32" vertex="1">
          <mxGeometry x="15" y="420" width="110" height="30" as="geometry" />
        </mxCell>
        <mxCell id="W2hb2oKxfOkggVbydbIJ-44" value="[Vân tay&amp;nbsp; không chính xác]" style="text;html=1;strokeColor=none;fillColor=none;align=center;verticalAlign=middle;whiteSpace=wrap;rounded=0;" parent="W2hb2oKxfOkggVbydbIJ-32" vertex="1">
          <mxGeometry x="186" y="420" width="147" height="30" as="geometry" />
        </mxCell>
        <mxCell id="W2hb2oKxfOkggVbydbIJ-45" value="" style="rhombus;whiteSpace=wrap;html=1;" parent="W2hb2oKxfOkggVbydbIJ-32" vertex="1">
          <mxGeometry x="131" y="636" width="60" height="50" as="geometry" />
        </mxCell>
        <mxCell id="W2hb2oKxfOkggVbydbIJ-46" value="[Đồng bộ thành công]" style="text;html=1;strokeColor=none;fillColor=none;align=center;verticalAlign=middle;whiteSpace=wrap;rounded=0;" parent="W2hb2oKxfOkggVbydbIJ-32" vertex="1">
          <mxGeometry y="630" width="125" height="30" as="geometry" />
        </mxCell>
        <mxCell id="W2hb2oKxfOkggVbydbIJ-47" value="[Đồng bộ không thành công]" style="text;html=1;strokeColor=none;fillColor=none;align=center;verticalAlign=middle;whiteSpace=wrap;rounded=0;" parent="W2hb2oKxfOkggVbydbIJ-32" vertex="1">
          <mxGeometry x="170" y="630" width="138" height="30" as="geometry" />
        </mxCell>
        <mxCell id="W2hb2oKxfOkggVbydbIJ-23" value="Trên máy chấm công mở ra giao diện cho người lao động lấy vân tay" style="shape=note;whiteSpace=wrap;html=1;rounded=0;shadow=0;comic=0;labelBackgroundColor=none;strokeWidth=1;fontFamily=Verdana;fontSize=12;align=center;size=20;" parent="W2hb2oKxfOkggVbydbIJ-32" vertex="1">
          <mxGeometry x="35.5" y="80" width="235" height="50" as="geometry" />
        </mxCell>
        <mxCell id="W2hb2oKxfOkggVbydbIJ-48" style="edgeStyle=orthogonalEdgeStyle;rounded=0;orthogonalLoop=1;jettySize=auto;html=1;exitX=0;exitY=0.5;exitDx=0;exitDy=0;entryX=1;entryY=0.5;entryDx=0;entryDy=0;" parent="W2hb2oKxfOkggVbydbIJ-2" source="W2hb2oKxfOkggVbydbIJ-45" target="W2hb2oKxfOkggVbydbIJ-12" edge="1">
          <mxGeometry relative="1" as="geometry">
            <mxPoint x="956" y="702" as="sourcePoint" />
            <mxPoint x="240" y="702" as="targetPoint" />
          </mxGeometry>
        </mxCell>
        <mxCell id="W2hb2oKxfOkggVbydbIJ-49" style="edgeStyle=orthogonalEdgeStyle;rounded=0;orthogonalLoop=1;jettySize=auto;html=1;entryX=0;entryY=0.5;entryDx=0;entryDy=0;" parent="W2hb2oKxfOkggVbydbIJ-2" source="W2hb2oKxfOkggVbydbIJ-18" target="W2hb2oKxfOkggVbydbIJ-39" edge="1">
          <mxGeometry relative="1" as="geometry">
            <Array as="points">
              <mxPoint x="420" y="396" />
            </Array>
          </mxGeometry>
        </mxCell>
        <mxCell id="W2hb2oKxfOkggVbydbIJ-50" style="edgeStyle=orthogonalEdgeStyle;rounded=0;orthogonalLoop=1;jettySize=auto;html=1;entryX=1;entryY=0.5;entryDx=0;entryDy=0;exitX=1;exitY=0.5;exitDx=0;exitDy=0;" parent="W2hb2oKxfOkggVbydbIJ-2" source="W2hb2oKxfOkggVbydbIJ-45" target="W2hb2oKxfOkggVbydbIJ-16" edge="1">
          <mxGeometry relative="1" as="geometry">
            <mxPoint x="1011" y="680" as="sourcePoint" />
            <mxPoint x="268" y="839.5000000000002" as="targetPoint" />
            <Array as="points">
              <mxPoint x="1110" y="681" />
              <mxPoint x="1110" y="821" />
            </Array>
          </mxGeometry>
        </mxCell>
        <mxCell id="W2hb2oKxfOkggVbydbIJ-51" style="edgeStyle=orthogonalEdgeStyle;rounded=0;orthogonalLoop=1;jettySize=auto;html=1;entryX=1;entryY=0.5;entryDx=0;entryDy=0;exitX=1;exitY=0.5;exitDx=0;exitDy=0;" parent="W2hb2oKxfOkggVbydbIJ-2" source="W2hb2oKxfOkggVbydbIJ-35" target="W2hb2oKxfOkggVbydbIJ-16" edge="1">
          <mxGeometry relative="1" as="geometry">
            <Array as="points">
              <mxPoint x="1180" y="325" />
              <mxPoint x="1180" y="822" />
            </Array>
          </mxGeometry>
        </mxCell>
        <mxCell id="W2hb2oKxfOkggVbydbIJ-52" style="edgeStyle=none;rounded=0;html=1;dashed=1;labelBackgroundColor=none;startArrow=none;startFill=0;startSize=5;endArrow=oval;endFill=0;endSize=5;jettySize=auto;orthogonalLoop=1;strokeWidth=1;fontFamily=Verdana;fontSize=12" parent="W2hb2oKxfOkggVbydbIJ-1" source="W2hb2oKxfOkggVbydbIJ-22" edge="1">
          <mxGeometry relative="1" as="geometry">
            <mxPoint x="466.9642857142858" y="700" as="sourcePoint" />
            <mxPoint x="620" y="280" as="targetPoint" />
          </mxGeometry>
        </mxCell>
        <mxCell id="W2hb2oKxfOkggVbydbIJ-54" style="edgeStyle=none;rounded=0;html=1;dashed=1;labelBackgroundColor=none;startArrow=none;startFill=0;startSize=5;endArrow=oval;endFill=0;endSize=5;jettySize=auto;orthogonalLoop=1;strokeWidth=1;fontFamily=Verdana;fontSize=12;exitX=0.5;exitY=1;exitDx=0;exitDy=0;exitPerimeter=0;" parent="W2hb2oKxfOkggVbydbIJ-1" source="W2hb2oKxfOkggVbydbIJ-19" edge="1">
          <mxGeometry relative="1" as="geometry">
            <mxPoint x="694.9052132701418" y="167" as="sourcePoint" />
            <mxPoint x="470" y="630" as="targetPoint" />
          </mxGeometry>
        </mxCell>
        <mxCell id="pjEj2SeWSe87UmPdetPg-1" style="edgeStyle=none;rounded=0;html=1;dashed=1;labelBackgroundColor=none;startArrow=none;startFill=0;startSize=5;endArrow=oval;endFill=0;endSize=5;jettySize=auto;orthogonalLoop=1;strokeWidth=1;fontFamily=Verdana;fontSize=12" parent="W2hb2oKxfOkggVbydbIJ-1" source="W2hb2oKxfOkggVbydbIJ-23" edge="1">
          <mxGeometry relative="1" as="geometry">
            <mxPoint x="695.6919431279621" y="167" as="sourcePoint" />
            <mxPoint x="730" y="360" as="targetPoint" />
          </mxGeometry>
        </mxCell>
        <mxCell id="pjEj2SeWSe87UmPdetPg-2" style="edgeStyle=orthogonalEdgeStyle;rounded=0;orthogonalLoop=1;jettySize=auto;html=1;labelBackgroundColor=none;labelBorderColor=none;" parent="W2hb2oKxfOkggVbydbIJ-1" source="pjEj2SeWSe87UmPdetPg-0" edge="1">
          <mxGeometry relative="1" as="geometry">
            <mxPoint x="170" y="210" as="targetPoint" />
            <Array as="points">
              <mxPoint x="170" y="210" />
              <mxPoint x="170" y="210" />
            </Array>
          </mxGeometry>
        </mxCell>
      </root>
    </mxGraphModel>
  </diagram>
  <diagram name="Lock_Delete" id="RudOUPY9SdQ-jMCBcq4N">
    <mxGraphModel dx="1102" dy="582" grid="0" gridSize="10" guides="1" tooltips="1" connect="1" arrows="1" fold="1" page="1" pageScale="1" pageWidth="827" pageHeight="1169" math="0" shadow="0">
      <root>
        <mxCell id="rJZY0LovurJlKtYjlme2-0" />
        <mxCell id="rJZY0LovurJlKtYjlme2-1" parent="rJZY0LovurJlKtYjlme2-0" />
        <mxCell id="l6IGnri9rVGxXlMMxWXZ-0" value="Khóa, xóa nhân sự trên máy chấm công" style="swimlane;html=1;childLayout=stackLayout;startSize=20;rounded=0;shadow=0;comic=0;labelBackgroundColor=none;strokeWidth=1;fontFamily=Verdana;fontSize=12;align=center;" parent="rJZY0LovurJlKtYjlme2-1" vertex="1">
          <mxGeometry x="51" y="30" width="824" height="470" as="geometry" />
        </mxCell>
        <mxCell id="l6IGnri9rVGxXlMMxWXZ-10" style="edgeStyle=orthogonalEdgeStyle;rounded=0;orthogonalLoop=1;jettySize=auto;html=1;entryX=0;entryY=0.5;entryDx=0;entryDy=0;exitX=1;exitY=0.5;exitDx=0;exitDy=0;" parent="l6IGnri9rVGxXlMMxWXZ-0" source="l6IGnri9rVGxXlMMxWXZ-9" target="l6IGnri9rVGxXlMMxWXZ-15" edge="1">
          <mxGeometry relative="1" as="geometry">
            <mxPoint x="280" y="255" as="sourcePoint" />
          </mxGeometry>
        </mxCell>
        <mxCell id="l6IGnri9rVGxXlMMxWXZ-11" style="edgeStyle=orthogonalEdgeStyle;rounded=0;orthogonalLoop=1;jettySize=auto;html=1;entryX=0;entryY=0.5;entryDx=0;entryDy=0;" parent="l6IGnri9rVGxXlMMxWXZ-0" source="l6IGnri9rVGxXlMMxWXZ-15" target="l6IGnri9rVGxXlMMxWXZ-21" edge="1">
          <mxGeometry relative="1" as="geometry" />
        </mxCell>
        <mxCell id="l6IGnri9rVGxXlMMxWXZ-12" style="edgeStyle=orthogonalEdgeStyle;rounded=0;orthogonalLoop=1;jettySize=auto;html=1;" parent="l6IGnri9rVGxXlMMxWXZ-0" source="l6IGnri9rVGxXlMMxWXZ-24" target="l6IGnri9rVGxXlMMxWXZ-6" edge="1">
          <mxGeometry relative="1" as="geometry">
            <mxPoint x="463" y="325.52941176470586" as="targetPoint" />
          </mxGeometry>
        </mxCell>
        <mxCell id="l6IGnri9rVGxXlMMxWXZ-13" style="edgeStyle=orthogonalEdgeStyle;rounded=0;orthogonalLoop=1;jettySize=auto;html=1;entryX=1;entryY=0.5;entryDx=0;entryDy=0;exitX=1;exitY=0.5;exitDx=0;exitDy=0;" parent="l6IGnri9rVGxXlMMxWXZ-0" source="l6IGnri9rVGxXlMMxWXZ-24" target="l6IGnri9rVGxXlMMxWXZ-8" edge="1">
          <mxGeometry relative="1" as="geometry">
            <Array as="points">
              <mxPoint x="792" y="325" />
              <mxPoint x="792" y="416" />
            </Array>
            <mxPoint x="753" y="325" as="sourcePoint" />
          </mxGeometry>
        </mxCell>
        <mxCell id="l6IGnri9rVGxXlMMxWXZ-1" value="Chuyên viên nhân sự" style="swimlane;html=1;startSize=20;" parent="l6IGnri9rVGxXlMMxWXZ-0" vertex="1">
          <mxGeometry y="20" width="300" height="450" as="geometry" />
        </mxCell>
        <mxCell id="l6IGnri9rVGxXlMMxWXZ-2" style="edgeStyle=orthogonalEdgeStyle;rounded=0;orthogonalLoop=1;jettySize=auto;html=1;entryX=0.5;entryY=0;entryDx=0;entryDy=0;labelBackgroundColor=none;labelBorderColor=none;" parent="l6IGnri9rVGxXlMMxWXZ-1" source="l6IGnri9rVGxXlMMxWXZ-3" target="l6IGnri9rVGxXlMMxWXZ-9" edge="1">
          <mxGeometry relative="1" as="geometry" />
        </mxCell>
        <mxCell id="l6IGnri9rVGxXlMMxWXZ-3" value="" style="ellipse;whiteSpace=wrap;html=1;rounded=0;shadow=0;comic=0;labelBackgroundColor=none;strokeWidth=1;fillColor=#000000;fontFamily=Verdana;fontSize=12;align=center;" parent="l6IGnri9rVGxXlMMxWXZ-1" vertex="1">
          <mxGeometry x="100" y="32" width="40" height="40" as="geometry" />
        </mxCell>
        <mxCell id="l6IGnri9rVGxXlMMxWXZ-4" value="" style="shape=mxgraph.bpmn.shape;html=1;verticalLabelPosition=bottom;labelBackgroundColor=#ffffff;verticalAlign=top;perimeter=ellipsePerimeter;outline=end;symbol=terminate;rounded=0;shadow=0;comic=0;strokeWidth=1;fontFamily=Verdana;fontSize=12;align=center;" parent="l6IGnri9rVGxXlMMxWXZ-1" vertex="1">
          <mxGeometry x="68" y="375.5" width="40" height="40" as="geometry" />
        </mxCell>
        <mxCell id="l6IGnri9rVGxXlMMxWXZ-5" style="edgeStyle=orthogonalEdgeStyle;rounded=0;orthogonalLoop=1;jettySize=auto;html=1;" parent="l6IGnri9rVGxXlMMxWXZ-1" source="l6IGnri9rVGxXlMMxWXZ-6" target="l6IGnri9rVGxXlMMxWXZ-4" edge="1">
          <mxGeometry relative="1" as="geometry" />
        </mxCell>
        <mxCell id="l6IGnri9rVGxXlMMxWXZ-6" value="Thông báo lấy dữ liệu thành công" style="rounded=1;whiteSpace=wrap;html=1;shadow=0;comic=0;labelBackgroundColor=none;strokeWidth=1;fontFamily=Verdana;fontSize=12;align=center;arcSize=50;" parent="l6IGnri9rVGxXlMMxWXZ-1" vertex="1">
          <mxGeometry x="20" y="277" width="136" height="57" as="geometry" />
        </mxCell>
        <mxCell id="l6IGnri9rVGxXlMMxWXZ-7" style="edgeStyle=orthogonalEdgeStyle;rounded=0;orthogonalLoop=1;jettySize=auto;html=1;entryX=1;entryY=0.5;entryDx=0;entryDy=0;" parent="l6IGnri9rVGxXlMMxWXZ-1" source="l6IGnri9rVGxXlMMxWXZ-8" target="l6IGnri9rVGxXlMMxWXZ-4" edge="1">
          <mxGeometry relative="1" as="geometry" />
        </mxCell>
        <mxCell id="l6IGnri9rVGxXlMMxWXZ-8" value="Thông báo lỗi cho chuyên viên" style="rounded=1;whiteSpace=wrap;html=1;shadow=0;comic=0;labelBackgroundColor=none;strokeWidth=1;fontFamily=Verdana;fontSize=12;align=center;arcSize=50;" parent="l6IGnri9rVGxXlMMxWXZ-1" vertex="1">
          <mxGeometry x="165" y="367" width="118" height="57" as="geometry" />
        </mxCell>
        <mxCell id="l6IGnri9rVGxXlMMxWXZ-9" value="Chọn nhân sự, chọn khóa" style="rounded=1;whiteSpace=wrap;html=1;shadow=0;comic=0;labelBackgroundColor=none;strokeWidth=1;fontFamily=Verdana;fontSize=12;align=center;arcSize=50;" parent="l6IGnri9rVGxXlMMxWXZ-1" vertex="1">
          <mxGeometry x="53" y="140" width="134" height="50" as="geometry" />
        </mxCell>
        <mxCell id="l6IGnri9rVGxXlMMxWXZ-14" value="Hệ thống HRM" style="swimlane;html=1;startSize=20;" parent="l6IGnri9rVGxXlMMxWXZ-0" vertex="1">
          <mxGeometry x="300" y="20" width="270" height="450" as="geometry" />
        </mxCell>
        <mxCell id="l6IGnri9rVGxXlMMxWXZ-15" value="Gọi API xóa nhân sự" style="rounded=1;whiteSpace=wrap;html=1;shadow=0;comic=0;labelBackgroundColor=none;strokeWidth=1;fontFamily=Verdana;fontSize=12;align=center;arcSize=50;" parent="l6IGnri9rVGxXlMMxWXZ-14" vertex="1">
          <mxGeometry x="67" y="145" width="120" height="40" as="geometry" />
        </mxCell>
        <mxCell id="l6IGnri9rVGxXlMMxWXZ-16" value="Gọi api lấy dữ liệu chấm công" style="shape=note;whiteSpace=wrap;html=1;rounded=0;shadow=0;comic=0;labelBackgroundColor=none;strokeWidth=1;fontFamily=Verdana;fontSize=12;align=center;size=20;" parent="l6IGnri9rVGxXlMMxWXZ-14" vertex="1">
          <mxGeometry x="25" y="62" width="185" height="45" as="geometry" />
        </mxCell>
        <mxCell id="l6IGnri9rVGxXlMMxWXZ-20" value="Máy chấm công" style="swimlane;html=1;startSize=20;" parent="l6IGnri9rVGxXlMMxWXZ-0" vertex="1">
          <mxGeometry x="570" y="20" width="254" height="450" as="geometry" />
        </mxCell>
        <mxCell id="l6IGnri9rVGxXlMMxWXZ-21" value="Check user xóa" style="rounded=1;whiteSpace=wrap;html=1;shadow=0;comic=0;labelBackgroundColor=none;strokeWidth=1;fontFamily=Verdana;fontSize=12;align=center;arcSize=50;" parent="l6IGnri9rVGxXlMMxWXZ-20" vertex="1">
          <mxGeometry x="67" y="145" width="120" height="40" as="geometry" />
        </mxCell>
        <mxCell id="l6IGnri9rVGxXlMMxWXZ-22" value="[Xóa lỗi]" style="text;html=1;strokeColor=none;fillColor=none;align=center;verticalAlign=middle;whiteSpace=wrap;rounded=0;" parent="l6IGnri9rVGxXlMMxWXZ-20" vertex="1">
          <mxGeometry x="132" y="265" width="130" height="40" as="geometry" />
        </mxCell>
        <mxCell id="l6IGnri9rVGxXlMMxWXZ-23" style="edgeStyle=orthogonalEdgeStyle;rounded=0;orthogonalLoop=1;jettySize=auto;html=1;" parent="l6IGnri9rVGxXlMMxWXZ-20" source="l6IGnri9rVGxXlMMxWXZ-21" target="l6IGnri9rVGxXlMMxWXZ-24" edge="1">
          <mxGeometry relative="1" as="geometry">
            <mxPoint x="156" y="396" as="sourcePoint" />
          </mxGeometry>
        </mxCell>
        <mxCell id="l6IGnri9rVGxXlMMxWXZ-24" value="" style="rhombus;whiteSpace=wrap;html=1;" parent="l6IGnri9rVGxXlMMxWXZ-20" vertex="1">
          <mxGeometry x="97" y="280" width="60" height="50" as="geometry" />
        </mxCell>
        <mxCell id="l6IGnri9rVGxXlMMxWXZ-25" value="[Xóa thành công]" style="text;html=1;strokeColor=none;fillColor=none;align=center;verticalAlign=middle;whiteSpace=wrap;rounded=0;" parent="l6IGnri9rVGxXlMMxWXZ-20" vertex="1">
          <mxGeometry x="7.5" y="270" width="110" height="30" as="geometry" />
        </mxCell>
        <mxCell id="l6IGnri9rVGxXlMMxWXZ-27" style="edgeStyle=none;rounded=0;html=1;dashed=1;labelBackgroundColor=none;startArrow=none;startFill=0;startSize=5;endArrow=oval;endFill=0;endSize=5;jettySize=auto;orthogonalLoop=1;strokeWidth=1;fontFamily=Verdana;fontSize=12" parent="rJZY0LovurJlKtYjlme2-1" source="l6IGnri9rVGxXlMMxWXZ-16" edge="1">
          <mxGeometry relative="1" as="geometry">
            <mxPoint x="466.9642857142858" y="700" as="sourcePoint" />
            <mxPoint x="390" y="210" as="targetPoint" />
          </mxGeometry>
        </mxCell>
      </root>
    </mxGraphModel>
  </diagram>
  <diagram name="GetData" id="0783ab3e-0a74-02c8-0abd-f7b4e66b4bec">
    <mxGraphModel dx="1102" dy="582" grid="0" gridSize="10" guides="1" tooltips="1" connect="1" arrows="1" fold="1" page="1" pageScale="1" pageWidth="850" pageHeight="1100" background="none" math="0" shadow="0">
      <root>
        <mxCell id="0" />
        <mxCell id="1" parent="0" />
        <mxCell id="3xvCicC7-UhYXoGxNOdK-1" value="Lấy dữ liệu chấm công vào ra" style="swimlane;html=1;childLayout=stackLayout;startSize=20;rounded=0;shadow=0;comic=0;labelBackgroundColor=none;strokeWidth=1;fontFamily=Verdana;fontSize=12;align=center;" parent="1" vertex="1">
          <mxGeometry x="51" y="30" width="870" height="890" as="geometry" />
        </mxCell>
        <mxCell id="3xvCicC7-UhYXoGxNOdK-2" value="Chuyên viên nhân sự" style="swimlane;html=1;startSize=20;" parent="3xvCicC7-UhYXoGxNOdK-1" vertex="1">
          <mxGeometry y="20" width="300" height="870" as="geometry" />
        </mxCell>
        <mxCell id="3xvCicC7-UhYXoGxNOdK-3" style="edgeStyle=orthogonalEdgeStyle;rounded=0;orthogonalLoop=1;jettySize=auto;html=1;entryX=0.5;entryY=0;entryDx=0;entryDy=0;labelBackgroundColor=none;labelBorderColor=none;" parent="3xvCicC7-UhYXoGxNOdK-2" source="3xvCicC7-UhYXoGxNOdK-4" target="3xvCicC7-UhYXoGxNOdK-17" edge="1">
          <mxGeometry relative="1" as="geometry" />
        </mxCell>
        <mxCell id="3xvCicC7-UhYXoGxNOdK-4" value="" style="ellipse;whiteSpace=wrap;html=1;rounded=0;shadow=0;comic=0;labelBackgroundColor=none;strokeWidth=1;fillColor=#000000;fontFamily=Verdana;fontSize=12;align=center;" parent="3xvCicC7-UhYXoGxNOdK-2" vertex="1">
          <mxGeometry x="100" y="32" width="40" height="40" as="geometry" />
        </mxCell>
        <mxCell id="3xvCicC7-UhYXoGxNOdK-7" value="" style="shape=mxgraph.bpmn.shape;html=1;verticalLabelPosition=bottom;labelBackgroundColor=#ffffff;verticalAlign=top;perimeter=ellipsePerimeter;outline=end;symbol=terminate;rounded=0;shadow=0;comic=0;strokeWidth=1;fontFamily=Verdana;fontSize=12;align=center;" parent="3xvCicC7-UhYXoGxNOdK-2" vertex="1">
          <mxGeometry x="71" y="781.5" width="40" height="40" as="geometry" />
        </mxCell>
        <mxCell id="3xvCicC7-UhYXoGxNOdK-9" style="edgeStyle=orthogonalEdgeStyle;rounded=0;orthogonalLoop=1;jettySize=auto;html=1;" parent="3xvCicC7-UhYXoGxNOdK-2" source="3xvCicC7-UhYXoGxNOdK-10" target="3xvCicC7-UhYXoGxNOdK-7" edge="1">
          <mxGeometry relative="1" as="geometry" />
        </mxCell>
        <mxCell id="3xvCicC7-UhYXoGxNOdK-10" value="Thông báo lấy dữ liệu thành công" style="rounded=1;whiteSpace=wrap;html=1;shadow=0;comic=0;labelBackgroundColor=none;strokeWidth=1;fontFamily=Verdana;fontSize=12;align=center;arcSize=50;" parent="3xvCicC7-UhYXoGxNOdK-2" vertex="1">
          <mxGeometry x="23" y="415" width="136" height="57" as="geometry" />
        </mxCell>
        <mxCell id="3xvCicC7-UhYXoGxNOdK-13" style="edgeStyle=orthogonalEdgeStyle;rounded=0;orthogonalLoop=1;jettySize=auto;html=1;entryX=1;entryY=0.5;entryDx=0;entryDy=0;" parent="3xvCicC7-UhYXoGxNOdK-2" source="3xvCicC7-UhYXoGxNOdK-14" target="3xvCicC7-UhYXoGxNOdK-7" edge="1">
          <mxGeometry relative="1" as="geometry" />
        </mxCell>
        <mxCell id="3xvCicC7-UhYXoGxNOdK-14" value="Thông báo lỗi cho chuyên viên" style="rounded=1;whiteSpace=wrap;html=1;shadow=0;comic=0;labelBackgroundColor=none;strokeWidth=1;fontFamily=Verdana;fontSize=12;align=center;arcSize=50;" parent="3xvCicC7-UhYXoGxNOdK-2" vertex="1">
          <mxGeometry x="150" y="773" width="118" height="57" as="geometry" />
        </mxCell>
        <mxCell id="3xvCicC7-UhYXoGxNOdK-17" value="Lấy dữ liệu chấm công vào ra theo khoảng thời gian" style="rounded=1;whiteSpace=wrap;html=1;shadow=0;comic=0;labelBackgroundColor=none;strokeWidth=1;fontFamily=Verdana;fontSize=12;align=center;arcSize=50;" parent="3xvCicC7-UhYXoGxNOdK-2" vertex="1">
          <mxGeometry x="53" y="140" width="134" height="50" as="geometry" />
        </mxCell>
        <mxCell id="3xvCicC7-UhYXoGxNOdK-25" style="edgeStyle=orthogonalEdgeStyle;rounded=0;orthogonalLoop=1;jettySize=auto;html=1;entryX=0;entryY=0.5;entryDx=0;entryDy=0;exitX=1;exitY=0.5;exitDx=0;exitDy=0;" parent="3xvCicC7-UhYXoGxNOdK-1" source="3xvCicC7-UhYXoGxNOdK-17" target="3xvCicC7-UhYXoGxNOdK-22" edge="1">
          <mxGeometry relative="1" as="geometry">
            <mxPoint x="280" y="255" as="sourcePoint" />
          </mxGeometry>
        </mxCell>
        <mxCell id="3xvCicC7-UhYXoGxNOdK-26" style="edgeStyle=orthogonalEdgeStyle;rounded=0;orthogonalLoop=1;jettySize=auto;html=1;entryX=0;entryY=0.5;entryDx=0;entryDy=0;" parent="3xvCicC7-UhYXoGxNOdK-1" source="3xvCicC7-UhYXoGxNOdK-22" target="3xvCicC7-UhYXoGxNOdK-34" edge="1">
          <mxGeometry relative="1" as="geometry" />
        </mxCell>
        <mxCell id="3xvCicC7-UhYXoGxNOdK-28" style="edgeStyle=orthogonalEdgeStyle;rounded=0;orthogonalLoop=1;jettySize=auto;html=1;" parent="3xvCicC7-UhYXoGxNOdK-1" source="3xvCicC7-UhYXoGxNOdK-40" target="3xvCicC7-UhYXoGxNOdK-12" edge="1">
          <mxGeometry relative="1" as="geometry">
            <mxPoint x="190" y="467" as="targetPoint" />
          </mxGeometry>
        </mxCell>
        <mxCell id="3xvCicC7-UhYXoGxNOdK-52" style="edgeStyle=orthogonalEdgeStyle;rounded=0;orthogonalLoop=1;jettySize=auto;html=1;entryX=1;entryY=0.5;entryDx=0;entryDy=0;exitX=1;exitY=0.5;exitDx=0;exitDy=0;" parent="3xvCicC7-UhYXoGxNOdK-1" source="3xvCicC7-UhYXoGxNOdK-40" target="3xvCicC7-UhYXoGxNOdK-14" edge="1">
          <mxGeometry relative="1" as="geometry">
            <Array as="points">
              <mxPoint x="829" y="325" />
              <mxPoint x="829" y="821" />
            </Array>
            <mxPoint x="753" y="325" as="sourcePoint" />
          </mxGeometry>
        </mxCell>
        <mxCell id="3xvCicC7-UhYXoGxNOdK-21" value="Hệ thống HRM" style="swimlane;html=1;startSize=20;" parent="3xvCicC7-UhYXoGxNOdK-1" vertex="1">
          <mxGeometry x="300" y="20" width="270" height="870" as="geometry" />
        </mxCell>
        <mxCell id="3xvCicC7-UhYXoGxNOdK-22" value="Gọi API lấy dữ liệu vào ra" style="rounded=1;whiteSpace=wrap;html=1;shadow=0;comic=0;labelBackgroundColor=none;strokeWidth=1;fontFamily=Verdana;fontSize=12;align=center;arcSize=50;" parent="3xvCicC7-UhYXoGxNOdK-21" vertex="1">
          <mxGeometry x="67" y="145" width="120" height="40" as="geometry" />
        </mxCell>
        <mxCell id="3xvCicC7-UhYXoGxNOdK-23" value="Gọi api lấy dữ liệu chấm công" style="shape=note;whiteSpace=wrap;html=1;rounded=0;shadow=0;comic=0;labelBackgroundColor=none;strokeWidth=1;fontFamily=Verdana;fontSize=12;align=center;size=20;" parent="3xvCicC7-UhYXoGxNOdK-21" vertex="1">
          <mxGeometry x="25" y="62" width="185" height="45" as="geometry" />
        </mxCell>
        <mxCell id="3xvCicC7-UhYXoGxNOdK-8" value="Tự động đồng bộ sang dữ liệu vào ra" style="rounded=1;whiteSpace=wrap;html=1;shadow=0;comic=0;labelBackgroundColor=none;strokeWidth=1;fontFamily=Verdana;fontSize=12;align=center;arcSize=50;" parent="3xvCicC7-UhYXoGxNOdK-21" vertex="1">
          <mxGeometry x="29" y="410" width="148" height="66" as="geometry" />
        </mxCell>
        <mxCell id="3xvCicC7-UhYXoGxNOdK-12" value="Trả ra dữ liệu chấm công vào ra" style="rounded=1;whiteSpace=wrap;html=1;shadow=0;comic=0;labelBackgroundColor=none;strokeWidth=1;fontFamily=Verdana;fontSize=12;align=center;arcSize=50;" parent="3xvCicC7-UhYXoGxNOdK-21" vertex="1">
          <mxGeometry x="43" y="279" width="120" height="53" as="geometry" />
        </mxCell>
        <mxCell id="3xvCicC7-UhYXoGxNOdK-11" style="edgeStyle=orthogonalEdgeStyle;rounded=0;orthogonalLoop=1;jettySize=auto;html=1;" parent="3xvCicC7-UhYXoGxNOdK-21" source="3xvCicC7-UhYXoGxNOdK-12" target="3xvCicC7-UhYXoGxNOdK-8" edge="1">
          <mxGeometry relative="1" as="geometry" />
        </mxCell>
        <mxCell id="3xvCicC7-UhYXoGxNOdK-32" value="Máy chấm công" style="swimlane;html=1;startSize=20;" parent="3xvCicC7-UhYXoGxNOdK-1" vertex="1">
          <mxGeometry x="570" y="20" width="300" height="870" as="geometry" />
        </mxCell>
        <mxCell id="3xvCicC7-UhYXoGxNOdK-34" value="Check thông tin đầu vào API" style="rounded=1;whiteSpace=wrap;html=1;shadow=0;comic=0;labelBackgroundColor=none;strokeWidth=1;fontFamily=Verdana;fontSize=12;align=center;arcSize=50;" parent="3xvCicC7-UhYXoGxNOdK-32" vertex="1">
          <mxGeometry x="67" y="145" width="120" height="40" as="geometry" />
        </mxCell>
        <mxCell id="3xvCicC7-UhYXoGxNOdK-37" value="[Lấy dữ liệu không chính xác]" style="text;html=1;strokeColor=none;fillColor=none;align=center;verticalAlign=middle;whiteSpace=wrap;rounded=0;" parent="3xvCicC7-UhYXoGxNOdK-32" vertex="1">
          <mxGeometry x="139" y="265" width="154" height="40" as="geometry" />
        </mxCell>
        <mxCell id="3xvCicC7-UhYXoGxNOdK-38" style="edgeStyle=orthogonalEdgeStyle;rounded=0;orthogonalLoop=1;jettySize=auto;html=1;" parent="3xvCicC7-UhYXoGxNOdK-32" source="3xvCicC7-UhYXoGxNOdK-34" target="3xvCicC7-UhYXoGxNOdK-40" edge="1">
          <mxGeometry relative="1" as="geometry">
            <mxPoint x="156" y="396" as="sourcePoint" />
          </mxGeometry>
        </mxCell>
        <mxCell id="3xvCicC7-UhYXoGxNOdK-40" value="" style="rhombus;whiteSpace=wrap;html=1;" parent="3xvCicC7-UhYXoGxNOdK-32" vertex="1">
          <mxGeometry x="97" y="280" width="60" height="50" as="geometry" />
        </mxCell>
        <mxCell id="3xvCicC7-UhYXoGxNOdK-43" value="[Lấy dữ liệu thành công]" style="text;html=1;strokeColor=none;fillColor=none;align=center;verticalAlign=middle;whiteSpace=wrap;rounded=0;" parent="3xvCicC7-UhYXoGxNOdK-32" vertex="1">
          <mxGeometry x="7.5" y="270" width="110" height="30" as="geometry" />
        </mxCell>
        <mxCell id="7KFf32Kym62KMx1jLJYH-1" style="edgeStyle=orthogonalEdgeStyle;rounded=0;orthogonalLoop=1;jettySize=auto;html=1;labelBackgroundColor=none;labelBorderColor=none;" parent="3xvCicC7-UhYXoGxNOdK-1" source="3xvCicC7-UhYXoGxNOdK-8" target="3xvCicC7-UhYXoGxNOdK-10" edge="1">
          <mxGeometry relative="1" as="geometry" />
        </mxCell>
        <mxCell id="3xvCicC7-UhYXoGxNOdK-53" style="edgeStyle=none;rounded=0;html=1;dashed=1;labelBackgroundColor=none;startArrow=none;startFill=0;startSize=5;endArrow=oval;endFill=0;endSize=5;jettySize=auto;orthogonalLoop=1;strokeWidth=1;fontFamily=Verdana;fontSize=12" parent="1" source="3xvCicC7-UhYXoGxNOdK-23" edge="1">
          <mxGeometry relative="1" as="geometry">
            <mxPoint x="466.9642857142858" y="700" as="sourcePoint" />
            <mxPoint x="390" y="210" as="targetPoint" />
          </mxGeometry>
        </mxCell>
      </root>
    </mxGraphModel>
  </diagram>
  <diagram id="N7TD_ulImgBBFRTUE9qu" name="Mô hình HRM">
    <mxGraphModel dx="1929" dy="525" grid="1" gridSize="10" guides="1" tooltips="1" connect="1" arrows="1" fold="1" page="1" pageScale="1" pageWidth="827" pageHeight="1169" math="0" shadow="0">
      <root>
        <mxCell id="0" />
        <mxCell id="1" parent="0" />
        <mxCell id="PhYGnijFNwyfxIj3JcdC-2" value="Quản trị hệ thống" style="sketch=0;outlineConnect=0;fontColor=#232F3E;gradientColor=none;fillColor=#232F3D;strokeColor=none;dashed=0;verticalLabelPosition=bottom;verticalAlign=top;align=center;html=1;fontSize=12;fontStyle=0;aspect=fixed;pointerEvents=1;shape=mxgraph.aws4.user;" vertex="1" parent="1">
          <mxGeometry x="720" y="11.000000000000002" width="30" height="30" as="geometry" />
        </mxCell>
        <mxCell id="PhYGnijFNwyfxIj3JcdC-12" value="Chuyên viên nhân sự" style="sketch=0;outlineConnect=0;fontColor=#232F3E;gradientColor=none;fillColor=#232F3D;strokeColor=none;dashed=0;verticalLabelPosition=bottom;verticalAlign=top;align=center;html=1;fontSize=12;fontStyle=0;aspect=fixed;pointerEvents=1;shape=mxgraph.aws4.user;" vertex="1" parent="1">
          <mxGeometry x="377" y="11.004267515923573" width="30" height="30" as="geometry" />
        </mxCell>
        <mxCell id="PhYGnijFNwyfxIj3JcdC-13" value="" style="rounded=0;whiteSpace=wrap;html=1;fillColor=#eeeeee;strokeColor=#36393d;" vertex="1" parent="1">
          <mxGeometry x="250" y="133.06" width="440" height="286.94" as="geometry" />
        </mxCell>
        <mxCell id="PhYGnijFNwyfxIj3JcdC-14" value="Lãnh đạo&amp;nbsp;" style="sketch=0;outlineConnect=0;fontColor=#232F3E;gradientColor=none;fillColor=#232F3D;strokeColor=none;dashed=0;verticalLabelPosition=bottom;verticalAlign=top;align=center;html=1;fontSize=12;fontStyle=0;aspect=fixed;pointerEvents=1;shape=mxgraph.aws4.user;" vertex="1" parent="1">
          <mxGeometry x="508" y="11.004267515923573" width="30" height="30" as="geometry" />
        </mxCell>
        <mxCell id="PhYGnijFNwyfxIj3JcdC-15" value="" style="rounded=0;whiteSpace=wrap;html=1;fillColor=#f9f7ed;strokeColor=#36393d;" vertex="1" parent="1">
          <mxGeometry x="-140" y="370" width="170" height="150" as="geometry" />
        </mxCell>
        <mxCell id="PhYGnijFNwyfxIj3JcdC-16" value="&lt;div&gt;Hệ thống Web quản lý nhân lực (HRM)&lt;/div&gt;" style="text;html=1;strokeColor=#666666;fillColor=#f5f5f5;align=center;verticalAlign=middle;whiteSpace=wrap;rounded=0;fontFamily=Times New Roman;fontSize=13;fontStyle=1;gradientColor=#b3b3b3;" vertex="1" parent="1">
          <mxGeometry x="250" y="119.81" width="440" height="25.45" as="geometry" />
        </mxCell>
        <mxCell id="PhYGnijFNwyfxIj3JcdC-17" style="edgeStyle=orthogonalEdgeStyle;rounded=0;orthogonalLoop=1;jettySize=auto;html=1;entryX=0.881;entryY=-0.058;entryDx=0;entryDy=0;entryPerimeter=0;" edge="1" parent="1" source="PhYGnijFNwyfxIj3JcdC-2" target="PhYGnijFNwyfxIj3JcdC-16">
          <mxGeometry relative="1" as="geometry" />
        </mxCell>
        <mxCell id="PhYGnijFNwyfxIj3JcdC-18" style="edgeStyle=orthogonalEdgeStyle;rounded=0;orthogonalLoop=1;jettySize=auto;html=1;entryX=0.325;entryY=0.079;entryDx=0;entryDy=0;entryPerimeter=0;" edge="1" parent="1" source="PhYGnijFNwyfxIj3JcdC-12" target="PhYGnijFNwyfxIj3JcdC-16">
          <mxGeometry relative="1" as="geometry" />
        </mxCell>
        <mxCell id="PhYGnijFNwyfxIj3JcdC-19" style="edgeStyle=orthogonalEdgeStyle;rounded=0;orthogonalLoop=1;jettySize=auto;html=1;entryX=0.603;entryY=0.021;entryDx=0;entryDy=0;entryPerimeter=0;" edge="1" parent="1" source="PhYGnijFNwyfxIj3JcdC-14" target="PhYGnijFNwyfxIj3JcdC-16">
          <mxGeometry relative="1" as="geometry">
            <Array as="points">
              <mxPoint x="523" y="89.81" />
              <mxPoint x="515" y="89.81" />
            </Array>
          </mxGeometry>
        </mxCell>
        <mxCell id="PhYGnijFNwyfxIj3JcdC-28" value="" style="shape=image;html=1;verticalAlign=top;verticalLabelPosition=bottom;labelBackgroundColor=#ffffff;imageAspect=0;aspect=fixed;image=https://cdn3.iconfinder.com/data/icons/document-icons-2/30/647702-excel-128.png;fontFamily=Times New Roman;fontSize=11;" vertex="1" parent="1">
          <mxGeometry x="397" y="72.03133757961785" width="10" height="10" as="geometry" />
        </mxCell>
        <mxCell id="PhYGnijFNwyfxIj3JcdC-29" value="" style="shape=image;html=1;verticalAlign=top;verticalLabelPosition=bottom;labelBackgroundColor=#ffffff;imageAspect=0;aspect=fixed;image=https://cdn3.iconfinder.com/data/icons/document-icons-2/30/647702-excel-128.png;fontFamily=Times New Roman;fontSize=11;" vertex="1" parent="1">
          <mxGeometry x="528" y="72.03133757961785" width="10" height="10" as="geometry" />
        </mxCell>
        <mxCell id="PhYGnijFNwyfxIj3JcdC-30" value="" style="verticalLabelPosition=bottom;html=1;verticalAlign=top;align=center;strokeColor=none;fillColor=#00BEF2;shape=mxgraph.azure.cloud_services_configuration_file;pointerEvents=1;fontFamily=Times New Roman;fontSize=11;" vertex="1" parent="1">
          <mxGeometry x="377" y="72.03133757961785" width="10" height="11.624203821656051" as="geometry" />
        </mxCell>
        <mxCell id="PhYGnijFNwyfxIj3JcdC-31" value="" style="verticalLabelPosition=bottom;html=1;verticalAlign=top;align=center;strokeColor=none;fillColor=#00BEF2;shape=mxgraph.azure.cloud_services_configuration_file;pointerEvents=1;fontFamily=Times New Roman;fontSize=11;" vertex="1" parent="1">
          <mxGeometry x="508" y="72.03133757961785" width="10" height="11.624203821656051" as="geometry" />
        </mxCell>
        <mxCell id="PhYGnijFNwyfxIj3JcdC-32" value="&lt;div&gt;Quản lý cơ cấu tổ chức&lt;/div&gt;" style="text;html=1;strokeColor=#36393d;fillColor=#cce5ff;align=center;verticalAlign=middle;whiteSpace=wrap;rounded=0;fontStyle=0" vertex="1" parent="1">
          <mxGeometry x="260" y="156.30681528662421" width="130" height="34.87261146496815" as="geometry" />
        </mxCell>
        <mxCell id="PhYGnijFNwyfxIj3JcdC-33" value="Quá trình tuyển dụng" style="text;html=1;strokeColor=#36393d;fillColor=#cce5ff;align=center;verticalAlign=middle;whiteSpace=wrap;rounded=0;fontStyle=0" vertex="1" parent="1">
          <mxGeometry x="260" y="198.153949044586" width="130" height="34.87261146496815" as="geometry" />
        </mxCell>
        <mxCell id="PhYGnijFNwyfxIj3JcdC-34" value="" style="rounded=0;whiteSpace=wrap;html=1;fillColor=#cce5ff;strokeColor=#36393d;" vertex="1" parent="1">
          <mxGeometry x="159" y="498.42999999999995" width="440" height="88.11" as="geometry" />
        </mxCell>
        <mxCell id="PhYGnijFNwyfxIj3JcdC-38" value="" style="group;" vertex="1" connectable="0" parent="1">
          <mxGeometry x="236" y="510.79636942675165" width="100" height="69.7452229299363" as="geometry" />
        </mxCell>
        <mxCell id="PhYGnijFNwyfxIj3JcdC-39" value="" style="shape=datastore;whiteSpace=wrap;html=1;fontFamily=Times New Roman;fontSize=11;fillColor=#eeeeee;strokeColor=#36393d;" vertex="1" parent="PhYGnijFNwyfxIj3JcdC-38">
          <mxGeometry x="0.0036363636363603282" width="98.18181818181816" height="69.7452229299363" as="geometry" />
        </mxCell>
        <mxCell id="PhYGnijFNwyfxIj3JcdC-40" value="&lt;div&gt;Cơ sở dữ liệu phần mềm&lt;br&gt;&lt;/div&gt;" style="text;html=1;strokeColor=none;fillColor=none;align=center;verticalAlign=middle;whiteSpace=wrap;rounded=0;" vertex="1" parent="PhYGnijFNwyfxIj3JcdC-38">
          <mxGeometry y="35.163216560509554" width="99.99999999999997" height="20.34235668789809" as="geometry" />
        </mxCell>
        <mxCell id="PhYGnijFNwyfxIj3JcdC-44" value="" style="rounded=0;whiteSpace=wrap;html=1;fontFamily=Times New Roman;fontSize=11;fillColor=#f8cecc;strokeColor=#b85450;strokeWidth=0.4;" vertex="1" parent="1">
          <mxGeometry x="694" y="119.81" width="40" height="470.19" as="geometry" />
        </mxCell>
        <mxCell id="PhYGnijFNwyfxIj3JcdC-45" value="AN TOÀN, BẢO MẬT THÔNG TIN HỆ THỐNG" style="text;html=1;align=center;verticalAlign=middle;whiteSpace=wrap;rounded=0;fontStyle=1;rotation=-90;" vertex="1" parent="1">
          <mxGeometry x="530.92" y="290.07" width="366.14" height="34.87" as="geometry" />
        </mxCell>
        <mxCell id="PhYGnijFNwyfxIj3JcdC-46" value="Quản lý yêu cầu" style="text;html=1;strokeColor=#36393d;fillColor=#cce5ff;align=center;verticalAlign=middle;whiteSpace=wrap;rounded=0;fontStyle=0" vertex="1" parent="1">
          <mxGeometry x="260" y="240.00108280254778" width="130" height="34.87261146496815" as="geometry" />
        </mxCell>
        <mxCell id="PhYGnijFNwyfxIj3JcdC-47" value="&lt;div&gt;Báo cáo thống kê&lt;br&gt;&lt;/div&gt;" style="text;html=1;strokeColor=#36393d;fillColor=#cce5ff;align=center;verticalAlign=middle;whiteSpace=wrap;rounded=0;fontStyle=0" vertex="1" parent="1">
          <mxGeometry x="398" y="327.1806369426752" width="130" height="34.87261146496815" as="geometry" />
        </mxCell>
        <mxCell id="PhYGnijFNwyfxIj3JcdC-48" value="Ql thông tin khác" style="text;html=1;strokeColor=#36393d;fillColor=#cce5ff;align=center;verticalAlign=middle;whiteSpace=wrap;rounded=0;fontStyle=0" vertex="1" parent="1">
          <mxGeometry x="260" y="327.1826114649682" width="130" height="34.87261146496815" as="geometry" />
        </mxCell>
        <mxCell id="PhYGnijFNwyfxIj3JcdC-49" value="Quản lý định biên" style="text;html=1;strokeColor=#36393d;fillColor=#cce5ff;align=center;verticalAlign=middle;whiteSpace=wrap;rounded=0;fontStyle=0" vertex="1" parent="1">
          <mxGeometry x="538" y="156.30681528662421" width="142" height="34.87261146496815" as="geometry" />
        </mxCell>
        <mxCell id="PhYGnijFNwyfxIj3JcdC-50" value="Quản trị danh mục dùng chung" style="text;html=1;strokeColor=#36393d;fillColor=#cce5ff;align=center;verticalAlign=middle;whiteSpace=wrap;rounded=0;fontStyle=0" vertex="1" parent="1">
          <mxGeometry x="538.66" y="325.18" width="141.34" height="34.87" as="geometry" />
        </mxCell>
        <mxCell id="PhYGnijFNwyfxIj3JcdC-51" value="Quản lý công tác nhân sự, quá trình làm việc" style="text;html=1;strokeColor=#36393d;fillColor=#cce5ff;align=center;verticalAlign=middle;whiteSpace=wrap;rounded=0;fontStyle=0" vertex="1" parent="1">
          <mxGeometry x="398" y="240.00063694267521" width="130" height="34.87261146496815" as="geometry" />
        </mxCell>
        <mxCell id="PhYGnijFNwyfxIj3JcdC-52" value="&lt;span&gt;Quản lý chấm công&lt;/span&gt;" style="text;html=1;strokeColor=#36393d;fillColor=#cce5ff;align=center;verticalAlign=middle;whiteSpace=wrap;rounded=0;fontStyle=0" vertex="1" parent="1">
          <mxGeometry x="397" y="283.0126114649682" width="130" height="34.87261146496815" as="geometry" />
        </mxCell>
        <mxCell id="PhYGnijFNwyfxIj3JcdC-54" value="" style="shape=doubleArrow;whiteSpace=wrap;html=1;fontFamily=Times New Roman;fontSize=11;rotation=90;" vertex="1" parent="1">
          <mxGeometry x="390.25" y="468.75" width="23.5" height="34.87" as="geometry" />
        </mxCell>
        <mxCell id="PhYGnijFNwyfxIj3JcdC-55" value="" style="rounded=0;whiteSpace=wrap;html=1;strokeWidth=0.4;" vertex="1" parent="1">
          <mxGeometry x="-137" y="376.08000000000004" width="165" height="133.92" as="geometry" />
        </mxCell>
        <mxCell id="PhYGnijFNwyfxIj3JcdC-57" value="Tích hợp hệ thống SSO cho Web quản trị" style="text;html=1;strokeColor=#36393d;fillColor=#cce5ff;align=center;verticalAlign=middle;whiteSpace=wrap;rounded=0;fontStyle=0" vertex="1" parent="1">
          <mxGeometry x="-132" y="414.44242038216566" width="150" height="34.87261146496815" as="geometry" />
        </mxCell>
        <mxCell id="PhYGnijFNwyfxIj3JcdC-59" value="Tích hợp hệ thống máy chấm công nếu triển khai" style="text;html=1;strokeColor=#36393d;fillColor=#cce5ff;align=center;verticalAlign=middle;whiteSpace=wrap;rounded=0;fontStyle=0" vertex="1" parent="1">
          <mxGeometry x="-132" y="459.92847133757965" width="150" height="34.87261146496815" as="geometry" />
        </mxCell>
        <mxCell id="PhYGnijFNwyfxIj3JcdC-65" value="Dịch vụ tích hợp" style="text;html=1;strokeColor=#666666;fillColor=#f5f5f5;align=center;verticalAlign=middle;whiteSpace=wrap;rounded=0;fontFamily=Times New Roman;fontSize=13;fontStyle=1;gradientColor=#b3b3b3;" vertex="1" parent="1">
          <mxGeometry x="-137" y="376.08254777070067" width="165" height="30.222929936305736" as="geometry" />
        </mxCell>
        <mxCell id="PhYGnijFNwyfxIj3JcdC-69" style="edgeStyle=orthogonalEdgeStyle;rounded=0;orthogonalLoop=1;jettySize=auto;html=1;entryX=0.171;entryY=-0.058;entryDx=0;entryDy=0;entryPerimeter=0;" edge="1" parent="1" source="PhYGnijFNwyfxIj3JcdC-70" target="PhYGnijFNwyfxIj3JcdC-16">
          <mxGeometry relative="1" as="geometry" />
        </mxCell>
        <mxCell id="PhYGnijFNwyfxIj3JcdC-70" value="Người lao động" style="sketch=0;outlineConnect=0;fontColor=#232F3E;gradientColor=none;fillColor=#232F3D;strokeColor=none;dashed=0;verticalLabelPosition=bottom;verticalAlign=top;align=center;html=1;fontSize=12;fontStyle=0;pointerEvents=1;shape=mxgraph.aws4.user;aspect=fixed;" vertex="1" parent="1">
          <mxGeometry x="186" y="30.004267515923573" width="30" height="30" as="geometry" />
        </mxCell>
        <mxCell id="PhYGnijFNwyfxIj3JcdC-71" value="Quản lý Quá trình đào tạo, bồi dưỡng" style="text;html=1;strokeColor=#36393d;fillColor=#cce5ff;align=center;verticalAlign=middle;whiteSpace=wrap;rounded=0;fontStyle=0" vertex="1" parent="1">
          <mxGeometry x="398" y="198.153949044586" width="130" height="34.87261146496815" as="geometry" />
        </mxCell>
        <mxCell id="PhYGnijFNwyfxIj3JcdC-72" value="Quản lý hồ sơ" style="text;html=1;strokeColor=#36393d;fillColor=#cce5ff;align=center;verticalAlign=middle;whiteSpace=wrap;rounded=0;fontStyle=0" vertex="1" parent="1">
          <mxGeometry x="397" y="156.31" width="130" height="34.87" as="geometry" />
        </mxCell>
        <mxCell id="PhYGnijFNwyfxIj3JcdC-73" value="Quá trình lương, phụ cấp, bảo hiểm xã hội" style="text;html=1;strokeColor=#36393d;fillColor=#cce5ff;align=center;verticalAlign=middle;whiteSpace=wrap;rounded=0;fontStyle=0" vertex="1" parent="1">
          <mxGeometry x="538" y="240.58" width="142" height="34.87" as="geometry" />
        </mxCell>
        <mxCell id="PhYGnijFNwyfxIj3JcdC-74" value="Đánh giá cán bộ hàng năm" style="text;html=1;strokeColor=#36393d;fillColor=#cce5ff;align=center;verticalAlign=middle;whiteSpace=wrap;rounded=0;fontStyle=0" vertex="1" parent="1">
          <mxGeometry x="538" y="282.43" width="142" height="34.87" as="geometry" />
        </mxCell>
        <mxCell id="PhYGnijFNwyfxIj3JcdC-75" value="Quản lý tiện ích/ nhắc nhở cảnh báo" style="text;html=1;strokeColor=#36393d;fillColor=#cce5ff;align=center;verticalAlign=middle;whiteSpace=wrap;rounded=0;fontStyle=0" vertex="1" parent="1">
          <mxGeometry x="260" y="283.02" width="130" height="34.87" as="geometry" />
        </mxCell>
        <mxCell id="PhYGnijFNwyfxIj3JcdC-76" value="Quản lý khen thưởng, kỷ luật" style="text;html=1;strokeColor=#36393d;fillColor=#cce5ff;align=center;verticalAlign=middle;whiteSpace=wrap;rounded=0;fontStyle=0" vertex="1" parent="1">
          <mxGeometry x="538" y="197.57" width="142" height="34.87" as="geometry" />
        </mxCell>
        <mxCell id="FE5jJBIBw9mC8wt0KLKF-2" value="" style="shape=doubleArrow;whiteSpace=wrap;html=1;fontFamily=Times New Roman;fontSize=11;rotation=-180;" vertex="1" parent="1">
          <mxGeometry x="31" y="449.13" width="46" height="14.8" as="geometry" />
        </mxCell>
        <mxCell id="FE5jJBIBw9mC8wt0KLKF-7" value="&lt;div&gt;Mobile APP (HRM)&lt;/div&gt;" style="text;html=1;strokeColor=#666666;fillColor=#f5f5f5;align=center;verticalAlign=middle;whiteSpace=wrap;rounded=0;fontFamily=Times New Roman;fontSize=13;fontStyle=1;gradientColor=#b3b3b3;" vertex="1" parent="1">
          <mxGeometry x="77" y="119.81" width="173" height="25.45" as="geometry" />
        </mxCell>
        <mxCell id="FE5jJBIBw9mC8wt0KLKF-8" value="" style="rounded=0;whiteSpace=wrap;html=1;fillColor=#eeeeee;strokeColor=#36393d;" vertex="1" parent="1">
          <mxGeometry x="78.5" y="145.26" width="170" height="274.74" as="geometry" />
        </mxCell>
        <mxCell id="FE5jJBIBw9mC8wt0KLKF-9" value="&lt;div&gt;Hồ sơ cá nhân&lt;/div&gt;" style="text;html=1;strokeColor=#36393d;fillColor=#cce5ff;align=center;verticalAlign=middle;whiteSpace=wrap;rounded=0;fontStyle=0" vertex="1" parent="1">
          <mxGeometry x="98.5" y="156.30681528662421" width="130" height="34.87261146496815" as="geometry" />
        </mxCell>
        <mxCell id="FE5jJBIBw9mC8wt0KLKF-10" value="&lt;div&gt;Thông tin lương nhân sự&lt;/div&gt;" style="text;html=1;strokeColor=#36393d;fillColor=#cce5ff;align=center;verticalAlign=middle;whiteSpace=wrap;rounded=0;fontStyle=0" vertex="1" parent="1">
          <mxGeometry x="98.5" y="205.70681528662422" width="130" height="34.87261146496815" as="geometry" />
        </mxCell>
        <mxCell id="FE5jJBIBw9mC8wt0KLKF-11" value="&lt;div&gt;Danh bạ&lt;/div&gt;" style="text;html=1;strokeColor=#36393d;fillColor=#cce5ff;align=center;verticalAlign=middle;whiteSpace=wrap;rounded=0;fontStyle=0" vertex="1" parent="1">
          <mxGeometry x="98.5" y="259.09681528662423" width="130" height="34.87261146496815" as="geometry" />
        </mxCell>
        <mxCell id="FE5jJBIBw9mC8wt0KLKF-12" value="&lt;div&gt;Gửi yêu cầu đăng ký nghỉ&lt;/div&gt;" style="text;html=1;strokeColor=#36393d;fillColor=#cce5ff;align=center;verticalAlign=middle;whiteSpace=wrap;rounded=0;fontStyle=0" vertex="1" parent="1">
          <mxGeometry x="98.5" y="309.9968152866242" width="130" height="34.87261146496815" as="geometry" />
        </mxCell>
        <mxCell id="FE5jJBIBw9mC8wt0KLKF-13" value="&lt;div&gt;Phê duyệt yêu cầu đăng ký nghỉ&lt;/div&gt;" style="text;html=1;strokeColor=#36393d;fillColor=#cce5ff;align=center;verticalAlign=middle;whiteSpace=wrap;rounded=0;fontStyle=0" vertex="1" parent="1">
          <mxGeometry x="98.5" y="360.0468152866242" width="130" height="34.87261146496815" as="geometry" />
        </mxCell>
        <mxCell id="FE5jJBIBw9mC8wt0KLKF-18" value="" style="group;" vertex="1" connectable="0" parent="1">
          <mxGeometry x="426" y="510.79636942675165" width="100" height="69.7452229299363" as="geometry" />
        </mxCell>
        <mxCell id="FE5jJBIBw9mC8wt0KLKF-19" value="" style="shape=datastore;whiteSpace=wrap;html=1;fontFamily=Times New Roman;fontSize=11;fillColor=#eeeeee;strokeColor=#36393d;" vertex="1" parent="FE5jJBIBw9mC8wt0KLKF-18">
          <mxGeometry x="0.0036363636363603282" width="98.18181818181816" height="69.7452229299363" as="geometry" />
        </mxCell>
        <mxCell id="FE5jJBIBw9mC8wt0KLKF-20" value="&lt;div&gt;Files (NFS)&lt;br&gt;&lt;/div&gt;" style="text;html=1;strokeColor=none;fillColor=none;align=center;verticalAlign=middle;whiteSpace=wrap;rounded=0;" vertex="1" parent="FE5jJBIBw9mC8wt0KLKF-18">
          <mxGeometry y="35.163216560509554" width="99.99999999999997" height="20.34235668789809" as="geometry" />
        </mxCell>
        <mxCell id="FE5jJBIBw9mC8wt0KLKF-21" value="API chia sẻ, tích hợp dữ liệu" style="rounded=0;whiteSpace=wrap;html=1;fillColor=#cce5ff;strokeColor=#36393d;" vertex="1" parent="1">
          <mxGeometry x="78" y="423" width="612" height="50" as="geometry" />
        </mxCell>
        <mxCell id="FE5jJBIBw9mC8wt0KLKF-22" value="" style="rounded=0;whiteSpace=wrap;html=1;fillColor=#f9f7ed;strokeColor=#36393d;" vertex="1" parent="1">
          <mxGeometry x="-137" y="119.81" width="170" height="200.19" as="geometry" />
        </mxCell>
        <mxCell id="FE5jJBIBw9mC8wt0KLKF-23" value="" style="rounded=0;whiteSpace=wrap;html=1;strokeWidth=0.4;" vertex="1" parent="1">
          <mxGeometry x="-134" y="125.89" width="165" height="184.11" as="geometry" />
        </mxCell>
        <mxCell id="FE5jJBIBw9mC8wt0KLKF-24" value="HIS" style="text;html=1;strokeColor=#36393d;fillColor=#cce5ff;align=center;verticalAlign=middle;whiteSpace=wrap;rounded=0;fontStyle=0" vertex="1" parent="1">
          <mxGeometry x="-129" y="164.25242038216567" width="150" height="34.87261146496815" as="geometry" />
        </mxCell>
        <mxCell id="FE5jJBIBw9mC8wt0KLKF-25" value="Kế toán" style="text;html=1;strokeColor=#36393d;fillColor=#cce5ff;align=center;verticalAlign=middle;whiteSpace=wrap;rounded=0;fontStyle=0" vertex="1" parent="1">
          <mxGeometry x="-129" y="209.73847133757965" width="150" height="34.87261146496815" as="geometry" />
        </mxCell>
        <mxCell id="FE5jJBIBw9mC8wt0KLKF-26" value="Hệ thống phần mềm khác" style="text;html=1;strokeColor=#666666;fillColor=#f5f5f5;align=center;verticalAlign=middle;whiteSpace=wrap;rounded=0;fontFamily=Times New Roman;fontSize=13;fontStyle=1;gradientColor=#b3b3b3;" vertex="1" parent="1">
          <mxGeometry x="-134" y="125.89254777070067" width="165" height="30.222929936305736" as="geometry" />
        </mxCell>
        <mxCell id="FE5jJBIBw9mC8wt0KLKF-27" value="..." style="text;html=1;strokeColor=#36393d;fillColor=#cce5ff;align=center;verticalAlign=middle;whiteSpace=wrap;rounded=0;fontStyle=0" vertex="1" parent="1">
          <mxGeometry x="-127" y="259.09847133757967" width="150" height="34.87261146496815" as="geometry" />
        </mxCell>
        <mxCell id="FE5jJBIBw9mC8wt0KLKF-28" value="" style="shape=doubleArrow;whiteSpace=wrap;html=1;fontFamily=Times New Roman;fontSize=11;rotation=-180;" vertex="1" parent="1">
          <mxGeometry x="33" y="218.23" width="46" height="14.8" as="geometry" />
        </mxCell>
      </root>
    </mxGraphModel>
  </diagram>
  <diagram name="Thiet ke PM2 CCVC" id="AF7lj0xzQd3_Or0OWSK2">
    <mxGraphModel dx="1102" dy="582" grid="1" gridSize="10" guides="1" tooltips="1" connect="1" arrows="1" fold="1" page="1" pageScale="1" pageWidth="827" pageHeight="1169" math="0" shadow="0">
      <root>
        <mxCell id="RVDdO5qM1YFJaSNXy_jc-0" />
        <mxCell id="RVDdO5qM1YFJaSNXy_jc-1" parent="RVDdO5qM1YFJaSNXy_jc-0" />
        <mxCell id="RVDdO5qM1YFJaSNXy_jc-2" value="" style="shape=image;html=1;verticalAlign=top;verticalLabelPosition=bottom;labelBackgroundColor=#ffffff;imageAspect=0;aspect=fixed;image=https://cdn1.iconfinder.com/data/icons/hawcons/32/699265-icon-37-file-xml-128.png;dashed=1;strokeWidth=0.4;fillColor=none;" vertex="1" parent="RVDdO5qM1YFJaSNXy_jc-1">
          <mxGeometry x="153" y="550.81" width="20" height="20" as="geometry" />
        </mxCell>
        <mxCell id="RVDdO5qM1YFJaSNXy_jc-3" value="Quản trị hệ thống" style="sketch=0;outlineConnect=0;fontColor=#232F3E;gradientColor=none;fillColor=#232F3D;strokeColor=none;dashed=0;verticalLabelPosition=bottom;verticalAlign=top;align=center;html=1;fontSize=12;fontStyle=0;aspect=fixed;pointerEvents=1;shape=mxgraph.aws4.user;" vertex="1" parent="RVDdO5qM1YFJaSNXy_jc-1">
          <mxGeometry x="625" y="10.810000000000002" width="30" height="30" as="geometry" />
        </mxCell>
        <mxCell id="RVDdO5qM1YFJaSNXy_jc-4" value="" style="rounded=0;whiteSpace=wrap;html=1;fillColor=#eeeeee;strokeColor=#36393d;" vertex="1" parent="RVDdO5qM1YFJaSNXy_jc-1">
          <mxGeometry y="421.3386624203822" width="150" height="251.0828025477707" as="geometry" />
        </mxCell>
        <mxCell id="RVDdO5qM1YFJaSNXy_jc-5" value="" style="group" vertex="1" connectable="0" parent="RVDdO5qM1YFJaSNXy_jc-1">
          <mxGeometry x="30" y="542.2303821656051" width="100" height="81.36942675159236" as="geometry" />
        </mxCell>
        <mxCell id="RVDdO5qM1YFJaSNXy_jc-6" value="" style="shape=datastore;whiteSpace=wrap;html=1;fillColor=#f5f5f5;strokeColor=#666666;gradientColor=#b3b3b3;" vertex="1" parent="RVDdO5qM1YFJaSNXy_jc-5">
          <mxGeometry x="-5" width="100" height="61.027070063694275" as="geometry" />
        </mxCell>
        <mxCell id="RVDdO5qM1YFJaSNXy_jc-7" value="Bộ, Ngành" style="text;html=1;strokeColor=none;fillColor=none;align=center;verticalAlign=middle;whiteSpace=wrap;rounded=0;" vertex="1" parent="RVDdO5qM1YFJaSNXy_jc-5">
          <mxGeometry x="4.166666666666667" y="61.027070063694275" width="91.66666666666667" height="20.34235668789809" as="geometry" />
        </mxCell>
        <mxCell id="RVDdO5qM1YFJaSNXy_jc-8" value="HT Phần mềm QL CBCCVC" style="text;html=1;strokeColor=none;fillColor=none;align=center;verticalAlign=middle;whiteSpace=wrap;rounded=0;" vertex="1" parent="RVDdO5qM1YFJaSNXy_jc-5">
          <mxGeometry x="-0.8333333333333286" y="30.513535031847137" width="91.66666666666667" height="20.34235668789809" as="geometry" />
        </mxCell>
        <mxCell id="RVDdO5qM1YFJaSNXy_jc-9" value="" style="group" vertex="1" connectable="0" parent="RVDdO5qM1YFJaSNXy_jc-1">
          <mxGeometry x="25" y="442.26222929936307" width="100" height="81.36942675159236" as="geometry" />
        </mxCell>
        <mxCell id="RVDdO5qM1YFJaSNXy_jc-10" value="" style="shape=datastore;whiteSpace=wrap;html=1;fillColor=#f5f5f5;strokeColor=#666666;gradientColor=#b3b3b3;" vertex="1" parent="RVDdO5qM1YFJaSNXy_jc-9">
          <mxGeometry width="100" height="61.027070063694275" as="geometry" />
        </mxCell>
        <mxCell id="RVDdO5qM1YFJaSNXy_jc-11" value="Địa phương" style="text;html=1;strokeColor=none;fillColor=none;align=center;verticalAlign=middle;whiteSpace=wrap;rounded=0;" vertex="1" parent="RVDdO5qM1YFJaSNXy_jc-9">
          <mxGeometry x="4.166666666666667" y="61.027070063694275" width="91.66666666666669" height="20.34235668789809" as="geometry" />
        </mxCell>
        <mxCell id="RVDdO5qM1YFJaSNXy_jc-12" value="HT Phần mềm QL CBCCVC" style="text;html=1;strokeColor=none;fillColor=none;align=center;verticalAlign=middle;whiteSpace=wrap;rounded=0;" vertex="1" parent="RVDdO5qM1YFJaSNXy_jc-9">
          <mxGeometry x="4.166666666666671" y="30.513535031847137" width="91.66666666666667" height="20.34235668789809" as="geometry" />
        </mxCell>
        <mxCell id="RVDdO5qM1YFJaSNXy_jc-13" value="Cán bộ tổ chức BNĐP" style="sketch=0;outlineConnect=0;fontColor=#232F3E;gradientColor=none;fillColor=#232F3D;strokeColor=none;dashed=0;verticalLabelPosition=bottom;verticalAlign=top;align=center;html=1;fontSize=12;fontStyle=0;aspect=fixed;pointerEvents=1;shape=mxgraph.aws4.user;" vertex="1" parent="RVDdO5qM1YFJaSNXy_jc-1">
          <mxGeometry x="377" y="11.004267515923573" width="30" height="30" as="geometry" />
        </mxCell>
        <mxCell id="RVDdO5qM1YFJaSNXy_jc-14" value="" style="rounded=0;whiteSpace=wrap;html=1;fillColor=#eeeeee;strokeColor=#36393d;" vertex="1" parent="RVDdO5qM1YFJaSNXy_jc-1">
          <mxGeometry x="250" y="133.0584076433121" width="440" height="240.62101910828028" as="geometry" />
        </mxCell>
        <mxCell id="RVDdO5qM1YFJaSNXy_jc-15" value="Lãnh đạo BNĐP" style="sketch=0;outlineConnect=0;fontColor=#232F3E;gradientColor=none;fillColor=#232F3D;strokeColor=none;dashed=0;verticalLabelPosition=bottom;verticalAlign=top;align=center;html=1;fontSize=12;fontStyle=0;aspect=fixed;pointerEvents=1;shape=mxgraph.aws4.user;" vertex="1" parent="RVDdO5qM1YFJaSNXy_jc-1">
          <mxGeometry x="508" y="11.004267515923573" width="30" height="30" as="geometry" />
        </mxCell>
        <mxCell id="RVDdO5qM1YFJaSNXy_jc-16" value="" style="rounded=0;whiteSpace=wrap;html=1;fillColor=#f9f7ed;strokeColor=#36393d;" vertex="1" parent="RVDdO5qM1YFJaSNXy_jc-1">
          <mxGeometry x="250" y="421.3386624203822" width="440" height="251.0828025477707" as="geometry" />
        </mxCell>
        <mxCell id="RVDdO5qM1YFJaSNXy_jc-17" value="&lt;div&gt;Cổng CBCCVC&lt;/div&gt;" style="text;html=1;strokeColor=#666666;fillColor=#f5f5f5;align=center;verticalAlign=middle;whiteSpace=wrap;rounded=0;fontFamily=Times New Roman;fontSize=13;fontStyle=1;gradientColor=#b3b3b3;" vertex="1" parent="RVDdO5qM1YFJaSNXy_jc-1">
          <mxGeometry x="250" y="119.81" width="440" height="25.45" as="geometry" />
        </mxCell>
        <mxCell id="RVDdO5qM1YFJaSNXy_jc-18" style="edgeStyle=orthogonalEdgeStyle;rounded=0;orthogonalLoop=1;jettySize=auto;html=1;entryX=0.713;entryY=0.069;entryDx=0;entryDy=0;entryPerimeter=0;" edge="1" parent="RVDdO5qM1YFJaSNXy_jc-1" source="RVDdO5qM1YFJaSNXy_jc-3" target="RVDdO5qM1YFJaSNXy_jc-17">
          <mxGeometry relative="1" as="geometry" />
        </mxCell>
        <mxCell id="RVDdO5qM1YFJaSNXy_jc-19" style="edgeStyle=orthogonalEdgeStyle;rounded=0;orthogonalLoop=1;jettySize=auto;html=1;entryX=0.325;entryY=0.079;entryDx=0;entryDy=0;entryPerimeter=0;" edge="1" parent="RVDdO5qM1YFJaSNXy_jc-1" source="RVDdO5qM1YFJaSNXy_jc-13" target="RVDdO5qM1YFJaSNXy_jc-17">
          <mxGeometry relative="1" as="geometry" />
        </mxCell>
        <mxCell id="RVDdO5qM1YFJaSNXy_jc-20" style="edgeStyle=orthogonalEdgeStyle;rounded=0;orthogonalLoop=1;jettySize=auto;html=1;entryX=0.603;entryY=0.021;entryDx=0;entryDy=0;entryPerimeter=0;" edge="1" parent="RVDdO5qM1YFJaSNXy_jc-1" source="RVDdO5qM1YFJaSNXy_jc-15" target="RVDdO5qM1YFJaSNXy_jc-17">
          <mxGeometry relative="1" as="geometry">
            <Array as="points">
              <mxPoint x="523" y="89.81" />
              <mxPoint x="515" y="89.81" />
            </Array>
          </mxGeometry>
        </mxCell>
        <mxCell id="RVDdO5qM1YFJaSNXy_jc-21" value="BN-ĐP đã có hệ thống" style="text;html=1;strokeColor=#666666;fillColor=#f5f5f5;align=center;verticalAlign=middle;whiteSpace=wrap;rounded=0;fontFamily=Times New Roman;fontSize=13;fontStyle=1;gradientColor=#b3b3b3;" vertex="1" parent="RVDdO5qM1YFJaSNXy_jc-1">
          <mxGeometry y="652.0791082802548" width="150" height="20.34235668789809" as="geometry" />
        </mxCell>
        <mxCell id="RVDdO5qM1YFJaSNXy_jc-22" value="" style="shape=cylinder3;whiteSpace=wrap;html=1;boundedLbl=1;backgroundOutline=1;size=5;fontFamily=Times New Roman;fontSize=13;fillColor=#ffe6cc;strokeColor=#d79b00;" vertex="1" parent="RVDdO5qM1YFJaSNXy_jc-1">
          <mxGeometry x="181" y="421.3386624203822" width="40" height="244.1082802547771" as="geometry" />
        </mxCell>
        <mxCell id="RVDdO5qM1YFJaSNXy_jc-23" style="edgeStyle=orthogonalEdgeStyle;rounded=0;orthogonalLoop=1;jettySize=auto;html=1;exitX=1;exitY=0.5;exitDx=0;exitDy=0;entryX=0.025;entryY=0.352;entryDx=0;entryDy=0;entryPerimeter=0;fontFamily=Times New Roman;fontSize=13;" edge="1" parent="RVDdO5qM1YFJaSNXy_jc-1" source="RVDdO5qM1YFJaSNXy_jc-10" target="RVDdO5qM1YFJaSNXy_jc-22">
          <mxGeometry relative="1" as="geometry" />
        </mxCell>
        <mxCell id="RVDdO5qM1YFJaSNXy_jc-24" style="edgeStyle=orthogonalEdgeStyle;rounded=0;orthogonalLoop=1;jettySize=auto;html=1;exitX=1;exitY=0.5;exitDx=0;exitDy=0;entryX=0;entryY=0.538;entryDx=0;entryDy=0;entryPerimeter=0;fontFamily=Times New Roman;fontSize=13;" edge="1" parent="RVDdO5qM1YFJaSNXy_jc-1" source="RVDdO5qM1YFJaSNXy_jc-6" target="RVDdO5qM1YFJaSNXy_jc-22">
          <mxGeometry relative="1" as="geometry" />
        </mxCell>
        <mxCell id="RVDdO5qM1YFJaSNXy_jc-25" value="&lt;div&gt;NỀN TẢNG TÍCH HỢP DỮ LIỆU &lt;br&gt;&lt;/div&gt;&lt;div&gt;QUỐC GIA (NGSP)&lt;/div&gt;" style="text;html=1;strokeColor=none;fillColor=none;align=center;verticalAlign=middle;whiteSpace=wrap;rounded=0;rotation=-90;fontSize=11;fontStyle=0" vertex="1" parent="RVDdO5qM1YFJaSNXy_jc-1">
          <mxGeometry x="102.25" y="539.0337261146497" width="199.5" height="20.34235668789809" as="geometry" />
        </mxCell>
        <mxCell id="RVDdO5qM1YFJaSNXy_jc-26" value="" style="shape=cylinder3;whiteSpace=wrap;html=1;boundedLbl=1;backgroundOutline=1;size=5;fontFamily=Times New Roman;fontSize=13;fillColor=#dae8fc;strokeColor=#6c8ebf;" vertex="1" parent="RVDdO5qM1YFJaSNXy_jc-1">
          <mxGeometry x="260.75" y="431.80044585987264" width="40" height="233.64649681528664" as="geometry" />
        </mxCell>
        <mxCell id="RVDdO5qM1YFJaSNXy_jc-27" value="&lt;div&gt;NỀN TẢNG TÍCH HỢP DỮ LIỆU &lt;br&gt;&lt;/div&gt;&lt;div&gt;BỘ NỘI VỤ (LGSP)&lt;br&gt;&lt;/div&gt;" style="text;html=1;strokeColor=none;fillColor=none;align=center;verticalAlign=middle;whiteSpace=wrap;rounded=0;rotation=-90;fontSize=11;fontStyle=0" vertex="1" parent="RVDdO5qM1YFJaSNXy_jc-1">
          <mxGeometry x="181" y="539.0337261146497" width="199.5" height="20.34235668789809" as="geometry" />
        </mxCell>
        <mxCell id="RVDdO5qM1YFJaSNXy_jc-28" value="" style="shape=doubleArrow;whiteSpace=wrap;html=1;fontFamily=Times New Roman;fontSize=11;" vertex="1" parent="RVDdO5qM1YFJaSNXy_jc-1">
          <mxGeometry x="221" y="534.0934394904459" width="39" height="20.923566878980893" as="geometry" />
        </mxCell>
        <mxCell id="RVDdO5qM1YFJaSNXy_jc-29" value="" style="shape=image;html=1;verticalAlign=top;verticalLabelPosition=bottom;labelBackgroundColor=#ffffff;imageAspect=0;aspect=fixed;image=https://cdn3.iconfinder.com/data/icons/document-icons-2/30/647702-excel-128.png;fontFamily=Times New Roman;fontSize=11;" vertex="1" parent="RVDdO5qM1YFJaSNXy_jc-1">
          <mxGeometry x="397" y="72.03133757961785" width="10" height="10" as="geometry" />
        </mxCell>
        <mxCell id="RVDdO5qM1YFJaSNXy_jc-30" value="" style="shape=image;html=1;verticalAlign=top;verticalLabelPosition=bottom;labelBackgroundColor=#ffffff;imageAspect=0;aspect=fixed;image=https://cdn3.iconfinder.com/data/icons/document-icons-2/30/647702-excel-128.png;fontFamily=Times New Roman;fontSize=11;" vertex="1" parent="RVDdO5qM1YFJaSNXy_jc-1">
          <mxGeometry x="528" y="72.03133757961785" width="10" height="10" as="geometry" />
        </mxCell>
        <mxCell id="RVDdO5qM1YFJaSNXy_jc-31" value="" style="verticalLabelPosition=bottom;html=1;verticalAlign=top;align=center;strokeColor=none;fillColor=#00BEF2;shape=mxgraph.azure.cloud_services_configuration_file;pointerEvents=1;fontFamily=Times New Roman;fontSize=11;" vertex="1" parent="RVDdO5qM1YFJaSNXy_jc-1">
          <mxGeometry x="377" y="72.03133757961785" width="10" height="11.624203821656051" as="geometry" />
        </mxCell>
        <mxCell id="RVDdO5qM1YFJaSNXy_jc-32" value="" style="verticalLabelPosition=bottom;html=1;verticalAlign=top;align=center;strokeColor=none;fillColor=#00BEF2;shape=mxgraph.azure.cloud_services_configuration_file;pointerEvents=1;fontFamily=Times New Roman;fontSize=11;" vertex="1" parent="RVDdO5qM1YFJaSNXy_jc-1">
          <mxGeometry x="508" y="72.03133757961785" width="10" height="11.624203821656051" as="geometry" />
        </mxCell>
        <mxCell id="RVDdO5qM1YFJaSNXy_jc-33" value="&lt;div&gt;Quản lý thông tin chung &lt;br&gt;&lt;/div&gt;&lt;div&gt;hồ sơ&lt;/div&gt;" style="text;html=1;strokeColor=#36393d;fillColor=#cce5ff;align=center;verticalAlign=middle;whiteSpace=wrap;rounded=0;fontStyle=0" vertex="1" parent="RVDdO5qM1YFJaSNXy_jc-1">
          <mxGeometry x="260" y="156.30681528662421" width="130" height="34.87261146496815" as="geometry" />
        </mxCell>
        <mxCell id="RVDdO5qM1YFJaSNXy_jc-34" value="Quá trình tuyển dụng" style="text;html=1;strokeColor=#36393d;fillColor=#cce5ff;align=center;verticalAlign=middle;whiteSpace=wrap;rounded=0;fontStyle=0" vertex="1" parent="RVDdO5qM1YFJaSNXy_jc-1">
          <mxGeometry x="260" y="198.153949044586" width="130" height="34.87261146496815" as="geometry" />
        </mxCell>
        <mxCell id="RVDdO5qM1YFJaSNXy_jc-35" value="" style="rounded=0;whiteSpace=wrap;html=1;fillColor=#cce5ff;strokeColor=#36393d;" vertex="1" parent="RVDdO5qM1YFJaSNXy_jc-1">
          <mxGeometry x="250" y="721.8928025477708" width="440" height="111.5923566878981" as="geometry" />
        </mxCell>
        <mxCell id="RVDdO5qM1YFJaSNXy_jc-36" value="" style="group;" vertex="1" connectable="0" parent="RVDdO5qM1YFJaSNXy_jc-1">
          <mxGeometry x="274" y="742.8163694267516" width="98" height="69.7452229299363" as="geometry" />
        </mxCell>
        <mxCell id="RVDdO5qM1YFJaSNXy_jc-37" value="" style="shape=datastore;whiteSpace=wrap;html=1;fontFamily=Times New Roman;fontSize=11;fillColor=#eeeeee;strokeColor=#36393d;" vertex="1" parent="RVDdO5qM1YFJaSNXy_jc-36">
          <mxGeometry x="0.0035636363636331217" width="96.2181818181818" height="69.7452229299363" as="geometry" />
        </mxCell>
        <mxCell id="RVDdO5qM1YFJaSNXy_jc-38" value="&lt;div&gt;DL thông tin &lt;br&gt;&lt;/div&gt;&lt;div&gt;CBCCVC&lt;br&gt;&lt;/div&gt;" style="text;html=1;strokeColor=none;fillColor=none;align=center;verticalAlign=middle;whiteSpace=wrap;rounded=0;" vertex="1" parent="RVDdO5qM1YFJaSNXy_jc-36">
          <mxGeometry y="35.163216560509554" width="97.99999999999999" height="20.34235668789809" as="geometry" />
        </mxCell>
        <mxCell id="RVDdO5qM1YFJaSNXy_jc-39" value="" style="group;" vertex="1" connectable="0" parent="RVDdO5qM1YFJaSNXy_jc-1">
          <mxGeometry x="423" y="742.8163694267516" width="100" height="69.7452229299363" as="geometry" />
        </mxCell>
        <mxCell id="RVDdO5qM1YFJaSNXy_jc-40" value="" style="shape=datastore;whiteSpace=wrap;html=1;fontFamily=Times New Roman;fontSize=11;fillColor=#eeeeee;strokeColor=#36393d;" vertex="1" parent="RVDdO5qM1YFJaSNXy_jc-39">
          <mxGeometry x="0.0036363636363603282" width="98.18181818181816" height="69.7452229299363" as="geometry" />
        </mxCell>
        <mxCell id="RVDdO5qM1YFJaSNXy_jc-41" value="&lt;div&gt;DL tổ chức bộ máy và biên chế&lt;br&gt;&lt;/div&gt;" style="text;html=1;strokeColor=none;fillColor=none;align=center;verticalAlign=middle;whiteSpace=wrap;rounded=0;" vertex="1" parent="RVDdO5qM1YFJaSNXy_jc-39">
          <mxGeometry y="35.163216560509554" width="99.99999999999997" height="20.34235668789809" as="geometry" />
        </mxCell>
        <mxCell id="RVDdO5qM1YFJaSNXy_jc-42" value="" style="group;" vertex="1" connectable="0" parent="RVDdO5qM1YFJaSNXy_jc-1">
          <mxGeometry x="572" y="742.8163694267516" width="101.66" height="69.7452229299363" as="geometry" />
        </mxCell>
        <mxCell id="RVDdO5qM1YFJaSNXy_jc-43" value="" style="shape=datastore;whiteSpace=wrap;html=1;fontFamily=Times New Roman;fontSize=11;fillColor=#eeeeee;strokeColor=#36393d;" vertex="1" parent="RVDdO5qM1YFJaSNXy_jc-42">
          <mxGeometry x="0.0036967272727239093" width="99.81163636363632" height="69.7452229299363" as="geometry" />
        </mxCell>
        <mxCell id="RVDdO5qM1YFJaSNXy_jc-44" value="&lt;div&gt;Sơ yếu lý lịch&lt;/div&gt;&lt;div&gt;CBCCVC điện tử&lt;br&gt;&lt;/div&gt;" style="text;html=1;strokeColor=none;fillColor=none;align=center;verticalAlign=middle;whiteSpace=wrap;rounded=0;" vertex="1" parent="RVDdO5qM1YFJaSNXy_jc-42">
          <mxGeometry y="35.163216560509554" width="101.65999999999997" height="20.34235668789809" as="geometry" />
        </mxCell>
        <mxCell id="RVDdO5qM1YFJaSNXy_jc-45" value="" style="rounded=0;whiteSpace=wrap;html=1;fontFamily=Times New Roman;fontSize=11;fillColor=#f8cecc;strokeColor=#b85450;strokeWidth=0.4;" vertex="1" parent="RVDdO5qM1YFJaSNXy_jc-1">
          <mxGeometry x="694" y="119.81" width="40" height="713" as="geometry" />
        </mxCell>
        <mxCell id="RVDdO5qM1YFJaSNXy_jc-46" value="AN TOÀN, BẢO MẬT THÔNG TIN HỆ THỐNG" style="text;html=1;align=center;verticalAlign=middle;whiteSpace=wrap;rounded=0;fontStyle=1;rotation=-90;" vertex="1" parent="RVDdO5qM1YFJaSNXy_jc-1">
          <mxGeometry x="347.61" y="408.39" width="730.8" height="34.87" as="geometry" />
        </mxCell>
        <mxCell id="RVDdO5qM1YFJaSNXy_jc-47" value="Quá trình công tác" style="text;html=1;strokeColor=#36393d;fillColor=#cce5ff;align=center;verticalAlign=middle;whiteSpace=wrap;rounded=0;fontStyle=0" vertex="1" parent="RVDdO5qM1YFJaSNXy_jc-1">
          <mxGeometry x="260" y="240.00108280254778" width="130" height="34.87261146496815" as="geometry" />
        </mxCell>
        <mxCell id="RVDdO5qM1YFJaSNXy_jc-48" value="&lt;div&gt;Quá trình lương, phụ cấp, bảo hiểm xã hội&lt;br&gt;&lt;/div&gt;" style="text;html=1;strokeColor=#36393d;fillColor=#cce5ff;align=center;verticalAlign=middle;whiteSpace=wrap;rounded=0;fontStyle=0" vertex="1" parent="RVDdO5qM1YFJaSNXy_jc-1">
          <mxGeometry x="260" y="283.0106369426752" width="130" height="34.87261146496815" as="geometry" />
        </mxCell>
        <mxCell id="RVDdO5qM1YFJaSNXy_jc-49" value="Quản lý Chức vụ, chức danh, Đảng" style="text;html=1;strokeColor=#36393d;fillColor=#cce5ff;align=center;verticalAlign=middle;whiteSpace=wrap;rounded=0;fontStyle=0" vertex="1" parent="RVDdO5qM1YFJaSNXy_jc-1">
          <mxGeometry x="260" y="327.1826114649682" width="130" height="34.87261146496815" as="geometry" />
        </mxCell>
        <mxCell id="RVDdO5qM1YFJaSNXy_jc-50" value="Thông tin khen thưởng, kỷ luật" style="text;html=1;strokeColor=#36393d;fillColor=#cce5ff;align=center;verticalAlign=middle;whiteSpace=wrap;rounded=0;fontStyle=0" vertex="1" parent="RVDdO5qM1YFJaSNXy_jc-1">
          <mxGeometry x="398" y="156.30681528662421" width="130" height="34.87261146496815" as="geometry" />
        </mxCell>
        <mxCell id="RVDdO5qM1YFJaSNXy_jc-51" value="QL Đặc điểm lịch sử bản thân, QH gia đình" style="text;html=1;strokeColor=#36393d;fillColor=#cce5ff;align=center;verticalAlign=middle;whiteSpace=wrap;rounded=0;fontStyle=0" vertex="1" parent="RVDdO5qM1YFJaSNXy_jc-1">
          <mxGeometry x="398" y="241.16350318471342" width="130" height="34.87261146496815" as="geometry" />
        </mxCell>
        <mxCell id="RVDdO5qM1YFJaSNXy_jc-52" value="Kết quả đánh giá, phân loại" style="text;html=1;strokeColor=#36393d;fillColor=#cce5ff;align=center;verticalAlign=middle;whiteSpace=wrap;rounded=0;fontStyle=0" vertex="1" parent="RVDdO5qM1YFJaSNXy_jc-1">
          <mxGeometry x="398" y="283.0106369426752" width="130" height="34.87261146496815" as="geometry" />
        </mxCell>
        <mxCell id="RVDdO5qM1YFJaSNXy_jc-53" value="QL thông tin khác" style="text;html=1;strokeColor=#36393d;fillColor=#cce5ff;align=center;verticalAlign=middle;whiteSpace=wrap;rounded=0;fontStyle=0" vertex="1" parent="RVDdO5qM1YFJaSNXy_jc-1">
          <mxGeometry x="398" y="327.1826114649682" width="130" height="34.87261146496815" as="geometry" />
        </mxCell>
        <mxCell id="RVDdO5qM1YFJaSNXy_jc-54" value="" style="shape=doubleArrow;whiteSpace=wrap;html=1;fontFamily=Times New Roman;fontSize=11;rotation=90;" vertex="1" parent="RVDdO5qM1YFJaSNXy_jc-1">
          <mxGeometry x="448.5" y="680.6514012738855" width="46" height="34.87261146496815" as="geometry" />
        </mxCell>
        <mxCell id="RVDdO5qM1YFJaSNXy_jc-55" value="" style="shape=doubleArrow;whiteSpace=wrap;html=1;fontFamily=Times New Roman;fontSize=11;rotation=90;" vertex="1" parent="RVDdO5qM1YFJaSNXy_jc-1">
          <mxGeometry x="451.5" y="380.0727388535032" width="43" height="34.87261146496815" as="geometry" />
        </mxCell>
        <mxCell id="RVDdO5qM1YFJaSNXy_jc-56" value="" style="rounded=0;whiteSpace=wrap;html=1;strokeWidth=0.4;" vertex="1" parent="RVDdO5qM1YFJaSNXy_jc-1">
          <mxGeometry x="343" y="437.61254777070064" width="165" height="220.859872611465" as="geometry" />
        </mxCell>
        <mxCell id="RVDdO5qM1YFJaSNXy_jc-57" value="" style="rounded=0;whiteSpace=wrap;html=1;strokeWidth=0.4;" vertex="1" parent="RVDdO5qM1YFJaSNXy_jc-1">
          <mxGeometry x="513.66" y="437.61254777070064" width="165" height="220.859872611465" as="geometry" />
        </mxCell>
        <mxCell id="RVDdO5qM1YFJaSNXy_jc-58" value="Cung cấp danh mục dùng chung" style="text;html=1;strokeColor=#36393d;fillColor=#cce5ff;align=center;verticalAlign=middle;whiteSpace=wrap;rounded=0;fontStyle=0" vertex="1" parent="RVDdO5qM1YFJaSNXy_jc-1">
          <mxGeometry x="348" y="475.97242038216564" width="150" height="34.87261146496815" as="geometry" />
        </mxCell>
        <mxCell id="RVDdO5qM1YFJaSNXy_jc-59" value="Cung cấp APIs tích hợp dữ liệu hồ sơ theo chuẩn" style="text;html=1;strokeColor=#36393d;fillColor=#cce5ff;align=center;verticalAlign=middle;whiteSpace=wrap;rounded=0;fontStyle=0" vertex="1" parent="RVDdO5qM1YFJaSNXy_jc-1">
          <mxGeometry x="348" y="523.6316560509554" width="150" height="34.87261146496815" as="geometry" />
        </mxCell>
        <mxCell id="RVDdO5qM1YFJaSNXy_jc-60" value="Định danh xác thực đơn vị tích hợp dữ liệu" style="text;html=1;strokeColor=#36393d;fillColor=#cce5ff;align=center;verticalAlign=middle;whiteSpace=wrap;rounded=0;fontStyle=0" vertex="1" parent="RVDdO5qM1YFJaSNXy_jc-1">
          <mxGeometry x="348" y="570.1284713375796" width="150" height="34.87261146496815" as="geometry" />
        </mxCell>
        <mxCell id="RVDdO5qM1YFJaSNXy_jc-61" value="Định danh xác thực đơn vị tích hợp dữ liệu" style="text;html=1;strokeColor=#36393d;fillColor=#cce5ff;align=center;verticalAlign=middle;whiteSpace=wrap;rounded=0;fontStyle=0" vertex="1" parent="RVDdO5qM1YFJaSNXy_jc-1">
          <mxGeometry x="348" y="617.7877070063694" width="150" height="34.87261146496815" as="geometry" />
        </mxCell>
        <mxCell id="RVDdO5qM1YFJaSNXy_jc-62" value="Giám sát dữ liệu đồng bộ, tích hợp" style="text;html=1;strokeColor=#36393d;fillColor=#cce5ff;align=center;verticalAlign=middle;whiteSpace=wrap;rounded=0;fontStyle=0" vertex="1" parent="RVDdO5qM1YFJaSNXy_jc-1">
          <mxGeometry x="521.66" y="475.97242038216564" width="150" height="34.87261146496815" as="geometry" />
        </mxCell>
        <mxCell id="RVDdO5qM1YFJaSNXy_jc-63" value="Quản trị phân quyền đơn vị thực hiện" style="text;html=1;strokeColor=#36393d;fillColor=#cce5ff;align=center;verticalAlign=middle;whiteSpace=wrap;rounded=0;fontStyle=0" vertex="1" parent="RVDdO5qM1YFJaSNXy_jc-1">
          <mxGeometry x="521.66" y="523.6316560509554" width="150" height="34.87261146496815" as="geometry" />
        </mxCell>
        <mxCell id="RVDdO5qM1YFJaSNXy_jc-64" value="Quản lý DL đã tích hợp, nhập lên kho" style="text;html=1;strokeColor=#36393d;fillColor=#cce5ff;align=center;verticalAlign=middle;whiteSpace=wrap;rounded=0;fontStyle=0" vertex="1" parent="RVDdO5qM1YFJaSNXy_jc-1">
          <mxGeometry x="521.66" y="570.1284713375796" width="150" height="34.87261146496815" as="geometry" />
        </mxCell>
        <mxCell id="RVDdO5qM1YFJaSNXy_jc-65" value="Báo cáo kết quả đồng bộ" style="text;html=1;strokeColor=#36393d;fillColor=#cce5ff;align=center;verticalAlign=middle;whiteSpace=wrap;rounded=0;fontStyle=0" vertex="1" parent="RVDdO5qM1YFJaSNXy_jc-1">
          <mxGeometry x="521.66" y="617.7877070063694" width="150" height="34.87261146496815" as="geometry" />
        </mxCell>
        <mxCell id="RVDdO5qM1YFJaSNXy_jc-66" value="Dịch vụ tích hợp" style="text;html=1;strokeColor=#666666;fillColor=#f5f5f5;align=center;verticalAlign=middle;whiteSpace=wrap;rounded=0;fontFamily=Times New Roman;fontSize=13;fontStyle=1;gradientColor=#b3b3b3;" vertex="1" parent="RVDdO5qM1YFJaSNXy_jc-1">
          <mxGeometry x="343" y="437.61254777070064" width="165" height="30.222929936305736" as="geometry" />
        </mxCell>
        <mxCell id="RVDdO5qM1YFJaSNXy_jc-67" value="Dịch vụ quản trị, giám sát" style="text;html=1;strokeColor=#666666;fillColor=#f5f5f5;align=center;verticalAlign=middle;whiteSpace=wrap;rounded=0;fontFamily=Times New Roman;fontSize=13;fontStyle=1;gradientColor=#b3b3b3;" vertex="1" parent="RVDdO5qM1YFJaSNXy_jc-1">
          <mxGeometry x="514" y="437.61254777070064" width="165" height="30.222929936305736" as="geometry" />
        </mxCell>
        <mxCell id="RVDdO5qM1YFJaSNXy_jc-68" value="" style="verticalLabelPosition=bottom;verticalAlign=top;html=1;shape=mxgraph.basic.rect;fillColor2=none;strokeWidth=1;size=20;indent=5;fillColor=none;dashed=1;" vertex="1" parent="RVDdO5qM1YFJaSNXy_jc-1">
          <mxGeometry x="340" y="431.80044585987264" width="343" height="233.64649681528664" as="geometry" />
        </mxCell>
        <mxCell id="RVDdO5qM1YFJaSNXy_jc-69" value="" style="shape=doubleArrow;whiteSpace=wrap;html=1;fontFamily=Times New Roman;fontSize=11;" vertex="1" parent="RVDdO5qM1YFJaSNXy_jc-1">
          <mxGeometry x="300.5" y="534.0934394904459" width="39" height="20.923566878980893" as="geometry" />
        </mxCell>
        <mxCell id="RVDdO5qM1YFJaSNXy_jc-70" style="edgeStyle=orthogonalEdgeStyle;rounded=0;orthogonalLoop=1;jettySize=auto;html=1;entryX=0.25;entryY=0;entryDx=0;entryDy=0;" edge="1" parent="RVDdO5qM1YFJaSNXy_jc-1" source="RVDdO5qM1YFJaSNXy_jc-71" target="RVDdO5qM1YFJaSNXy_jc-17">
          <mxGeometry relative="1" as="geometry" />
        </mxCell>
        <mxCell id="RVDdO5qM1YFJaSNXy_jc-71" value="CBCCVC" style="sketch=0;outlineConnect=0;fontColor=#232F3E;gradientColor=none;fillColor=#232F3D;strokeColor=none;dashed=0;verticalLabelPosition=bottom;verticalAlign=top;align=center;html=1;fontSize=12;fontStyle=0;pointerEvents=1;shape=mxgraph.aws4.user;aspect=fixed;" vertex="1" parent="RVDdO5qM1YFJaSNXy_jc-1">
          <mxGeometry x="259" y="10.004267515923573" width="30" height="30" as="geometry" />
        </mxCell>
        <mxCell id="RVDdO5qM1YFJaSNXy_jc-72" value="Quản lý Quá trình đào tạo, bồi dưỡng" style="text;html=1;strokeColor=#36393d;fillColor=#cce5ff;align=center;verticalAlign=middle;whiteSpace=wrap;rounded=0;fontStyle=0" vertex="1" parent="RVDdO5qM1YFJaSNXy_jc-1">
          <mxGeometry x="398" y="198.153949044586" width="130" height="34.87261146496815" as="geometry" />
        </mxCell>
        <mxCell id="RVDdO5qM1YFJaSNXy_jc-73" value="Cập nhật dữ liệu từ file Excel" style="text;html=1;strokeColor=#36393d;fillColor=#cce5ff;align=center;verticalAlign=middle;whiteSpace=wrap;rounded=0;fontStyle=0" vertex="1" parent="RVDdO5qM1YFJaSNXy_jc-1">
          <mxGeometry x="538" y="155.73000000000002" width="142" height="34.87" as="geometry" />
        </mxCell>
        <mxCell id="RVDdO5qM1YFJaSNXy_jc-74" value="Cập nhật dữ liệu từ file XML" style="text;html=1;strokeColor=#36393d;fillColor=#cce5ff;align=center;verticalAlign=middle;whiteSpace=wrap;rounded=0;fontStyle=0" vertex="1" parent="RVDdO5qM1YFJaSNXy_jc-1">
          <mxGeometry x="538" y="240.58" width="142" height="34.87" as="geometry" />
        </mxCell>
        <mxCell id="RVDdO5qM1YFJaSNXy_jc-75" value="Báo cáo, lý lịch CBCCVC" style="text;html=1;strokeColor=#36393d;fillColor=#cce5ff;align=center;verticalAlign=middle;whiteSpace=wrap;rounded=0;fontStyle=0" vertex="1" parent="RVDdO5qM1YFJaSNXy_jc-1">
          <mxGeometry x="538" y="282.43" width="142" height="34.87" as="geometry" />
        </mxCell>
        <mxCell id="RVDdO5qM1YFJaSNXy_jc-76" value="QL Danh mục dùng chung" style="text;html=1;strokeColor=#36393d;fillColor=#cce5ff;align=center;verticalAlign=middle;whiteSpace=wrap;rounded=0;fontStyle=0" vertex="1" parent="RVDdO5qM1YFJaSNXy_jc-1">
          <mxGeometry x="538" y="326.6" width="142" height="34.87" as="geometry" />
        </mxCell>
        <mxCell id="RVDdO5qM1YFJaSNXy_jc-77" value="Cập nhật dữ liệu từ file CSV" style="text;html=1;strokeColor=#36393d;fillColor=#cce5ff;align=center;verticalAlign=middle;whiteSpace=wrap;rounded=0;fontStyle=0" vertex="1" parent="RVDdO5qM1YFJaSNXy_jc-1">
          <mxGeometry x="538" y="197.57" width="142" height="34.87" as="geometry" />
        </mxCell>
        <mxCell id="RVDdO5qM1YFJaSNXy_jc-78" value="" style="shape=image;html=1;verticalAlign=top;verticalLabelPosition=bottom;labelBackgroundColor=#ffffff;imageAspect=0;aspect=fixed;image=https://cdn1.iconfinder.com/data/icons/hawcons/32/699265-icon-37-file-xml-128.png;dashed=1;strokeWidth=0.4;fillColor=none;" vertex="1" parent="RVDdO5qM1YFJaSNXy_jc-1">
          <mxGeometry x="153" y="489.41" width="20" height="20" as="geometry" />
        </mxCell>
      </root>
    </mxGraphModel>
  </diagram>
  <diagram id="6gQKOamlQuEtwaeVRfU2" name="Thiet ke PM3 CCVC">
    <mxGraphModel dx="760" dy="401" grid="1" gridSize="10" guides="1" tooltips="1" connect="1" arrows="1" fold="1" page="1" pageScale="1" pageWidth="827" pageHeight="1169" math="0" shadow="0">
      <root>
        <mxCell id="0" />
        <mxCell id="1" parent="0" />
        <mxCell id="taQMwDj_AXwAS8bYE3Cb-1" value="" style="group" connectable="0" vertex="1" parent="1">
          <mxGeometry x="10" y="10.004267515923559" width="960" height="654.8057324840764" as="geometry" />
        </mxCell>
        <mxCell id="taQMwDj_AXwAS8bYE3Cb-2" value="" style="rounded=0;whiteSpace=wrap;html=1;fillColor=#f9f7ed;strokeColor=#36393d;" vertex="1" parent="taQMwDj_AXwAS8bYE3Cb-1">
          <mxGeometry x="710" y="121.98573248407644" width="250" height="376.82" as="geometry" />
        </mxCell>
        <mxCell id="taQMwDj_AXwAS8bYE3Cb-3" value="" style="shape=image;html=1;verticalAlign=top;verticalLabelPosition=bottom;labelBackgroundColor=#ffffff;imageAspect=0;aspect=fixed;image=https://cdn1.iconfinder.com/data/icons/hawcons/32/699265-icon-37-file-xml-128.png;dashed=1;strokeWidth=0.4;fillColor=none;" vertex="1" parent="taQMwDj_AXwAS8bYE3Cb-1">
          <mxGeometry x="151" y="252.45573248407646" width="25" height="25" as="geometry" />
        </mxCell>
        <mxCell id="taQMwDj_AXwAS8bYE3Cb-4" value="Quản trị hệ thống" style="sketch=0;outlineConnect=0;fontColor=#232F3E;gradientColor=none;fillColor=#232F3D;strokeColor=none;dashed=0;verticalLabelPosition=bottom;verticalAlign=top;align=center;html=1;fontSize=12;fontStyle=0;aspect=fixed;pointerEvents=1;shape=mxgraph.aws4.user;" vertex="1" parent="taQMwDj_AXwAS8bYE3Cb-1">
          <mxGeometry x="181" y="409.5057324840764" width="29" height="29" as="geometry" />
        </mxCell>
        <mxCell id="taQMwDj_AXwAS8bYE3Cb-5" style="edgeStyle=orthogonalEdgeStyle;rounded=0;orthogonalLoop=1;jettySize=auto;html=1;fontSize=10;" edge="1" parent="taQMwDj_AXwAS8bYE3Cb-1" source="taQMwDj_AXwAS8bYE3Cb-6" target="taQMwDj_AXwAS8bYE3Cb-2">
          <mxGeometry relative="1" as="geometry" />
        </mxCell>
        <mxCell id="taQMwDj_AXwAS8bYE3Cb-6" value="Lãnh đạo BNV" style="sketch=0;outlineConnect=0;fontColor=#232F3E;gradientColor=none;fillColor=#232F3D;strokeColor=none;dashed=0;verticalLabelPosition=bottom;verticalAlign=top;align=center;html=1;fontSize=12;fontStyle=0;aspect=fixed;pointerEvents=1;shape=mxgraph.aws4.user;" vertex="1" parent="taQMwDj_AXwAS8bYE3Cb-1">
          <mxGeometry x="770" y="26" width="29" height="29" as="geometry" />
        </mxCell>
        <mxCell id="taQMwDj_AXwAS8bYE3Cb-7" value="" style="rounded=0;whiteSpace=wrap;html=1;fillColor=#eeeeee;strokeColor=#36393d;" vertex="1" parent="taQMwDj_AXwAS8bYE3Cb-1">
          <mxGeometry y="121.98" width="150" height="378.02" as="geometry" />
        </mxCell>
        <mxCell id="taQMwDj_AXwAS8bYE3Cb-8" value="" style="group" connectable="0" vertex="1" parent="taQMwDj_AXwAS8bYE3Cb-1">
          <mxGeometry x="30" y="242.8761146496816" width="100" height="81.36942675159236" as="geometry" />
        </mxCell>
        <mxCell id="taQMwDj_AXwAS8bYE3Cb-9" value="" style="shape=datastore;whiteSpace=wrap;html=1;fillColor=#f5f5f5;strokeColor=#666666;gradientColor=#b3b3b3;" vertex="1" parent="taQMwDj_AXwAS8bYE3Cb-8">
          <mxGeometry x="-5" y="-10.17" width="100" height="61.027070063694275" as="geometry" />
        </mxCell>
        <mxCell id="taQMwDj_AXwAS8bYE3Cb-10" value="CSDL TCBMBC Ban TCTW&amp;nbsp;" style="text;html=1;strokeColor=none;fillColor=none;align=center;verticalAlign=middle;whiteSpace=wrap;rounded=0;" vertex="1" parent="taQMwDj_AXwAS8bYE3Cb-8">
          <mxGeometry x="-0.8333333333333286" y="23.513535031847137" width="91.66666666666667" height="20.34235668789809" as="geometry" />
        </mxCell>
        <mxCell id="taQMwDj_AXwAS8bYE3Cb-11" value="" style="group" connectable="0" vertex="1" parent="taQMwDj_AXwAS8bYE3Cb-1">
          <mxGeometry x="25" y="142.90796178343953" width="100" height="81.36942675159236" as="geometry" />
        </mxCell>
        <mxCell id="taQMwDj_AXwAS8bYE3Cb-12" value="" style="shape=datastore;whiteSpace=wrap;html=1;fillColor=#f5f5f5;strokeColor=#666666;gradientColor=#b3b3b3;" vertex="1" parent="taQMwDj_AXwAS8bYE3Cb-11">
          <mxGeometry width="100" height="61.027070063694275" as="geometry" />
        </mxCell>
        <mxCell id="taQMwDj_AXwAS8bYE3Cb-13" value="CSDLQG về Dân cư" style="text;html=1;strokeColor=none;fillColor=none;align=center;verticalAlign=middle;whiteSpace=wrap;rounded=0;" vertex="1" parent="taQMwDj_AXwAS8bYE3Cb-11">
          <mxGeometry x="4.166666666666671" y="30.513535031847137" width="91.66666666666667" height="20.34235668789809" as="geometry" />
        </mxCell>
        <mxCell id="taQMwDj_AXwAS8bYE3Cb-14" value="Cán bộ tổ chức BNĐP" style="sketch=0;outlineConnect=0;fontColor=#232F3E;gradientColor=none;fillColor=#232F3D;strokeColor=none;dashed=0;verticalLabelPosition=bottom;verticalAlign=top;align=center;html=1;fontSize=12;fontStyle=0;aspect=fixed;pointerEvents=1;shape=mxgraph.aws4.user;" vertex="1" parent="taQMwDj_AXwAS8bYE3Cb-1">
          <mxGeometry x="529" y="25" width="30" height="30" as="geometry" />
        </mxCell>
        <mxCell id="taQMwDj_AXwAS8bYE3Cb-15" style="edgeStyle=orthogonalEdgeStyle;rounded=0;orthogonalLoop=1;jettySize=auto;html=1;entryX=0.59;entryY=-0.008;entryDx=0;entryDy=0;entryPerimeter=0;fontSize=10;" edge="1" parent="taQMwDj_AXwAS8bYE3Cb-1" source="taQMwDj_AXwAS8bYE3Cb-16" target="taQMwDj_AXwAS8bYE3Cb-2">
          <mxGeometry relative="1" as="geometry" />
        </mxCell>
        <mxCell id="taQMwDj_AXwAS8bYE3Cb-16" value="Lãnh đạo BNĐP" style="sketch=0;outlineConnect=0;fontColor=#232F3E;gradientColor=none;fillColor=#232F3D;strokeColor=none;dashed=0;verticalLabelPosition=bottom;verticalAlign=top;align=center;html=1;fontSize=12;fontStyle=0;aspect=fixed;pointerEvents=1;shape=mxgraph.aws4.user;" vertex="1" parent="taQMwDj_AXwAS8bYE3Cb-1">
          <mxGeometry x="883.5" y="25" width="30" height="30" as="geometry" />
        </mxCell>
        <mxCell id="taQMwDj_AXwAS8bYE3Cb-17" value="" style="rounded=0;whiteSpace=wrap;html=1;fillColor=#f9f7ed;strokeColor=#36393d;" vertex="1" parent="taQMwDj_AXwAS8bYE3Cb-1">
          <mxGeometry x="250" y="121.98573248407644" width="440" height="376.82" as="geometry" />
        </mxCell>
        <mxCell id="taQMwDj_AXwAS8bYE3Cb-18" style="edgeStyle=orthogonalEdgeStyle;rounded=0;orthogonalLoop=1;jettySize=auto;html=1;entryX=0.611;entryY=-0.001;entryDx=0;entryDy=0;entryPerimeter=0;fontSize=10;" edge="1" parent="taQMwDj_AXwAS8bYE3Cb-1" source="taQMwDj_AXwAS8bYE3Cb-14" target="taQMwDj_AXwAS8bYE3Cb-17">
          <mxGeometry relative="1" as="geometry" />
        </mxCell>
        <mxCell id="taQMwDj_AXwAS8bYE3Cb-19" value="Hệ thống khác" style="text;html=1;strokeColor=#666666;fillColor=#f5f5f5;align=center;verticalAlign=middle;whiteSpace=wrap;rounded=0;fontFamily=Times New Roman;fontSize=13;fontStyle=1;gradientColor=#b3b3b3;" vertex="1" parent="taQMwDj_AXwAS8bYE3Cb-1">
          <mxGeometry y="479.1748407643313" width="150" height="20.34235668789809" as="geometry" />
        </mxCell>
        <mxCell id="taQMwDj_AXwAS8bYE3Cb-20" value="" style="shape=cylinder3;whiteSpace=wrap;html=1;boundedLbl=1;backgroundOutline=1;size=5;fontFamily=Times New Roman;fontSize=13;fillColor=#ffe6cc;strokeColor=#d79b00;" vertex="1" parent="taQMwDj_AXwAS8bYE3Cb-1">
          <mxGeometry x="181" y="121.98439490445868" width="40" height="244.1082802547771" as="geometry" />
        </mxCell>
        <mxCell id="taQMwDj_AXwAS8bYE3Cb-21" style="edgeStyle=orthogonalEdgeStyle;rounded=0;orthogonalLoop=1;jettySize=auto;html=1;exitX=1;exitY=0.5;exitDx=0;exitDy=0;entryX=0.025;entryY=0.352;entryDx=0;entryDy=0;entryPerimeter=0;fontFamily=Times New Roman;fontSize=13;" edge="1" parent="taQMwDj_AXwAS8bYE3Cb-1" source="taQMwDj_AXwAS8bYE3Cb-12" target="taQMwDj_AXwAS8bYE3Cb-20">
          <mxGeometry relative="1" as="geometry" />
        </mxCell>
        <mxCell id="taQMwDj_AXwAS8bYE3Cb-22" style="edgeStyle=orthogonalEdgeStyle;rounded=0;orthogonalLoop=1;jettySize=auto;html=1;exitX=1;exitY=0.5;exitDx=0;exitDy=0;entryX=0;entryY=0.538;entryDx=0;entryDy=0;entryPerimeter=0;fontFamily=Times New Roman;fontSize=13;" edge="1" parent="taQMwDj_AXwAS8bYE3Cb-1" source="taQMwDj_AXwAS8bYE3Cb-9" target="taQMwDj_AXwAS8bYE3Cb-20">
          <mxGeometry relative="1" as="geometry" />
        </mxCell>
        <mxCell id="taQMwDj_AXwAS8bYE3Cb-23" value="&lt;div&gt;NỀN TẢNG TÍCH HỢP DỮ LIỆU &lt;br&gt;&lt;/div&gt;&lt;div&gt;QUỐC GIA&lt;/div&gt;" style="text;html=1;strokeColor=none;fillColor=none;align=center;verticalAlign=middle;whiteSpace=wrap;rounded=0;rotation=-90;fontSize=11;fontStyle=0" vertex="1" parent="taQMwDj_AXwAS8bYE3Cb-1">
          <mxGeometry x="102.25" y="239.67945859872617" width="199.5" height="20.34235668789809" as="geometry" />
        </mxCell>
        <mxCell id="taQMwDj_AXwAS8bYE3Cb-24" value="" style="shape=cylinder3;whiteSpace=wrap;html=1;boundedLbl=1;backgroundOutline=1;size=5;fontFamily=Times New Roman;fontSize=13;fillColor=#dae8fc;strokeColor=#6c8ebf;" vertex="1" parent="taQMwDj_AXwAS8bYE3Cb-1">
          <mxGeometry x="260.75" y="132.4461783439491" width="40" height="233.64649681528664" as="geometry" />
        </mxCell>
        <mxCell id="taQMwDj_AXwAS8bYE3Cb-25" value="&lt;div&gt;NỀN TẢNG TÍCH HỢP DỮ LIỆU &lt;br&gt;&lt;/div&gt;&lt;div&gt;BỘ NỘI VỤ (LGSP)&lt;br&gt;&lt;/div&gt;" style="text;html=1;strokeColor=none;fillColor=none;align=center;verticalAlign=middle;whiteSpace=wrap;rounded=0;rotation=-90;fontSize=11;fontStyle=0" vertex="1" parent="taQMwDj_AXwAS8bYE3Cb-1">
          <mxGeometry x="181" y="239.67945859872617" width="199.5" height="20.34235668789809" as="geometry" />
        </mxCell>
        <mxCell id="taQMwDj_AXwAS8bYE3Cb-26" value="" style="shape=doubleArrow;whiteSpace=wrap;html=1;fontFamily=Times New Roman;fontSize=11;" vertex="1" parent="taQMwDj_AXwAS8bYE3Cb-1">
          <mxGeometry x="221" y="234.73917197452238" width="39" height="20.923566878980893" as="geometry" />
        </mxCell>
        <mxCell id="taQMwDj_AXwAS8bYE3Cb-27" value="" style="rounded=0;whiteSpace=wrap;html=1;fillColor=#cce5ff;strokeColor=#36393d;" vertex="1" parent="taQMwDj_AXwAS8bYE3Cb-1">
          <mxGeometry x="250" y="546.8857324840765" width="440" height="107.92" as="geometry" />
        </mxCell>
        <mxCell id="taQMwDj_AXwAS8bYE3Cb-28" value="" style="group;" connectable="0" vertex="1" parent="taQMwDj_AXwAS8bYE3Cb-1">
          <mxGeometry x="274" y="567.8121019108281" width="98" height="69.7452229299363" as="geometry" />
        </mxCell>
        <mxCell id="taQMwDj_AXwAS8bYE3Cb-29" value="" style="shape=datastore;whiteSpace=wrap;html=1;fontFamily=Times New Roman;fontSize=11;fillColor=#eeeeee;strokeColor=#36393d;" vertex="1" parent="taQMwDj_AXwAS8bYE3Cb-28">
          <mxGeometry x="0.0035636363636331217" width="96.2181818181818" height="69.7452229299363" as="geometry" />
        </mxCell>
        <mxCell id="taQMwDj_AXwAS8bYE3Cb-30" value="&lt;div&gt;DL thông tin &lt;br&gt;&lt;/div&gt;&lt;div&gt;CBCCVC&lt;br&gt;&lt;/div&gt;" style="text;html=1;strokeColor=none;fillColor=none;align=center;verticalAlign=middle;whiteSpace=wrap;rounded=0;" vertex="1" parent="taQMwDj_AXwAS8bYE3Cb-28">
          <mxGeometry y="35.163216560509554" width="97.99999999999999" height="20.34235668789809" as="geometry" />
        </mxCell>
        <mxCell id="taQMwDj_AXwAS8bYE3Cb-31" value="" style="group;" connectable="0" vertex="1" parent="taQMwDj_AXwAS8bYE3Cb-1">
          <mxGeometry x="423" y="567.8121019108281" width="100" height="69.7452229299363" as="geometry" />
        </mxCell>
        <mxCell id="taQMwDj_AXwAS8bYE3Cb-32" value="" style="shape=datastore;whiteSpace=wrap;html=1;fontFamily=Times New Roman;fontSize=11;fillColor=#eeeeee;strokeColor=#36393d;" vertex="1" parent="taQMwDj_AXwAS8bYE3Cb-31">
          <mxGeometry x="0.0036363636363603282" width="98.18181818181816" height="69.7452229299363" as="geometry" />
        </mxCell>
        <mxCell id="taQMwDj_AXwAS8bYE3Cb-33" value="&lt;div&gt;DL tổ chức bộ máy và biên chế&lt;br&gt;&lt;/div&gt;" style="text;html=1;strokeColor=none;fillColor=none;align=center;verticalAlign=middle;whiteSpace=wrap;rounded=0;" vertex="1" parent="taQMwDj_AXwAS8bYE3Cb-31">
          <mxGeometry y="35.163216560509554" width="99.99999999999997" height="20.34235668789809" as="geometry" />
        </mxCell>
        <mxCell id="taQMwDj_AXwAS8bYE3Cb-34" value="" style="group;" connectable="0" vertex="1" parent="taQMwDj_AXwAS8bYE3Cb-1">
          <mxGeometry x="572" y="567.8121019108281" width="101.66" height="69.7452229299363" as="geometry" />
        </mxCell>
        <mxCell id="taQMwDj_AXwAS8bYE3Cb-35" value="" style="shape=datastore;whiteSpace=wrap;html=1;fontFamily=Times New Roman;fontSize=11;fillColor=#eeeeee;strokeColor=#36393d;" vertex="1" parent="taQMwDj_AXwAS8bYE3Cb-34">
          <mxGeometry x="0.0036967272727239093" width="99.81163636363632" height="69.7452229299363" as="geometry" />
        </mxCell>
        <mxCell id="taQMwDj_AXwAS8bYE3Cb-36" value="&lt;div&gt;Sơ yếu lý lịch&lt;/div&gt;&lt;div&gt;CBCCVC điện tử&lt;br&gt;&lt;/div&gt;" style="text;html=1;strokeColor=none;fillColor=none;align=center;verticalAlign=middle;whiteSpace=wrap;rounded=0;" vertex="1" parent="taQMwDj_AXwAS8bYE3Cb-34">
          <mxGeometry y="35.163216560509554" width="101.65999999999997" height="20.34235668789809" as="geometry" />
        </mxCell>
        <mxCell id="taQMwDj_AXwAS8bYE3Cb-37" value="" style="shape=doubleArrow;whiteSpace=wrap;html=1;fontFamily=Times New Roman;fontSize=11;rotation=90;" vertex="1" parent="taQMwDj_AXwAS8bYE3Cb-1">
          <mxGeometry x="448.91" y="505.6471337579619" width="46" height="34.87261146496815" as="geometry" />
        </mxCell>
        <mxCell id="taQMwDj_AXwAS8bYE3Cb-38" value="" style="rounded=0;whiteSpace=wrap;html=1;strokeWidth=0.4;" vertex="1" parent="taQMwDj_AXwAS8bYE3Cb-1">
          <mxGeometry x="343" y="138.2582802547771" width="165" height="220.859872611465" as="geometry" />
        </mxCell>
        <mxCell id="taQMwDj_AXwAS8bYE3Cb-39" value="" style="rounded=0;whiteSpace=wrap;html=1;strokeWidth=0.4;" vertex="1" parent="taQMwDj_AXwAS8bYE3Cb-1">
          <mxGeometry x="513.66" y="138.2582802547771" width="165" height="220.859872611465" as="geometry" />
        </mxCell>
        <mxCell id="taQMwDj_AXwAS8bYE3Cb-40" value="Chia sẻ thông tin hồ sơ" style="text;html=1;strokeColor=#36393d;fillColor=#cce5ff;align=center;verticalAlign=middle;whiteSpace=wrap;rounded=0;fontStyle=0" vertex="1" parent="taQMwDj_AXwAS8bYE3Cb-1">
          <mxGeometry x="348" y="176.6181528662421" width="150" height="34.87261146496815" as="geometry" />
        </mxCell>
        <mxCell id="taQMwDj_AXwAS8bYE3Cb-41" value="Chia sẻ dữ liệu nghành" style="text;html=1;strokeColor=#36393d;fillColor=#cce5ff;align=center;verticalAlign=middle;whiteSpace=wrap;rounded=0;fontStyle=0" vertex="1" parent="taQMwDj_AXwAS8bYE3Cb-1">
          <mxGeometry x="348" y="224.2773885350319" width="150" height="34.87261146496815" as="geometry" />
        </mxCell>
        <mxCell id="taQMwDj_AXwAS8bYE3Cb-42" value="Dịch vụ trích lục, sao lưu hồ sơ điện tử" style="text;html=1;strokeColor=#36393d;fillColor=#cce5ff;align=center;verticalAlign=middle;whiteSpace=wrap;rounded=0;fontStyle=0" vertex="1" parent="taQMwDj_AXwAS8bYE3Cb-1">
          <mxGeometry x="348" y="270.7742038216561" width="150" height="34.87261146496815" as="geometry" />
        </mxCell>
        <mxCell id="taQMwDj_AXwAS8bYE3Cb-43" value="Báo cáo, Dashboard" style="text;html=1;strokeColor=#36393d;fillColor=#cce5ff;align=center;verticalAlign=middle;whiteSpace=wrap;rounded=0;fontStyle=0" vertex="1" parent="taQMwDj_AXwAS8bYE3Cb-1">
          <mxGeometry x="348" y="318.43343949044595" width="150" height="34.87261146496815" as="geometry" />
        </mxCell>
        <mxCell id="taQMwDj_AXwAS8bYE3Cb-44" value="Quản lý hồ sơ CBCCVC" style="text;html=1;strokeColor=#36393d;fillColor=#cce5ff;align=center;verticalAlign=middle;whiteSpace=wrap;rounded=0;fontStyle=0" vertex="1" parent="taQMwDj_AXwAS8bYE3Cb-1">
          <mxGeometry x="521.66" y="176.6181528662421" width="150" height="34.87261146496815" as="geometry" />
        </mxCell>
        <mxCell id="taQMwDj_AXwAS8bYE3Cb-45" value="Tra cứu hồ sơ" style="text;html=1;strokeColor=#36393d;fillColor=#cce5ff;align=center;verticalAlign=middle;whiteSpace=wrap;rounded=0;fontStyle=0" vertex="1" parent="taQMwDj_AXwAS8bYE3Cb-1">
          <mxGeometry x="521.66" y="224.2773885350319" width="150" height="34.87261146496815" as="geometry" />
        </mxCell>
        <mxCell id="taQMwDj_AXwAS8bYE3Cb-46" value="Quản lý hồ sơ Hạn chế" style="text;html=1;strokeColor=#36393d;fillColor=#cce5ff;align=center;verticalAlign=middle;whiteSpace=wrap;rounded=0;fontStyle=0" vertex="1" parent="taQMwDj_AXwAS8bYE3Cb-1">
          <mxGeometry x="521.66" y="270.7742038216561" width="150" height="34.87261146496815" as="geometry" />
        </mxCell>
        <mxCell id="taQMwDj_AXwAS8bYE3Cb-47" value="Báo cáo, Dashboard" style="text;html=1;strokeColor=#36393d;fillColor=#cce5ff;align=center;verticalAlign=middle;whiteSpace=wrap;rounded=0;fontStyle=0" vertex="1" parent="taQMwDj_AXwAS8bYE3Cb-1">
          <mxGeometry x="521.66" y="318.43343949044595" width="150" height="34.87261146496815" as="geometry" />
        </mxCell>
        <mxCell id="taQMwDj_AXwAS8bYE3Cb-48" value="Chia sẻ, liên thông dữ liệu giữ các cấp, nghành" style="text;html=1;strokeColor=#666666;fillColor=#f5f5f5;align=center;verticalAlign=middle;whiteSpace=wrap;rounded=0;fontFamily=Times New Roman;fontSize=13;fontStyle=1;gradientColor=#b3b3b3;" vertex="1" parent="taQMwDj_AXwAS8bYE3Cb-1">
          <mxGeometry x="343" y="138.2582802547771" width="165" height="30.222929936305736" as="geometry" />
        </mxCell>
        <mxCell id="taQMwDj_AXwAS8bYE3Cb-49" value="Khai thác và Sơ yếu lý lịch điện tử" style="text;html=1;strokeColor=#666666;fillColor=#f5f5f5;align=center;verticalAlign=middle;whiteSpace=wrap;rounded=0;fontFamily=Times New Roman;fontSize=13;fontStyle=1;gradientColor=#b3b3b3;" vertex="1" parent="taQMwDj_AXwAS8bYE3Cb-1">
          <mxGeometry x="514" y="138.2582802547771" width="165" height="30.222929936305736" as="geometry" />
        </mxCell>
        <mxCell id="taQMwDj_AXwAS8bYE3Cb-50" value="" style="shape=doubleArrow;whiteSpace=wrap;html=1;fontFamily=Times New Roman;fontSize=11;" vertex="1" parent="taQMwDj_AXwAS8bYE3Cb-1">
          <mxGeometry x="300.5" y="234.73917197452238" width="39" height="20.923566878980893" as="geometry" />
        </mxCell>
        <mxCell id="taQMwDj_AXwAS8bYE3Cb-51" style="edgeStyle=orthogonalEdgeStyle;rounded=0;orthogonalLoop=1;jettySize=auto;html=1;entryX=0.481;entryY=0.004;entryDx=0;entryDy=0;entryPerimeter=0;fontSize=10;" edge="1" parent="taQMwDj_AXwAS8bYE3Cb-1" source="taQMwDj_AXwAS8bYE3Cb-52" target="taQMwDj_AXwAS8bYE3Cb-17">
          <mxGeometry relative="1" as="geometry" />
        </mxCell>
        <mxCell id="taQMwDj_AXwAS8bYE3Cb-52" value="CBCCVC" style="sketch=0;outlineConnect=0;fontColor=#232F3E;gradientColor=none;fillColor=#232F3D;strokeColor=none;dashed=0;verticalLabelPosition=bottom;verticalAlign=top;align=center;html=1;fontSize=12;fontStyle=0;aspect=fixed;pointerEvents=1;shape=mxgraph.aws4.user;" vertex="1" parent="taQMwDj_AXwAS8bYE3Cb-1">
          <mxGeometry x="408" y="25" width="30" height="30" as="geometry" />
        </mxCell>
        <mxCell id="taQMwDj_AXwAS8bYE3Cb-53" value="" style="shape=image;html=1;verticalAlign=top;verticalLabelPosition=bottom;labelBackgroundColor=#ffffff;imageAspect=0;aspect=fixed;image=https://cdn1.iconfinder.com/data/icons/hawcons/32/699265-icon-37-file-xml-128.png;dashed=1;strokeWidth=0.4;fillColor=none;" vertex="1" parent="taQMwDj_AXwAS8bYE3Cb-1">
          <mxGeometry x="151" y="186.0557324840765" width="25" height="25" as="geometry" />
        </mxCell>
        <mxCell id="taQMwDj_AXwAS8bYE3Cb-54" value="" style="rounded=0;whiteSpace=wrap;html=1;fillColor=#eeeeee;strokeColor=#36393d;" vertex="1" parent="taQMwDj_AXwAS8bYE3Cb-1">
          <mxGeometry x="343" y="365.34573248407645" width="336" height="116.75" as="geometry" />
        </mxCell>
        <mxCell id="taQMwDj_AXwAS8bYE3Cb-55" value="&lt;div&gt;Quản trị và vận hành hệ thống CBCCVC&lt;/div&gt;" style="text;html=1;strokeColor=#666666;fillColor=#f5f5f5;align=center;verticalAlign=middle;whiteSpace=wrap;rounded=0;fontFamily=Times New Roman;fontSize=13;fontStyle=1;gradientColor=#b3b3b3;" vertex="1" parent="taQMwDj_AXwAS8bYE3Cb-1">
          <mxGeometry x="343" y="365.09573248407645" width="336" height="25.45" as="geometry" />
        </mxCell>
        <mxCell id="taQMwDj_AXwAS8bYE3Cb-56" value="&lt;div&gt;Quản lý tổ chức, biên chế&lt;/div&gt;" style="text;html=1;strokeColor=#36393d;fillColor=#cce5ff;align=center;verticalAlign=middle;whiteSpace=wrap;rounded=0;fontStyle=0" vertex="1" parent="taQMwDj_AXwAS8bYE3Cb-1">
          <mxGeometry x="347" y="395.6425477707006" width="100" height="34.87261146496815" as="geometry" />
        </mxCell>
        <mxCell id="taQMwDj_AXwAS8bYE3Cb-57" value="Quản lý danh mục dùng chung" style="text;html=1;strokeColor=#36393d;fillColor=#cce5ff;align=center;verticalAlign=middle;whiteSpace=wrap;rounded=0;fontStyle=0" vertex="1" parent="taQMwDj_AXwAS8bYE3Cb-1">
          <mxGeometry x="347" y="437.4896815286624" width="100" height="34.87261146496815" as="geometry" />
        </mxCell>
        <mxCell id="taQMwDj_AXwAS8bYE3Cb-58" value="Quản lý APIs" style="text;html=1;strokeColor=#36393d;fillColor=#cce5ff;align=center;verticalAlign=middle;whiteSpace=wrap;rounded=0;fontStyle=0" vertex="1" parent="taQMwDj_AXwAS8bYE3Cb-1">
          <mxGeometry x="459" y="395.80573248407643" width="100" height="34.87261146496815" as="geometry" />
        </mxCell>
        <mxCell id="taQMwDj_AXwAS8bYE3Cb-59" value="Giám sát hoạt động hệ thống" style="text;html=1;strokeColor=#36393d;fillColor=#cce5ff;align=center;verticalAlign=middle;whiteSpace=wrap;rounded=0;fontStyle=0" vertex="1" parent="taQMwDj_AXwAS8bYE3Cb-1">
          <mxGeometry x="459" y="437.4896815286624" width="100" height="34.87261146496815" as="geometry" />
        </mxCell>
        <mxCell id="taQMwDj_AXwAS8bYE3Cb-60" value="Quản lý người dùng, phân quyền" style="text;html=1;strokeColor=#36393d;fillColor=#cce5ff;align=center;verticalAlign=middle;whiteSpace=wrap;rounded=0;fontStyle=0" vertex="1" parent="taQMwDj_AXwAS8bYE3Cb-1">
          <mxGeometry x="571.66" y="395.6425477707006" width="100" height="34.87261146496815" as="geometry" />
        </mxCell>
        <mxCell id="taQMwDj_AXwAS8bYE3Cb-61" value="Cấu hình hệ thống" style="text;html=1;strokeColor=#36393d;fillColor=#cce5ff;align=center;verticalAlign=middle;whiteSpace=wrap;rounded=0;fontStyle=0" vertex="1" parent="taQMwDj_AXwAS8bYE3Cb-1">
          <mxGeometry x="571.66" y="437.4896815286624" width="100" height="34.87261146496815" as="geometry" />
        </mxCell>
        <mxCell id="taQMwDj_AXwAS8bYE3Cb-62" style="edgeStyle=orthogonalEdgeStyle;rounded=0;orthogonalLoop=1;jettySize=auto;html=1;" edge="1" parent="taQMwDj_AXwAS8bYE3Cb-1" source="taQMwDj_AXwAS8bYE3Cb-4" target="taQMwDj_AXwAS8bYE3Cb-54">
          <mxGeometry relative="1" as="geometry" />
        </mxCell>
        <mxCell id="taQMwDj_AXwAS8bYE3Cb-63" value="" style="rounded=0;whiteSpace=wrap;html=1;fillColor=#eeeeee;strokeColor=#36393d;flipH=1;flipV=1;" vertex="1" parent="taQMwDj_AXwAS8bYE3Cb-1">
          <mxGeometry x="765" y="127.98573248407644" width="185" height="86" as="geometry" />
        </mxCell>
        <mxCell id="taQMwDj_AXwAS8bYE3Cb-64" value="" style="rounded=0;whiteSpace=wrap;html=1;fillColor=#eeeeee;strokeColor=#36393d;flipH=1;flipV=1;" vertex="1" parent="taQMwDj_AXwAS8bYE3Cb-1">
          <mxGeometry x="765" y="220.80573248407643" width="185" height="86" as="geometry" />
        </mxCell>
        <mxCell id="taQMwDj_AXwAS8bYE3Cb-65" value="" style="rounded=0;whiteSpace=wrap;html=1;fillColor=#eeeeee;strokeColor=#36393d;flipH=1;flipV=1;" vertex="1" parent="taQMwDj_AXwAS8bYE3Cb-1">
          <mxGeometry x="765" y="314.80573248407643" width="185" height="86" as="geometry" />
        </mxCell>
        <mxCell id="taQMwDj_AXwAS8bYE3Cb-66" value="" style="rounded=0;whiteSpace=wrap;html=1;fillColor=#eeeeee;strokeColor=#36393d;flipH=1;flipV=1;" vertex="1" parent="taQMwDj_AXwAS8bYE3Cb-1">
          <mxGeometry x="765" y="407.5157324840764" width="185" height="86" as="geometry" />
        </mxCell>
        <mxCell id="taQMwDj_AXwAS8bYE3Cb-67" value="" style="rounded=0;whiteSpace=wrap;html=1;fillColor=#cce5ff;strokeColor=#36393d;" vertex="1" parent="taQMwDj_AXwAS8bYE3Cb-1">
          <mxGeometry x="710" y="546.8857324840765" width="250" height="107.92" as="geometry" />
        </mxCell>
        <mxCell id="taQMwDj_AXwAS8bYE3Cb-68" value="" style="group;" connectable="0" vertex="1" parent="taQMwDj_AXwAS8bYE3Cb-1">
          <mxGeometry x="846" y="558.8057324840764" width="101.66" height="90" as="geometry" />
        </mxCell>
        <mxCell id="taQMwDj_AXwAS8bYE3Cb-69" value="" style="shape=datastore;whiteSpace=wrap;html=1;fontFamily=Times New Roman;fontSize=11;fillColor=#eeeeee;strokeColor=#36393d;" vertex="1" parent="taQMwDj_AXwAS8bYE3Cb-68">
          <mxGeometry x="4.0036967272727235" width="99.81163636363632" height="90.00000000000001" as="geometry" />
        </mxCell>
        <mxCell id="taQMwDj_AXwAS8bYE3Cb-70" value="Dữ liệu phân tích" style="text;html=1;strokeColor=none;fillColor=none;align=center;verticalAlign=middle;whiteSpace=wrap;rounded=0;" vertex="1" parent="taQMwDj_AXwAS8bYE3Cb-68">
          <mxGeometry x="4" y="45.37500000000001" width="101.65999999999997" height="26.250000000000004" as="geometry" />
        </mxCell>
        <mxCell id="taQMwDj_AXwAS8bYE3Cb-71" value="" style="group;" connectable="0" vertex="1" parent="taQMwDj_AXwAS8bYE3Cb-1">
          <mxGeometry x="720" y="548.8057324840764" width="110" height="50" as="geometry" />
        </mxCell>
        <mxCell id="taQMwDj_AXwAS8bYE3Cb-72" value="" style="shape=datastore;whiteSpace=wrap;html=1;fontFamily=Times New Roman;fontSize=11;fillColor=#eeeeee;strokeColor=#36393d;" vertex="1" parent="taQMwDj_AXwAS8bYE3Cb-71">
          <mxGeometry x="0.003999999999996361" width="107.99999999999996" height="50.00000000000001" as="geometry" />
        </mxCell>
        <mxCell id="taQMwDj_AXwAS8bYE3Cb-73" value="DL chia sẻ" style="text;html=1;strokeColor=none;fillColor=none;align=center;verticalAlign=middle;whiteSpace=wrap;rounded=0;" vertex="1" parent="taQMwDj_AXwAS8bYE3Cb-71">
          <mxGeometry y="25.208333333333336" width="109.99999999999997" height="14.583333333333334" as="geometry" />
        </mxCell>
        <mxCell id="taQMwDj_AXwAS8bYE3Cb-74" value="" style="group;" connectable="0" vertex="1" parent="taQMwDj_AXwAS8bYE3Cb-1">
          <mxGeometry x="720" y="601.8057324840764" width="110" height="50" as="geometry" />
        </mxCell>
        <mxCell id="taQMwDj_AXwAS8bYE3Cb-75" value="" style="shape=datastore;whiteSpace=wrap;html=1;fontFamily=Times New Roman;fontSize=11;fillColor=#eeeeee;strokeColor=#36393d;" vertex="1" parent="taQMwDj_AXwAS8bYE3Cb-74">
          <mxGeometry width="110" height="50" as="geometry" />
        </mxCell>
        <mxCell id="taQMwDj_AXwAS8bYE3Cb-76" value="Thống kê, báo cáo" style="text;html=1;strokeColor=none;fillColor=none;align=center;verticalAlign=middle;whiteSpace=wrap;rounded=0;" vertex="1" parent="taQMwDj_AXwAS8bYE3Cb-74">
          <mxGeometry x="4" y="25.208333333333336" width="101.65999999999997" height="14.583333333333334" as="geometry" />
        </mxCell>
        <mxCell id="taQMwDj_AXwAS8bYE3Cb-77" value="" style="shape=doubleArrow;whiteSpace=wrap;html=1;fontFamily=Times New Roman;fontSize=11;rotation=90;" vertex="1" parent="taQMwDj_AXwAS8bYE3Cb-1">
          <mxGeometry x="812.83" y="505.6471337579619" width="46" height="34.87261146496815" as="geometry" />
        </mxCell>
        <mxCell id="taQMwDj_AXwAS8bYE3Cb-78" value="KHAI THÁC" style="text;html=1;strokeColor=#23445d;fillColor=#bac8d3;align=center;verticalAlign=middle;whiteSpace=wrap;rounded=0;fontFamily=Times New Roman;fontSize=10;fontStyle=0;rotation=90;" vertex="1" parent="taQMwDj_AXwAS8bYE3Cb-1">
          <mxGeometry x="723.11" y="150.58573248407646" width="86" height="41.23" as="geometry" />
        </mxCell>
        <mxCell id="taQMwDj_AXwAS8bYE3Cb-79" value="TÍCH HỢP, CHIA SẺ" style="text;html=1;strokeColor=#23445d;fillColor=#bac8d3;align=center;verticalAlign=middle;whiteSpace=wrap;rounded=0;fontFamily=Times New Roman;fontSize=10;fontStyle=0;rotation=90;" vertex="1" parent="taQMwDj_AXwAS8bYE3Cb-1">
          <mxGeometry x="723.11" y="243.07573248407647" width="86" height="41.23" as="geometry" />
        </mxCell>
        <mxCell id="taQMwDj_AXwAS8bYE3Cb-80" value="BÁO CÁO, THỐNG KÊ" style="text;html=1;strokeColor=#23445d;fillColor=#bac8d3;align=center;verticalAlign=middle;whiteSpace=wrap;rounded=0;fontFamily=Times New Roman;fontSize=10;fontStyle=0;rotation=90;" vertex="1" parent="taQMwDj_AXwAS8bYE3Cb-1">
          <mxGeometry x="723.11" y="336.9557324840764" width="86" height="41.23" as="geometry" />
        </mxCell>
        <mxCell id="taQMwDj_AXwAS8bYE3Cb-81" value="VẬN HÀNH, GIÁM SÁT" style="text;html=1;strokeColor=#23445d;fillColor=#bac8d3;align=center;verticalAlign=middle;whiteSpace=wrap;rounded=0;fontFamily=Times New Roman;fontSize=10;fontStyle=0;rotation=90;" vertex="1" parent="taQMwDj_AXwAS8bYE3Cb-1">
          <mxGeometry x="723.11" y="429.54573248407644" width="86" height="41.32" as="geometry" />
        </mxCell>
        <mxCell id="taQMwDj_AXwAS8bYE3Cb-82" value="" style="shape=singleArrow;whiteSpace=wrap;html=1;fontSize=10;strokeColor=#36393d;strokeWidth=0.4;fillColor=#eeeeee;" vertex="1" parent="taQMwDj_AXwAS8bYE3Cb-1">
          <mxGeometry x="682" y="153.80573248407643" width="63" height="30" as="geometry" />
        </mxCell>
        <mxCell id="taQMwDj_AXwAS8bYE3Cb-83" value="" style="shape=singleArrow;whiteSpace=wrap;html=1;fontSize=10;strokeColor=#36393d;strokeWidth=0.4;fillColor=#eeeeee;" vertex="1" parent="taQMwDj_AXwAS8bYE3Cb-1">
          <mxGeometry x="682" y="246.6457324840764" width="63" height="30" as="geometry" />
        </mxCell>
        <mxCell id="taQMwDj_AXwAS8bYE3Cb-84" value="" style="shape=singleArrow;whiteSpace=wrap;html=1;fontSize=10;strokeColor=#36393d;strokeWidth=0.4;fillColor=#eeeeee;" vertex="1" parent="taQMwDj_AXwAS8bYE3Cb-1">
          <mxGeometry x="682" y="340.7557324840764" width="63" height="30" as="geometry" />
        </mxCell>
        <mxCell id="taQMwDj_AXwAS8bYE3Cb-85" value="" style="shape=singleArrow;whiteSpace=wrap;html=1;fontSize=10;strokeColor=#36393d;strokeWidth=0.4;fillColor=#eeeeee;" vertex="1" parent="taQMwDj_AXwAS8bYE3Cb-1">
          <mxGeometry x="682.5" y="433.4657324840764" width="63" height="30" as="geometry" />
        </mxCell>
        <mxCell id="taQMwDj_AXwAS8bYE3Cb-86" value="" style="sketch=0;aspect=fixed;html=1;points=[];align=center;image;fontSize=12;image=img/lib/mscae/Mobile_Engagement.svg;strokeColor=default;strokeWidth=0.4;fillColor=default;" vertex="1" parent="taQMwDj_AXwAS8bYE3Cb-1">
          <mxGeometry x="812" y="132.25573248407642" width="34" height="50" as="geometry" />
        </mxCell>
        <mxCell id="taQMwDj_AXwAS8bYE3Cb-87" value="" style="sketch=0;html=1;aspect=fixed;strokeColor=none;shadow=0;align=center;verticalAlign=top;fillColor=#3B8DF1;shape=mxgraph.gcp2.cloud_computer;fontSize=10;" vertex="1" parent="taQMwDj_AXwAS8bYE3Cb-1">
          <mxGeometry x="890" y="141.25573248407645" width="38.64" height="34" as="geometry" />
        </mxCell>
        <mxCell id="taQMwDj_AXwAS8bYE3Cb-88" value="&lt;div style=&quot;font-size: 10px;&quot;&gt;Nền tảng &lt;br style=&quot;font-size: 10px;&quot;&gt;&lt;/div&gt;&lt;div style=&quot;font-size: 10px;&quot;&gt;di động&lt;br style=&quot;font-size: 10px;&quot;&gt;&lt;/div&gt;" style="text;html=1;strokeColor=none;fillColor=none;align=center;verticalAlign=middle;whiteSpace=wrap;rounded=0;fontSize=10;" vertex="1" parent="taQMwDj_AXwAS8bYE3Cb-1">
          <mxGeometry x="799" y="191.26573248407644" width="63" height="14.58" as="geometry" />
        </mxCell>
        <mxCell id="taQMwDj_AXwAS8bYE3Cb-89" value="&lt;div style=&quot;font-size: 10px;&quot;&gt;Nền tảng &lt;br style=&quot;font-size: 10px;&quot;&gt;&lt;/div&gt;&lt;div style=&quot;font-size: 10px;&quot;&gt;Web&lt;br style=&quot;font-size: 10px;&quot;&gt;&lt;/div&gt;" style="text;html=1;strokeColor=none;fillColor=none;align=center;verticalAlign=middle;whiteSpace=wrap;rounded=0;fontSize=10;" vertex="1" parent="taQMwDj_AXwAS8bYE3Cb-1">
          <mxGeometry x="877.8199999999999" y="191.81573248407642" width="63" height="14.58" as="geometry" />
        </mxCell>
        <mxCell id="taQMwDj_AXwAS8bYE3Cb-90" value="" style="shape=image;html=1;verticalAlign=top;verticalLabelPosition=bottom;labelBackgroundColor=#ffffff;imageAspect=0;aspect=fixed;image=https://cdn1.iconfinder.com/data/icons/hawcons/32/698693-icon-102-document-file-xml-128.png;fontSize=10;strokeColor=default;strokeWidth=0.4;fillColor=default;" vertex="1" parent="taQMwDj_AXwAS8bYE3Cb-1">
          <mxGeometry x="810" y="228.20573248407646" width="38" height="38" as="geometry" />
        </mxCell>
        <mxCell id="taQMwDj_AXwAS8bYE3Cb-91" value="" style="shape=image;html=1;verticalAlign=top;verticalLabelPosition=bottom;labelBackgroundColor=#ffffff;imageAspect=0;aspect=fixed;image=https://cdn1.iconfinder.com/data/icons/bootstrap-vol-3/16/filetype-json-128.png;fontSize=10;strokeColor=default;strokeWidth=0.4;fillColor=default;" vertex="1" parent="taQMwDj_AXwAS8bYE3Cb-1">
          <mxGeometry x="890.64" y="227.03573248407645" width="38" height="38" as="geometry" />
        </mxCell>
        <mxCell id="taQMwDj_AXwAS8bYE3Cb-92" value="Chuẩn XML" style="text;html=1;strokeColor=none;fillColor=none;align=center;verticalAlign=middle;whiteSpace=wrap;rounded=0;fontSize=10;" vertex="1" parent="taQMwDj_AXwAS8bYE3Cb-1">
          <mxGeometry x="793" y="282.91573248407644" width="76.5" height="14.58" as="geometry" />
        </mxCell>
        <mxCell id="taQMwDj_AXwAS8bYE3Cb-93" value="Chuẩn JSON" style="text;html=1;strokeColor=none;fillColor=none;align=center;verticalAlign=middle;whiteSpace=wrap;rounded=0;fontSize=10;" vertex="1" parent="taQMwDj_AXwAS8bYE3Cb-1">
          <mxGeometry x="873.5" y="282.91573248407644" width="76.5" height="14.58" as="geometry" />
        </mxCell>
        <mxCell id="taQMwDj_AXwAS8bYE3Cb-94" value="" style="shape=image;html=1;verticalAlign=top;verticalLabelPosition=bottom;labelBackgroundColor=#ffffff;imageAspect=0;aspect=fixed;image=https://cdn4.iconfinder.com/data/icons/online-marketing-hand-drawn-vol-1/52/business__chart__report__graph__online__pie__linegraph-128.png;fontSize=10;strokeColor=default;strokeWidth=0.4;fillColor=default;flipH=0;flipV=0;" vertex="1" parent="taQMwDj_AXwAS8bYE3Cb-1">
          <mxGeometry x="848" y="327.38573248407647" width="40.83" height="40.83" as="geometry" />
        </mxCell>
        <mxCell id="taQMwDj_AXwAS8bYE3Cb-95" value="" style="shape=image;html=1;verticalAlign=top;verticalLabelPosition=bottom;labelBackgroundColor=#ffffff;imageAspect=0;aspect=fixed;image=https://cdn2.iconfinder.com/data/icons/seo-flat-6/128/37_SEO_Report-128.png;fontSize=10;strokeColor=default;strokeWidth=0.4;fillColor=default;flipH=0;flipV=0;" vertex="1" parent="taQMwDj_AXwAS8bYE3Cb-1">
          <mxGeometry x="785.5" y="317.55573248407643" width="54.25" height="54.25" as="geometry" />
        </mxCell>
        <mxCell id="taQMwDj_AXwAS8bYE3Cb-96" value="" style="shape=image;html=1;verticalAlign=top;verticalLabelPosition=bottom;labelBackgroundColor=#ffffff;imageAspect=0;aspect=fixed;image=https://cdn2.iconfinder.com/data/icons/vivid/48/graph-pie-128.png;fontSize=10;strokeColor=default;strokeWidth=0.4;fillColor=default;flipH=0;flipV=0;" vertex="1" parent="taQMwDj_AXwAS8bYE3Cb-1">
          <mxGeometry x="899.6600000000001" y="322.7557324840764" width="48" height="48" as="geometry" />
        </mxCell>
        <mxCell id="taQMwDj_AXwAS8bYE3Cb-97" value="Báo cáo" style="text;html=1;strokeColor=none;fillColor=none;align=center;verticalAlign=middle;whiteSpace=wrap;rounded=0;fontSize=10;" vertex="1" parent="taQMwDj_AXwAS8bYE3Cb-1">
          <mxGeometry x="782" y="378.1857324840764" width="61" height="14.58" as="geometry" />
        </mxCell>
        <mxCell id="taQMwDj_AXwAS8bYE3Cb-98" value="Thống kê" style="text;html=1;strokeColor=none;fillColor=none;align=center;verticalAlign=middle;whiteSpace=wrap;rounded=0;fontSize=10;" vertex="1" parent="taQMwDj_AXwAS8bYE3Cb-1">
          <mxGeometry x="836.5" y="378.1857324840764" width="60.5" height="14.58" as="geometry" />
        </mxCell>
        <mxCell id="taQMwDj_AXwAS8bYE3Cb-99" value="Biểu đồ" style="text;html=1;strokeColor=none;fillColor=none;align=center;verticalAlign=middle;whiteSpace=wrap;rounded=0;fontSize=10;" vertex="1" parent="taQMwDj_AXwAS8bYE3Cb-1">
          <mxGeometry x="891.64" y="378.1857324840764" width="60.5" height="14.58" as="geometry" />
        </mxCell>
        <mxCell id="taQMwDj_AXwAS8bYE3Cb-100" value="" style="editableCssRules=.*;shape=image;verticalLabelPosition=bottom;labelBackgroundColor=#ffffff;verticalAlign=top;aspect=fixed;imageAspect=0;image=data:image/svg+xml,PHN2ZyB4bWxucz0iaHR0cDovL3d3dy53My5vcmcvMjAwMC9zdmciIHhtbG5zOnY9Imh0dHBzOi8vdmVjdGEuaW8vbmFubyIgd2lkdGg9IjIwIiBoZWlnaHQ9IjEzLjUyOTk5OTczMjk3MTE5MSIgdmlld0JveD0iLTIuOTMyMDk3ODk3ODEyMDE0ZS05IC01LjI1ODAxNTA0MTgzNzk1NmUtMTUgMjAgMTMuNTI5OTk5NzMyOTcxMTkxIj4mI3hhOwk8c3R5bGUgdHlwZT0idGV4dC9jc3MiPiYjeGE7CS5zdDB7ZmlsbDojNDI4NWY0O30mI3hhOwkuc3Qxe2ZpbGw6IzY2OWRmNjt9JiN4YTsJPC9zdHlsZT4mI3hhOwk8cGF0aCBjbGFzcz0ic3QxIiBkPSJNOC44MyAxMC41OGgyLjMzdjIuNjRIOC44M3oiLz4mI3hhOwk8cGF0aCBjbGFzcz0ic3QwIiBkPSJNMTYuNDggOC42MWEuNTYuNTYgMCAwIDEtLjQtLjE3TDEyIDQuMjEgOS4yNiA3LjFhLjU3LjU3IDAgMCAxLS43Ni4wNUw2LjQyIDUuNDdsLTIuMiAyLjkyYS41Ni41NiAwIDAgMS0uNDUuMjJIMHYxLjcxYS43NS43NSAwIDAgMCAuNzQuNzVoMTguNTJhLjc1Ljc1IDAgMCAwIC43NC0uNzVWOC42MXoiLz4mI3hhOwk8cGF0aCBjbGFzcz0ic3QxIiBkPSJNMy41IDcuNWwyLjM4LTMuMTZhLjU1LjU1IDAgMCAxIC4zNy0uMjIuNjMuNjMgMCAwIDEgLjQyLjEybDIuMTIgMS43MiAyLjgtMi45NGEuNTQuNTQgMCAwIDEgLjQtLjE3aDBhLjU0LjU0IDAgMCAxIC40LjE3bDQuMzMgNC40OEgyMFYuNzRhLjc0Ljc0IDAgMCAwLS43NC0uNzRILjc0QS43NC43NCAwIDAgMCAwIC43NHY2LjgxeiIvPiYjeGE7CTxyZWN0IGNsYXNzPSJzdDAiIHg9IjYuNjciIHk9IjEyLjkyIiB3aWR0aD0iNi42NyIgaGVpZ2h0PSIuNjEiIHJ4PSIuMyIvPiYjeGE7PC9zdmc+;fontSize=10;strokeColor=default;strokeWidth=0.4;fillColor=default;" vertex="1" parent="taQMwDj_AXwAS8bYE3Cb-1">
          <mxGeometry x="799" y="415.54573248407644" width="47.51" height="33.26" as="geometry" />
        </mxCell>
        <mxCell id="taQMwDj_AXwAS8bYE3Cb-101" value="" style="verticalLabelPosition=bottom;sketch=0;html=1;fillColor=#A153A0;strokeColor=#ffffff;verticalAlign=top;align=center;points=[[0,0.5,0],[0.125,0.25,0],[0.25,0,0],[0.5,0,0],[0.75,0,0],[0.875,0.25,0],[1,0.5,0],[0.875,0.75,0],[0.75,1,0],[0.5,1,0],[0.125,0.75,0]];pointerEvents=1;shape=mxgraph.cisco_safe.compositeIcon;bgIcon=mxgraph.cisco_safe.design.blank_device;resIcon=mxgraph.cisco_safe.design.monitoring_2;fontSize=10;" vertex="1" parent="taQMwDj_AXwAS8bYE3Cb-1">
          <mxGeometry x="877.82" y="415.54573248407644" width="42.18" height="33.26" as="geometry" />
        </mxCell>
        <mxCell id="taQMwDj_AXwAS8bYE3Cb-102" value="Vận hành" style="text;html=1;strokeColor=none;fillColor=none;align=center;verticalAlign=middle;whiteSpace=wrap;rounded=0;fontSize=10;" vertex="1" parent="taQMwDj_AXwAS8bYE3Cb-1">
          <mxGeometry x="793" y="463.4657324840764" width="61" height="14.58" as="geometry" />
        </mxCell>
        <mxCell id="taQMwDj_AXwAS8bYE3Cb-103" value="Giám sát" style="text;html=1;strokeColor=none;fillColor=none;align=center;verticalAlign=middle;whiteSpace=wrap;rounded=0;fontSize=10;" vertex="1" parent="taQMwDj_AXwAS8bYE3Cb-1">
          <mxGeometry x="869.5" y="463.4657324840764" width="60.5" height="14.58" as="geometry" />
        </mxCell>
        <mxCell id="taQMwDj_AXwAS8bYE3Cb-104" value="CSDL BHXH" style="shape=datastore;whiteSpace=wrap;html=1;fillColor=#f5f5f5;strokeColor=#666666;gradientColor=#b3b3b3;" vertex="1" parent="taQMwDj_AXwAS8bYE3Cb-1">
          <mxGeometry x="25" y="317.7561146496816" width="100" height="61.027070063694275" as="geometry" />
        </mxCell>
        <mxCell id="taQMwDj_AXwAS8bYE3Cb-105" value="CSDL BHXH" style="shape=datastore;whiteSpace=wrap;html=1;fillColor=#f5f5f5;strokeColor=#666666;gradientColor=#b3b3b3;" vertex="1" parent="taQMwDj_AXwAS8bYE3Cb-1">
          <mxGeometry x="25" y="400.8061146496816" width="100" height="61.027070063694275" as="geometry" />
        </mxCell>
        <mxCell id="taQMwDj_AXwAS8bYE3Cb-106" style="edgeStyle=orthogonalEdgeStyle;rounded=0;orthogonalLoop=1;jettySize=auto;html=1;exitX=1;exitY=0.5;exitDx=0;exitDy=0;fontFamily=Times New Roman;fontSize=13;entryX=-0.065;entryY=0.946;entryDx=0;entryDy=0;entryPerimeter=0;" edge="1" parent="taQMwDj_AXwAS8bYE3Cb-1" source="taQMwDj_AXwAS8bYE3Cb-105" target="taQMwDj_AXwAS8bYE3Cb-20">
          <mxGeometry relative="1" as="geometry">
            <mxPoint x="135" y="358.2696496815287" as="sourcePoint" />
            <mxPoint x="190" y="328.80573248407643" as="targetPoint" />
            <Array as="points">
              <mxPoint x="150" y="431" />
              <mxPoint x="150" y="353" />
            </Array>
          </mxGeometry>
        </mxCell>
        <mxCell id="taQMwDj_AXwAS8bYE3Cb-107" style="edgeStyle=orthogonalEdgeStyle;rounded=0;orthogonalLoop=1;jettySize=auto;html=1;exitX=1;exitY=0.5;exitDx=0;exitDy=0;fontFamily=Times New Roman;fontSize=13;" edge="1" parent="1" source="taQMwDj_AXwAS8bYE3Cb-104">
          <mxGeometry relative="1" as="geometry">
            <mxPoint x="145" y="283.22391719745207" as="sourcePoint" />
            <mxPoint x="190" y="328.81" as="targetPoint" />
            <Array as="points">
              <mxPoint x="160" y="358.81" />
              <mxPoint x="160" y="328.81" />
            </Array>
          </mxGeometry>
        </mxCell>
        <mxCell id="taQMwDj_AXwAS8bYE3Cb-108" value="" style="shape=image;html=1;verticalAlign=top;verticalLabelPosition=bottom;labelBackgroundColor=#ffffff;imageAspect=0;aspect=fixed;image=https://cdn1.iconfinder.com/data/icons/hawcons/32/699265-icon-37-file-xml-128.png;dashed=1;strokeWidth=0.4;fillColor=none;" vertex="1" parent="1">
          <mxGeometry x="159" y="302.46000000000004" width="25" height="25" as="geometry" />
        </mxCell>
        <mxCell id="taQMwDj_AXwAS8bYE3Cb-109" value="" style="shape=image;html=1;verticalAlign=top;verticalLabelPosition=bottom;labelBackgroundColor=#ffffff;imageAspect=0;aspect=fixed;image=https://cdn1.iconfinder.com/data/icons/hawcons/32/699265-icon-37-file-xml-128.png;dashed=1;strokeWidth=0.4;fillColor=none;" vertex="1" parent="1">
          <mxGeometry x="160" y="361.46000000000004" width="25" height="25" as="geometry" />
        </mxCell>
      </root>
    </mxGraphModel>
  </diagram>
</mxfile>
